<svg width="1440" height="343" viewBox="0 0 1440 343" fill="none" xmlns="http://www.w3.org/2000/svg">
<path d="M1461.5 7.5L1440 28C1125.5 342.5 334 362 0 28L-20.5 4" stroke="#9B6900" stroke-width="11"/>
<circle cx="343.287" cy="199.855" r="66.3484" transform="rotate(-4.00327 343.287 199.855)" fill="#DC6F3A"/>
<path d="M343.161 191.254C343.033 191.84 342.826 192.312 342.56 192.643C342.318 192.973 341.834 193.271 341.107 193.539C340.38 193.806 339.381 193.972 338.088 194.063L338.269 196.648L342.1 196.38L342.767 205.909L338.577 206.202L338.791 209.267L350.81 208.426L350.596 205.361L346.645 205.638L345.627 191.081L343.161 191.254Z" fill="#ECE1CF"/>
<circle cx="478.787" cy="247.446" r="66.3484" transform="rotate(-4.00327 478.787 247.446)" fill="#E594A9"/>
<path d="M479.298 253.116C481.759 250.802 483.437 249.001 484.308 247.689C485.178 246.377 485.56 244.955 485.453 243.422C485.352 241.986 484.718 240.827 483.525 239.948C482.357 239.068 480.863 238.691 479.02 238.82C477.152 238.951 475.655 239.561 474.552 240.648C473.45 241.736 472.952 243.214 473.009 245.063L476.856 245.371C476.835 243.352 477.602 242.288 479.158 242.179C480.667 242.073 481.512 242.808 481.604 244.125C481.674 245.467 481.141 246.78 479.954 248.041L473.727 254.636L473.884 256.887L486.789 255.984L486.553 252.608L479.298 253.116Z" fill="#ECE1CF"/>
<circle cx="620.432" cy="268.788" r="66.3484" transform="rotate(-4.00327 620.432 268.788)" fill="#EFB852"/>
<path d="M619.269 269.786C619.919 269.452 620.579 269.261 621.274 269.213C622.926 269.097 624.268 270.062 624.401 271.953C624.52 273.653 623.581 275.018 621.737 275.147C619.989 275.269 618.799 274.414 618.589 272.793L614.859 273.463C614.991 275.354 616.025 276.726 617.442 277.372C618.906 278.016 620.389 278.225 621.993 278.112C624.004 277.972 625.593 277.307 626.735 276.096C627.878 274.886 628.4 273.406 628.279 271.682C628.182 270.293 627.619 269.13 626.566 268.169C625.536 267.206 624.28 266.789 622.771 266.895L622.484 266.915L626.966 262.198L626.817 260.068L614.367 260.939L614.58 263.979L621.858 263.47L617.619 268.218L619.269 269.786Z" fill="#ECE1CF"/>
<circle cx="762.233" cy="271.289" r="66.3484" transform="rotate(-4.00327 762.233 271.289)" fill="#79A0C1"/>
<path d="M760.429 263.142C760.419 265.404 760.102 267.399 759.479 269.151C758.854 270.879 757.728 272.665 756.126 274.534L756.326 277.383L764.011 276.845L764.249 280.245L768.127 279.973L767.889 276.574L770.619 276.383L770.419 273.534L767.69 273.725L767.335 268.649L763.545 270.189L763.812 273.996L759.526 274.296C761.161 272.57 762.34 270.851 763.035 269.094C763.73 267.337 764.163 265.262 764.308 262.87L760.429 263.142Z" fill="#ECE1CF"/>
<circle cx="900.893" cy="262.254" r="66.3484" transform="rotate(-4.00327 900.893 262.254)" fill="#517D56"/>
<path d="M907.371 256.583L907.158 253.542L896.743 254.271L896.1 262.617L898.007 264.071C898.899 263.07 900.062 262.508 901.475 262.409C903.462 262.27 904.724 263.457 904.85 265.252C904.955 266.76 904.008 268.006 901.733 268.165C900.393 268.259 899.169 267.623 899.05 266.26C898.669 266.31 898.075 266.424 897.268 266.577L895.439 266.921C895.572 268.813 896.558 270.187 897.951 270.835C899.343 271.484 900.826 271.693 902.43 271.581C904.417 271.441 906.003 270.729 907.166 269.469C908.329 268.208 908.849 266.705 908.728 264.981C908.609 263.281 907.938 261.932 906.737 260.934C905.536 259.935 903.965 259.492 902.002 259.629C901.045 259.696 900.169 259.902 899.373 260.222L899.614 257.126L907.371 256.583Z" fill="#ECE1CF"/>
<circle cx="1039.14" cy="237.56" r="66.3484" transform="rotate(-4.00327 1039.14 237.56)" fill="#003E33"/>
<path d="M1046.95 240.312C1046.78 237.823 1045 235.156 1040.96 235.439C1039.38 235.55 1038.06 235.979 1037.01 236.726C1036.79 233.686 1037.71 232.081 1039.77 231.937C1041.28 231.832 1042.15 232.517 1042.4 233.991L1046.04 233.4C1045.56 230.425 1043.56 228.641 1039.61 228.917C1034.54 229.272 1033.01 233.613 1033.37 238.737C1033.76 244.387 1035.86 247.223 1040.82 246.877C1042.66 246.748 1044.18 246.064 1045.37 244.85C1046.56 243.612 1047.08 242.108 1046.95 240.312ZM1040.61 243.86C1038.5 244.007 1037.47 242.973 1037.28 240.268C1037.25 239.909 1037.23 239.621 1037.24 239.404C1038.01 238.677 1039.01 238.27 1040.24 238.184C1042.15 238.05 1043.08 238.995 1043.2 240.623C1043.34 242.611 1042.36 243.738 1040.61 243.86Z" fill="#ECE1CF"/>
<circle cx="1169.65" cy="186.188" r="66.3484" transform="rotate(-4.00327 1169.65 186.188)" fill="#2D517F"/>
<path d="M1176.51 177.434L1163.56 178.341L1163.77 181.381L1172.66 180.76C1169.68 186.044 1168.24 190.933 1168.34 195.377L1172.36 195.095C1172.32 192.476 1172.61 190.026 1173.24 187.72C1173.87 185.414 1175.01 182.688 1176.66 179.565L1176.51 177.434Z" fill="#ECE1CF"/>
<circle cx="1295.31" cy="120.303" r="66.3484" transform="rotate(-4.00327 1295.31 120.303)" fill="#C4A4DD"/>
<path d="M1295.79 114.522C1297.33 114.415 1298.23 115.29 1298.32 116.535C1298.4 117.78 1297.63 118.772 1296.1 118.879C1294.59 118.985 1293.71 118.108 1293.62 116.863C1293.54 115.618 1294.29 114.628 1295.79 114.522ZM1299.35 124.041C1299.46 125.598 1298.54 126.648 1296.65 126.78C1294.76 126.913 1293.74 126.142 1293.63 124.442C1293.51 122.838 1294.38 121.815 1296.3 121.681C1298.19 121.548 1299.24 122.437 1299.35 124.041ZM1296.88 129.628C1299.08 129.473 1300.72 128.853 1301.78 127.793C1302.83 126.733 1303.32 125.519 1303.23 124.179C1303.1 122.335 1302.02 120.654 1299.74 120.068C1301.43 119.132 1302.2 117.707 1302.07 115.791C1301.98 114.546 1301.35 113.508 1300.21 112.697C1299.07 111.887 1297.53 111.537 1295.62 111.671C1293.68 111.807 1292.2 112.368 1291.16 113.331C1290.15 114.292 1289.67 115.408 1289.76 116.653C1289.89 118.568 1290.85 119.872 1292.66 120.564C1290.48 121.462 1289.65 123.277 1289.78 125.12C1289.87 126.461 1290.53 127.594 1291.72 128.497C1292.94 129.398 1294.65 129.783 1296.88 129.628Z" fill="#ECE1CF"/>
</svg>
