<svg width="786" height="264" viewBox="0 0 786 264" fill="none" xmlns="http://www.w3.org/2000/svg">
<line x1="2.00019" y1="88.2852" x2="785.999" y2="88.4345" stroke="black" stroke-width="2"/>
<line x1="-0.000531767" y1="2" x2="785.999" y2="1.58203" stroke="black" stroke-width="2"/>
<line x1="2.00014" y1="175.098" x2="785.999" y2="175.207" stroke="black" stroke-width="2"/>
<line x1="-8.74228e-08" y1="262" x2="786" y2="262" stroke="black" stroke-width="2"/>
<line x1="86.2656" y1="263.059" x2="86.2656" y2="2.58559" stroke="black" stroke-width="2"/>
<line x1="1" y1="263" x2="1" y2="1.99999" stroke="black" stroke-width="2"/>
<line x1="699.637" y1="263.059" x2="699.637" y2="2.5856" stroke="black" stroke-width="2"/>
<line x1="785" y1="263.059" x2="785" y2="2.5856" stroke="black" stroke-width="2"/>
<path d="M85.4882 89L60.3614 132L85.4882 175H63.0063L44.4918 143.279H21.6132V175H1.51172V89H21.6132V120.721H44.4918L63.0063 89H85.4882Z" stroke="black" stroke-width="2.02353"/>
<path d="M169.976 2L144.85 45L169.976 88H147.495L128.98 56.2787H106.101V88H86V2H106.101V33.7213H128.98L147.495 2H169.976Z" stroke="black" stroke-width="2.02353"/>
<path d="M171.493 88.3945L145.986 131.8L171.493 175.206H148.671L129.876 143.185H106.652V175.206H86.2461V88.3945H106.652V120.415H129.876L148.671 88.3945H171.493Z" fill="#101010"/>
<path d="M350.223 88.3945H371.031V175.206H350.223V143.043H306.19V175.206H285.65V88.3945H306.19V120.415H350.223V88.3945Z" fill="#101010"/>
<path d="M281.406 131.698C281.406 155.061 254.947 174.001 222.307 174.001C189.667 174.001 163.207 155.061 163.207 131.698C163.207 108.334 189.667 89.3945 222.307 89.3945C254.947 89.3945 281.406 108.334 281.406 131.698Z" fill="white"/>
<path d="M235.738 131.698C235.738 155.061 229.725 174.001 222.307 174.001C214.889 174.001 208.875 155.061 208.875 131.698C208.875 108.334 214.889 89.3945 222.307 89.3945C229.725 89.3945 235.738 108.334 235.738 131.698Z" fill="#101010"/>
<path d="M501.098 89.3945L475.591 132.8L501.098 176.206H478.276L459.482 144.185H436.257V176.206H415.852V89.3945H436.257V121.415H459.482L478.276 89.3945H501.098Z" fill="#101010"/>
<path d="M679.828 89.3945H700.636V176.206H679.828V144.043H635.795V176.206H615.255V89.3945H635.795V121.415H679.828V89.3945Z" fill="#101010"/>
<path d="M610.012 131.698C610.012 155.061 583.552 174.001 550.912 174.001C518.272 174.001 491.812 155.061 491.812 131.698C491.812 108.334 518.272 89.3945 550.912 89.3945C583.552 89.3945 610.012 108.334 610.012 131.698Z" fill="white"/>
<path d="M564.344 131.698C564.344 155.061 558.33 174.001 550.912 174.001C543.494 174.001 537.48 155.061 537.48 131.698C537.48 108.334 543.494 89.3945 550.912 89.3945C558.33 89.3945 564.344 108.334 564.344 131.698Z" fill="#101010"/>
<path d="M376.332 122.25H411.606V143.133H376.332V122.25Z" fill="#101010"/>
</svg>
