<svg width="783" height="109" viewBox="0 0 783 109" fill="none" xmlns="http://www.w3.org/2000/svg">
<rect y="0.460938" width="381.125" height="108.157" fill="black"/>
<path d="M72.3734 31.3624L58.7316 54.5769L72.3734 77.7913H60.1676L50.1158 60.6659H37.6946V77.7913H26.7812V31.3624H37.6946V48.4878H50.1158L60.1676 31.3624H72.3734Z" fill="#ECE1CF"/>
<path d="M167.963 31.3624H179.091V77.7913H167.963V60.5898H144.413V77.7913H133.427V31.3624H144.413V48.4878H167.963V31.3624Z" fill="#ECE1CF"/>
<path d="M131.157 54.5225C131.157 67.0178 117.006 77.1473 99.5494 77.1473C82.0928 77.1473 67.9414 67.0178 67.9414 54.5225C67.9414 42.0272 82.0928 31.8977 99.5494 31.8977C117.006 31.8977 131.157 42.0272 131.157 54.5225Z" fill="#ECE1CF"/>
<path d="M106.734 54.5225C106.734 67.0178 103.518 77.1473 99.5508 77.1473C95.5834 77.1473 92.3672 67.0178 92.3672 54.5225C92.3672 42.0272 95.5834 31.8977 99.5508 31.8977C103.518 31.8977 106.734 42.0272 106.734 54.5225Z" fill="black"/>
<path d="M248.655 31.8977L235.013 55.1122L248.655 78.3266H236.449L226.397 61.2012H213.976V78.3266H203.062V31.8977H213.976V49.0231H226.397L236.449 31.8977H248.655Z" fill="#ECE1CF"/>
<path d="M344.244 31.8977H355.373V78.3266H344.244V61.1251H320.694V78.3266H309.709V31.8977H320.694V49.0231H344.244V31.8977Z" fill="#ECE1CF"/>
<path d="M306.904 54.5225C306.904 67.0178 292.752 77.1473 275.296 77.1473C257.839 77.1473 243.688 67.0178 243.688 54.5225C243.688 42.0272 257.839 31.8977 275.296 31.8977C292.752 31.8977 306.904 42.0272 306.904 54.5225Z" fill="#ECE1CF"/>
<path d="M282.481 54.5225C282.481 67.0178 279.264 77.1473 275.297 77.1473C271.33 77.1473 268.113 67.0178 268.113 54.5225C268.113 42.0272 271.33 31.8977 275.297 31.8977C279.264 31.8977 282.481 42.0272 282.481 54.5225Z" fill="black"/>
<path d="M181.926 49.4674H200.791V60.6359H181.926V49.4674Z" fill="#ECE1CF"/>
<rect x="401.5" y="0.960938" width="380.125" height="107.157" stroke="black"/>
<path d="M473.373 31.3624L459.732 54.5769L473.373 77.7913H461.168L451.116 60.6659H438.695V77.7913H427.781V31.3624H438.695V48.4878H451.116L461.168 31.3624H473.373Z" fill="black"/>
<path d="M568.963 31.3624H580.091V77.7913H568.963V60.5898H545.413V77.7913H534.427V31.3624H545.413V48.4878H568.963V31.3624Z" fill="black"/>
<path d="M532.157 54.5225C532.157 67.0178 518.006 77.1473 500.549 77.1473C483.093 77.1473 468.941 67.0178 468.941 54.5225C468.941 42.0272 483.093 31.8977 500.549 31.8977C518.006 31.8977 532.157 42.0272 532.157 54.5225Z" fill="black"/>
<path d="M507.734 54.5225C507.734 67.0178 504.518 77.1473 500.551 77.1473C496.583 77.1473 493.367 67.0178 493.367 54.5225C493.367 42.0272 496.583 31.8977 500.551 31.8977C504.518 31.8977 507.734 42.0272 507.734 54.5225Z" fill="#ECE1CF"/>
<path d="M649.655 31.8977L636.013 55.1122L649.655 78.3266H637.449L627.397 61.2012H614.976V78.3266H604.062V31.8977H614.976V49.0231H627.397L637.449 31.8977H649.655Z" fill="black"/>
<path d="M745.244 31.8977H756.373V78.3266H745.244V61.1251H721.694V78.3266H710.709V31.8977H721.694V49.0231H745.244V31.8977Z" fill="black"/>
<path d="M707.904 54.5225C707.904 67.0178 693.752 77.1473 676.296 77.1473C658.839 77.1473 644.688 67.0178 644.688 54.5225C644.688 42.0272 658.839 31.8977 676.296 31.8977C693.752 31.8977 707.904 42.0272 707.904 54.5225Z" fill="black"/>
<path d="M683.481 54.5225C683.481 67.0178 680.264 77.1473 676.297 77.1473C672.33 77.1473 669.113 67.0178 669.113 54.5225C669.113 42.0272 672.33 31.8977 676.297 31.8977C680.264 31.8977 683.481 42.0272 683.481 54.5225Z" fill="#ECE1CF"/>
<path d="M582.926 49.4674H601.791V60.6359H582.926V49.4674Z" fill="black"/>
</svg>
