<svg width="783" height="490" viewBox="0 0 783 490" fill="none" xmlns="http://www.w3.org/2000/svg">
<g clip-path="url(#clip0_796_2728)">
<line x1="33.125" y1="-158.23" x2="33.125" y2="668.892" stroke="#ECE1CF"/>
<line x1="83.1484" y1="-158.23" x2="83.1484" y2="668.892" stroke="#ECE1CF"/>
<line x1="94.0234" y1="-158.23" x2="94.0234" y2="668.892" stroke="#ECE1CF"/>
<line x1="143.508" y1="-163.668" x2="143.508" y2="663.455" stroke="#ECE1CF"/>
<line x1="154.383" y1="-163.668" x2="154.383" y2="663.455" stroke="#ECE1CF"/>
<line x1="204.406" y1="-163.668" x2="204.406" y2="663.455" stroke="#ECE1CF"/>
<line x1="215.281" y1="-163.668" x2="215.281" y2="663.455" stroke="#ECE1CF"/>
<line x1="265.305" y1="-169.105" x2="265.305" y2="658.017" stroke="#ECE1CF"/>
<line x1="276.18" y1="-169.105" x2="276.18" y2="658.017" stroke="#ECE1CF"/>
<line x1="325.664" y1="-169.105" x2="325.664" y2="658.017" stroke="#ECE1CF"/>
<line x1="336.539" y1="-169.105" x2="336.539" y2="658.017" stroke="#ECE1CF"/>
<line x1="386.562" y1="-169.105" x2="386.562" y2="658.017" stroke="#ECE1CF"/>
<line x1="397.438" y1="-169.105" x2="397.438" y2="658.017" stroke="#ECE1CF"/>
<line x1="447.461" y1="-169.105" x2="447.461" y2="658.017" stroke="#ECE1CF"/>
<line x1="458.336" y1="-169.105" x2="458.336" y2="658.017" stroke="#ECE1CF"/>
<line x1="507.82" y1="-169.105" x2="507.82" y2="658.017" stroke="#ECE1CF"/>
<line x1="518.695" y1="-174.543" x2="518.695" y2="652.58" stroke="#ECE1CF"/>
<line x1="568.719" y1="-174.543" x2="568.719" y2="652.58" stroke="#ECE1CF"/>
<line x1="579.594" y1="-174.543" x2="579.594" y2="652.58" stroke="#ECE1CF"/>
<line x1="629.617" y1="-174.543" x2="629.617" y2="652.58" stroke="#ECE1CF"/>
<line x1="640.492" y1="-174.543" x2="640.492" y2="652.58" stroke="#ECE1CF"/>
<line x1="689.977" y1="-174.543" x2="689.977" y2="652.58" stroke="#ECE1CF"/>
<line x1="700.852" y1="-174.543" x2="700.852" y2="652.58" stroke="#ECE1CF"/>
<line x1="750.875" y1="-174.543" x2="750.875" y2="652.58" stroke="#ECE1CF"/>
<line x1="-22.293" y1="249.626" x2="804.83" y2="249.626" stroke="#ECE1CF"/>
<line x1="-22.293" y1="311.069" x2="804.83" y2="311.069" stroke="#ECE1CF"/>
<line x1="-22.293" y1="321.944" x2="804.83" y2="321.944" stroke="#ECE1CF"/>
<line x1="-11.9609" y1="383.932" x2="815.162" y2="383.932" stroke="#ECE1CF"/>
<line x1="-11.9609" y1="394.807" x2="815.162" y2="394.807" stroke="#ECE1CF"/>
<line y1="456.251" x2="827.123" y2="456.251" stroke="#ECE1CF"/>
<line x1="-141.375" y1="32.126" x2="889.031" y2="32.126" stroke="#ECE1CF"/>
<line x1="-141.375" y1="93.5693" x2="889.031" y2="93.5693" stroke="#ECE1CF"/>
<line x1="-141.375" y1="104.444" x2="889.031" y2="104.444" stroke="#ECE1CF"/>
<line x1="-132.133" y1="166.432" x2="898.273" y2="166.432" stroke="#ECE1CF"/>
<line x1="-132.133" y1="177.307" x2="898.273" y2="177.307" stroke="#ECE1CF"/>
<line x1="-132.133" y1="238.751" x2="898.273" y2="238.751" stroke="#ECE1CF"/>
</g>
<defs>
<clipPath id="clip0_796_2728">
<rect width="783" height="489.375" fill="white"/>
</clipPath>
</defs>
</svg>
