<svg width="1255" height="733" viewBox="0 0 1255 733" fill="none" xmlns="http://www.w3.org/2000/svg">
<ellipse cx="509.7" cy="357.747" rx="285.305" ry="305.47" fill="#ECE1CF"/>
<ellipse cx="969.886" cy="491.5" rx="252.635" ry="132.65" transform="rotate(150 969.886 491.5)" fill="#D84E00"/>
<ellipse cx="51.9212" cy="612.162" rx="51.4837" ry="51.0546" fill="#517D56"/>
<ellipse cx="256.14" cy="612.162" rx="51.4837" ry="51.0546" fill="#79A0C1"/>
<circle cx="204.656" cy="523.352" r="51.4837" fill="#DC6F3A"/>
<ellipse cx="102.547" cy="523.352" rx="50.6256" ry="51.4837" fill="#E594A9"/>
<ellipse cx="154.032" cy="434.543" rx="50.6256" ry="51.0546" fill="#EFB852"/>
<ellipse cx="154.032" cy="612.162" rx="50.6256" ry="51.0546" fill="#2D517F"/>
<ellipse cx="1129.65" cy="612.162" rx="51.4837" ry="51.0546" fill="#C4A4DD"/>
<path d="M477.999 371.888H481.899V370.628H478.399L479.299 367.668H482.219V366.408H479.719L481.159 361.768H479.939L478.479 366.408H475.379L476.839 361.768H475.599L474.159 366.408H470.219V367.668H473.739L472.839 370.628H469.899V371.888H472.439L470.999 376.488H472.239L473.659 371.888H476.759L475.319 376.488H476.579L477.999 371.888ZM478.059 367.668L477.159 370.628H474.059L474.959 367.668H478.059ZM492.286 372.228C492.286 368.948 490.926 367.048 488.366 367.048C485.586 367.048 484.186 369.028 484.186 371.908C484.186 373.368 484.546 374.528 485.286 375.428C486.026 376.328 487.086 376.768 488.466 376.768C490.566 376.768 491.906 375.548 492.126 373.628L490.786 373.468C490.686 374.808 489.826 375.528 488.466 375.528C486.766 375.528 485.746 374.228 485.746 372.228H492.286ZM488.346 368.148C489.726 368.148 490.666 369.208 490.726 371.068H485.746C485.826 369.128 486.686 368.148 488.346 368.148ZM497.916 375.608C496.176 375.608 495.276 374.228 495.276 371.908C495.276 369.608 496.176 368.228 497.916 368.228C499.136 368.228 500.016 368.988 500.196 370.368L501.696 370.208C501.476 368.288 500.056 367.048 497.916 367.048C495.176 367.048 493.756 369.008 493.756 371.908C493.756 374.848 495.136 376.768 497.916 376.768C500.056 376.768 501.476 375.548 501.696 373.628L500.196 373.468C500.016 374.848 499.136 375.608 497.916 375.608ZM511.192 372.228C511.192 368.948 509.832 367.048 507.272 367.048C504.492 367.048 503.092 369.028 503.092 371.908C503.092 373.368 503.452 374.528 504.192 375.428C504.932 376.328 505.992 376.768 507.372 376.768C509.472 376.768 510.812 375.548 511.032 373.628L509.692 373.468C509.592 374.808 508.732 375.528 507.372 375.528C505.672 375.528 504.652 374.228 504.652 372.228H511.192ZM507.252 368.148C508.632 368.148 509.572 369.208 509.632 371.068H504.652C504.732 369.128 505.592 368.148 507.252 368.148ZM517.722 361.768C517.602 362.228 517.462 362.548 517.322 362.748C517.182 362.948 516.842 363.108 516.342 363.248C515.842 363.368 515.102 363.428 514.122 363.428V364.508H517.082V375.048H513.682V376.488H522.002V375.048H518.742V361.768H517.722ZM528.678 375.608C526.938 375.608 526.038 374.228 526.038 371.908C526.038 369.608 526.938 368.228 528.678 368.228C529.898 368.228 530.778 368.988 530.958 370.368L532.458 370.208C532.238 368.288 530.818 367.048 528.678 367.048C525.938 367.048 524.518 369.008 524.518 371.908C524.518 374.848 525.898 376.768 528.678 376.768C530.818 376.768 532.238 375.548 532.458 373.628L530.958 373.468C530.778 374.848 529.898 375.608 528.678 375.608ZM536.494 368.588H538.574V367.328H536.494V365.428C536.494 363.428 537.094 362.868 538.034 362.868C538.674 362.868 539.034 363.288 539.034 363.848C539.034 364.068 538.974 364.328 538.854 364.608L540.134 364.768C540.274 364.408 540.334 364.048 540.334 363.708C540.334 362.568 539.474 361.768 538.054 361.768C536.014 361.768 534.994 362.988 534.994 365.448V367.328H533.394V368.588H534.994V376.488H536.494V368.588Z" fill="black"/>
<path d="M688.3 40.4H692.2V39.14H688.7L689.6 36.18H692.52V34.92H690.02L691.46 30.28H690.24L688.78 34.92H685.68L687.14 30.28H685.9L684.46 34.92H680.52V36.18H684.04L683.14 39.14H680.2V40.4H682.74L681.3 45H682.54L683.96 40.4H687.06L685.62 45H686.88L688.3 40.4ZM688.36 36.18L687.46 39.14H684.36L685.26 36.18H688.36ZM699.547 30.28C699.427 30.74 699.287 31.06 699.147 31.26C699.007 31.46 698.667 31.62 698.167 31.76C697.667 31.88 696.927 31.94 695.947 31.94V33.02H698.907V43.56H695.507V45H703.827V43.56H700.567V30.28H699.547ZM714.822 37.78C714.822 41.46 713.702 43.84 711.522 43.84C709.302 43.84 708.222 41.48 708.222 37.78C708.222 35.96 708.502 34.5 709.042 33.4C709.582 32.3 710.422 31.74 711.522 31.74C712.622 31.74 713.442 32.3 713.982 33.4C714.542 34.5 714.822 35.96 714.822 37.78ZM711.522 45.28C713.142 45.28 714.382 44.58 715.202 43.18C716.042 41.78 716.462 39.98 716.462 37.78C716.462 35.58 716.042 33.78 715.202 32.38C714.382 30.98 713.142 30.28 711.522 30.28C709.882 30.28 708.642 30.98 707.802 32.38C706.982 33.78 706.562 35.58 706.562 37.78C706.562 39.98 706.982 41.78 707.802 43.18C708.642 44.58 709.882 45.28 711.522 45.28ZM723.258 30.28C723.138 30.74 722.998 31.06 722.858 31.26C722.717 31.46 722.378 31.62 721.878 31.76C721.378 31.88 720.638 31.94 719.658 31.94V33.02H722.618V43.56H719.218V45H727.537V43.56H724.278V30.28H723.258ZM738.533 37.78C738.533 41.46 737.413 43.84 735.233 43.84C733.013 43.84 731.933 41.48 731.933 37.78C731.933 35.96 732.213 34.5 732.753 33.4C733.293 32.3 734.133 31.74 735.233 31.74C736.333 31.74 737.153 32.3 737.693 33.4C738.253 34.5 738.533 35.96 738.533 37.78ZM735.233 45.28C736.853 45.28 738.093 44.58 738.913 43.18C739.753 41.78 740.173 39.98 740.173 37.78C740.173 35.58 739.753 33.78 738.913 32.38C738.093 30.98 736.853 30.28 735.233 30.28C733.593 30.28 732.353 30.98 731.513 32.38C730.693 33.78 730.273 35.58 730.273 37.78C730.273 39.98 730.693 41.78 731.513 43.18C732.353 44.58 733.593 45.28 735.233 45.28ZM746.968 30.28C746.848 30.74 746.708 31.06 746.568 31.26C746.428 31.46 746.088 31.62 745.588 31.76C745.088 31.88 744.348 31.94 743.368 31.94V33.02H746.328V43.56H742.928V45H751.248V43.56H747.988V30.28H746.968ZM762.244 37.78C762.244 41.46 761.124 43.84 758.944 43.84C756.724 43.84 755.644 41.48 755.644 37.78C755.644 35.96 755.924 34.5 756.464 33.4C757.004 32.3 757.844 31.74 758.944 31.74C760.044 31.74 760.864 32.3 761.404 33.4C761.964 34.5 762.244 35.96 762.244 37.78ZM758.944 45.28C760.564 45.28 761.804 44.58 762.624 43.18C763.464 41.78 763.884 39.98 763.884 37.78C763.884 35.58 763.464 33.78 762.624 32.38C761.804 30.98 760.564 30.28 758.944 30.28C757.304 30.28 756.064 30.98 755.224 32.38C754.404 33.78 753.984 35.58 753.984 37.78C753.984 39.98 754.404 41.78 755.224 43.18C756.064 44.58 757.304 45.28 758.944 45.28Z" fill="#ECE1CF"/>
<path d="M933.3 524.4H937.2V523.14H933.7L934.6 520.18H937.52V518.92H935.02L936.46 514.28H935.24L933.78 518.92H930.68L932.14 514.28H930.9L929.46 518.92H925.52V520.18H929.04L928.14 523.14H925.2V524.4H927.74L926.3 529H927.54L928.96 524.4H932.06L930.62 529H931.88L933.3 524.4ZM933.36 520.18L932.46 523.14H929.36L930.26 520.18H933.36ZM948.027 514.56H946.527V521.64C945.987 520.26 944.947 519.58 943.367 519.58C942.147 519.58 941.207 520.04 940.507 520.98C939.827 521.9 939.487 523.04 939.487 524.42C939.487 525.8 939.847 526.94 940.547 527.88C941.247 528.82 942.247 529.28 943.507 529.28C944.847 529.28 945.867 528.64 946.527 527.38V529H948.027V514.56ZM946.527 524.48C946.527 526.64 945.427 528.04 943.767 528.04C942.107 528.04 941.027 526.82 941.027 524.48C941.027 522.08 942.127 520.82 943.807 520.82C945.427 520.82 946.527 522.26 946.527 524.48ZM958.454 525.04C958.454 526.7 957.294 527.84 955.154 527.84C953.014 527.84 951.874 526.72 951.874 525.04C951.874 523.42 953.074 522.26 955.154 522.26C957.234 522.26 958.454 523.42 958.454 525.04ZM950.214 525.16C950.214 526.32 950.634 527.3 951.474 528.1C952.314 528.88 953.534 529.28 955.154 529.28C956.774 529.28 957.994 528.88 958.834 528.1C959.694 527.3 960.114 526.32 960.114 525.16C960.114 523.34 958.834 521.92 957.094 521.5C958.794 520.92 959.654 519.76 959.654 518.02C959.654 516.92 959.214 516.02 958.334 515.32C957.454 514.62 956.394 514.28 955.154 514.28C953.934 514.28 952.874 514.62 951.994 515.32C951.114 516.02 950.674 516.92 950.674 518.02C950.674 519.76 951.534 520.92 953.234 521.5C951.494 521.92 950.214 523.34 950.214 525.16ZM952.334 518.24C952.334 516.74 953.494 515.74 955.174 515.74C956.854 515.74 958.014 516.74 958.014 518.24C958.014 519.76 956.854 520.8 955.174 520.8C953.494 520.8 952.334 519.76 952.334 518.24ZM968.25 524.26H963.33C964.87 522.84 965.99 521.38 966.73 519.88C967.47 518.38 968.01 516.6 968.33 514.56H966.67C966.49 516.44 965.99 518.14 965.21 519.64C964.43 521.14 963.27 522.68 961.73 524.26V525.72H968.25V529H969.91V525.72H972.27V524.26H969.91V519.54L968.25 520.02V524.26ZM981.805 524.74C981.805 521.46 980.445 519.56 977.885 519.56C975.105 519.56 973.705 521.54 973.705 524.42C973.705 525.88 974.065 527.04 974.805 527.94C975.545 528.84 976.605 529.28 977.985 529.28C980.085 529.28 981.425 528.06 981.645 526.14L980.305 525.98C980.205 527.32 979.345 528.04 977.985 528.04C976.285 528.04 975.265 526.74 975.265 524.74H981.805ZM977.865 520.66C979.245 520.66 980.185 521.72 980.245 523.58H975.265C975.345 521.64 976.205 520.66 977.865 520.66ZM991.756 521.78C991.756 525.46 990.636 527.84 988.456 527.84C986.236 527.84 985.156 525.48 985.156 521.78C985.156 519.96 985.436 518.5 985.976 517.4C986.516 516.3 987.356 515.74 988.456 515.74C989.556 515.74 990.376 516.3 990.916 517.4C991.476 518.5 991.756 519.96 991.756 521.78ZM988.456 529.28C990.076 529.28 991.316 528.58 992.136 527.18C992.976 525.78 993.396 523.98 993.396 521.78C993.396 519.58 992.976 517.78 992.136 516.38C991.316 514.98 990.076 514.28 988.456 514.28C986.816 514.28 985.576 514.98 984.736 516.38C983.916 517.78 983.496 519.58 983.496 521.78C983.496 523.98 983.916 525.78 984.736 527.18C985.576 528.58 986.816 529.28 988.456 529.28ZM1003.61 521.78C1003.61 525.46 1002.49 527.84 1000.31 527.84C998.091 527.84 997.011 525.48 997.011 521.78C997.011 519.96 997.291 518.5 997.831 517.4C998.371 516.3 999.211 515.74 1000.31 515.74C1001.41 515.74 1002.23 516.3 1002.77 517.4C1003.33 518.5 1003.61 519.96 1003.61 521.78ZM1000.31 529.28C1001.93 529.28 1003.17 528.58 1003.99 527.18C1004.83 525.78 1005.25 523.98 1005.25 521.78C1005.25 519.58 1004.83 517.78 1003.99 516.38C1003.17 514.98 1001.93 514.28 1000.31 514.28C998.671 514.28 997.431 514.98 996.591 516.38C995.771 517.78 995.351 519.58 995.351 521.78C995.351 523.98 995.771 525.78 996.591 527.18C997.431 528.58 998.671 529.28 1000.31 529.28Z" fill="#ECE1CF"/>
<path d="M476.259 336.588C477.979 336.588 478.919 337.528 479.059 339.408L482.239 338.988C481.899 334.748 478.699 333.768 476.079 333.768C473.919 333.768 472.279 334.448 471.139 335.788C469.999 337.128 469.439 338.988 469.439 341.328C469.439 346.068 471.839 348.768 476.079 348.768C478.599 348.768 481.899 347.768 482.239 343.348L479.059 342.928C478.879 344.908 477.859 345.948 476.259 345.948C473.939 345.948 472.779 344.588 472.779 341.328C472.779 338.048 473.859 336.588 476.259 336.588ZM492.757 344.508C492.757 341.128 491.317 339.048 488.377 339.048C485.357 339.048 483.597 340.948 483.597 343.908C483.597 347.048 485.137 348.768 488.177 348.768C490.837 348.768 492.317 347.488 492.577 345.568L490.017 345.368C489.837 346.408 489.417 346.848 488.357 346.848C487.057 346.848 486.457 346.188 486.457 344.508H492.757ZM488.337 340.808C489.357 340.808 489.977 341.508 489.997 342.808H486.457C486.537 341.428 487.137 340.808 488.337 340.808ZM494.506 348.488H497.106V342.188H497.186L499.546 348.488H501.386L503.646 342.188H503.726V348.488H506.326V339.328H502.486L500.466 344.948L498.406 339.328H494.506V348.488ZM517.23 344.508C517.23 341.128 515.79 339.048 512.85 339.048C509.83 339.048 508.07 340.948 508.07 343.908C508.07 347.048 509.61 348.768 512.65 348.768C515.31 348.768 516.79 347.488 517.05 345.568L514.49 345.368C514.31 346.408 513.89 346.848 512.83 346.848C511.53 346.848 510.93 346.188 510.93 344.508H517.23ZM512.81 340.808C513.83 340.808 514.45 341.508 514.47 342.808H510.93C511.01 341.428 511.61 340.808 512.81 340.808ZM527.399 348.488V339.328H524.579V343.308C523.899 343.568 523.279 343.708 522.719 343.708C521.699 343.708 521.199 343.288 521.199 342.468V339.328H518.379V342.488C518.379 344.728 519.479 345.848 521.679 345.848C522.699 345.848 523.659 345.668 524.579 345.328V348.488H527.399ZM537.504 345.588C537.324 344.628 536.864 344.028 535.504 343.768C536.564 343.428 536.924 342.928 537.184 341.968C537.364 341.348 537.624 341.028 537.964 341.028C538.144 341.028 538.304 341.068 538.444 341.168L538.864 339.428C538.324 339.168 537.824 339.048 537.364 339.048C535.944 339.048 535.444 339.688 534.824 341.348C534.444 342.328 534.044 342.708 533.104 342.708H532.284V339.328H529.504V348.488H532.284V344.908H533.264C534.364 344.908 534.784 345.228 535.004 346.348C535.184 347.308 535.444 347.948 535.744 348.288C536.044 348.608 536.524 348.768 537.164 348.768C537.824 348.768 538.444 348.648 538.984 348.388L538.584 346.688C538.384 346.748 538.244 346.788 538.164 346.788C537.824 346.788 537.684 346.488 537.504 345.588ZM548.235 347.408C549.115 346.508 549.555 345.328 549.555 343.908C549.555 342.488 549.115 341.308 548.235 340.408C547.355 339.508 546.135 339.048 544.555 339.048C542.975 339.048 541.755 339.508 540.855 340.408C539.975 341.308 539.535 342.488 539.535 343.908C539.535 345.328 539.975 346.508 540.855 347.408C541.755 348.308 542.975 348.768 544.555 348.768C546.135 348.768 547.355 348.308 548.235 347.408ZM546.715 343.908C546.715 345.768 545.995 346.708 544.555 346.708C543.115 346.708 542.395 345.768 542.395 343.908C542.395 342.068 543.115 341.148 544.555 341.148C545.995 341.148 546.715 342.068 546.715 343.908Z" fill="black"/>
<path d="M691.4 3.56H688.16V9.88C687.06 10.26 686.08 10.46 685.2 10.46C683.68 10.46 682.84 9.98 682.84 8.32V3.56H679.6V8.32C679.6 11.58 681.16 13.2 683.86 13.2C685.52 13.2 686.96 12.96 688.16 12.46V18H691.4V3.56ZM702.394 14.02C702.394 10.64 700.954 8.56 698.014 8.56C694.994 8.56 693.234 10.46 693.234 13.42C693.234 16.56 694.774 18.28 697.814 18.28C700.474 18.28 701.954 17 702.214 15.08L699.654 14.88C699.474 15.92 699.054 16.36 697.994 16.36C696.694 16.36 696.094 15.7 696.094 14.02H702.394ZM697.974 10.32C698.994 10.32 699.614 11.02 699.634 12.32H696.094C696.174 10.94 696.774 10.32 697.974 10.32ZM706.863 16.62C707.363 17.72 708.403 18.28 709.943 18.28C711.203 18.28 712.203 17.82 712.903 16.9C713.603 15.98 713.963 14.82 713.963 13.42C713.963 12.04 713.603 10.9 712.863 9.96C712.123 9.02 711.103 8.56 709.763 8.56C708.503 8.56 707.483 9.06 706.663 10.04V8.84H704.043V21.76H706.863V16.62ZM706.823 13.38C706.823 11.64 707.703 10.76 708.963 10.76C710.423 10.76 711.143 11.64 711.143 13.38C711.143 15.36 710.183 16.08 708.923 16.08C707.703 16.08 706.823 15.16 706.823 13.38ZM722.205 8.84V12.22H718.425V8.84H715.605V18H718.425V14.42H722.205V18H725.025V8.84H722.205ZM739.251 18V8.84H736.431V18H739.251ZM731.231 13.68C732.171 13.68 732.671 14.14 732.671 14.86C732.671 15.58 732.171 16.08 731.231 16.08H729.691V13.68H731.231ZM726.871 8.84V18H731.791C734.191 18 735.491 16.82 735.491 14.88C735.491 12.94 734.191 11.76 731.791 11.76H729.691V8.84H726.871ZM750.714 8.84H747.594L743.914 14.52V8.84H741.094V18H744.214L747.894 12.22V18H750.714V8.84ZM742.234 4.94C742.234 6.76 743.434 7.68 745.854 7.68C748.274 7.68 749.474 6.76 749.474 4.94L747.234 4.76C747.234 5.62 746.774 6.06 745.854 6.06C744.934 6.06 744.474 5.62 744.474 4.76L742.234 4.94ZM762.779 13.06C761.859 13.06 761.399 12.68 761.399 11.92C761.399 11.12 761.859 10.72 762.779 10.72H764.499V13.06H762.779ZM759.259 15.5C759.079 16.1 758.799 16.4 758.419 16.4C758.339 16.4 758.279 16.38 758.219 16.34L757.779 17.96C758.239 18.18 758.759 18.28 759.299 18.28C760.519 18.28 761.079 17.86 761.459 17.04C761.639 16.64 761.899 15.9 761.999 15.66C762.059 15.54 762.159 15.4 762.259 15.26C762.499 14.94 762.799 14.88 763.299 14.88H764.499V18H767.279V8.84H762.279C759.799 8.84 758.559 9.74 758.559 11.56C758.559 12.9 759.399 13.74 760.779 14.04C760.039 14.26 759.519 14.74 759.259 15.5ZM775.877 8.84V12.22H772.097V8.84H769.277V18H772.097V14.42H775.877V18H778.697V8.84H775.877ZM785.803 11.04H788.843V8.84H779.943V11.04H782.983V18H785.803V11.04ZM793.422 16.48C792.662 16.48 792.282 16.1 792.282 15.36C792.282 14.46 793.022 13.9 795.562 13.9C795.502 15.72 794.622 16.48 793.422 16.48ZM799.382 16.04C799.142 16.26 798.942 16.36 798.782 16.36C798.482 16.36 798.342 16.14 798.342 15.7C798.342 15.22 798.362 14.48 798.402 13.5C798.442 12.5 798.462 11.84 798.462 11.5C798.462 9.6 796.982 8.56 794.102 8.56C792.562 8.56 791.342 8.82 790.482 9.76C790.062 10.22 789.842 10.8 789.842 11.5L792.382 11.86C792.442 10.92 793.102 10.44 794.082 10.44C795.262 10.44 795.602 10.74 795.622 11.64C795.622 11.8 795.602 12.06 795.582 12.4C791.522 12.46 789.502 13.56 789.502 15.74C789.502 17.32 790.602 18.28 792.282 18.28C794.102 18.28 795.102 17.88 795.982 16.74C796.082 17.76 796.722 18.28 797.942 18.28C798.682 18.28 799.402 17.94 800.082 17.26L799.382 16.04ZM803.992 16.62C804.492 17.72 805.532 18.28 807.072 18.28C808.332 18.28 809.332 17.82 810.032 16.9C810.732 15.98 811.092 14.82 811.092 13.42C811.092 12.04 810.732 10.9 809.992 9.96C809.252 9.02 808.232 8.56 806.892 8.56C805.632 8.56 804.612 9.06 803.792 10.04V8.84H801.172V21.76H803.992V16.62ZM803.952 13.38C803.952 11.64 804.832 10.76 806.092 10.76C807.552 10.76 808.272 11.64 808.272 13.38C808.272 15.36 807.312 16.08 806.052 16.08C804.832 16.08 803.952 15.16 803.952 13.38ZM817.034 13.68C817.974 13.68 818.474 14.14 818.474 14.86C818.474 15.58 817.974 16.08 817.034 16.08H815.394V13.68H817.034ZM812.574 8.84V18H817.594C819.994 18 821.294 16.82 821.294 14.88C821.294 12.94 819.994 11.76 817.594 11.76H815.394V8.84H812.574Z" fill="#ECE1CF"/>
<path d="M930.62 496.86C932.34 496.86 933.72 496.4 934.76 495.48C935.82 494.54 936.34 493.28 936.34 491.68C936.34 490.08 935.82 488.82 934.78 487.92C933.74 487.02 932.34 486.56 930.6 486.56H925.2V501H928.44V496.86H930.62ZM928.44 489.4H930.56C932.34 489.4 933.06 490.34 933.06 491.64C933.06 493 932.3 494.04 930.56 494.04H928.44V489.4ZM941.705 496.06C940.785 496.06 940.325 495.68 940.325 494.92C940.325 494.12 940.785 493.72 941.705 493.72H943.425V496.06H941.705ZM938.185 498.5C938.005 499.1 937.725 499.4 937.345 499.4C937.265 499.4 937.205 499.38 937.145 499.34L936.705 500.96C937.165 501.18 937.685 501.28 938.225 501.28C939.445 501.28 940.005 500.86 940.385 500.04C940.565 499.64 940.825 498.9 940.925 498.66C940.985 498.54 941.085 498.4 941.185 498.26C941.425 497.94 941.725 497.88 942.225 497.88H943.425V501H946.205V491.84H941.205C938.725 491.84 937.485 492.74 937.485 494.56C937.485 495.9 938.325 496.74 939.705 497.04C938.965 497.26 938.445 497.74 938.185 498.5ZM947.843 496.42C947.843 497.84 948.283 499.02 949.163 499.92C950.063 500.82 951.283 501.28 952.863 501.28C954.443 501.28 955.663 500.82 956.543 499.92C957.423 499.02 957.863 497.84 957.863 496.42C957.863 493.54 956.303 491.76 953.363 491.76C951.723 491.76 950.563 492.36 949.903 493.54C949.903 491.38 951.003 490.56 953.303 490.22C954.963 489.96 956.063 489.58 956.603 489.08C957.143 488.58 957.423 487.74 957.423 486.56H955.223C955.223 486.86 955.083 487.08 954.823 487.24C954.623 487.34 953.823 487.54 952.423 487.84C950.963 488.16 949.863 488.66 949.243 489.42C948.783 489.96 948.503 490.34 948.283 491.14C948.063 491.94 947.963 492.4 947.903 493.46L947.843 494.84V496.42ZM955.023 496.5C955.023 498.32 954.303 499.22 952.863 499.22C951.423 499.22 950.703 498.32 950.703 496.5C950.703 494.72 951.463 493.82 952.963 493.82C954.343 493.82 955.023 494.6 955.023 496.5ZM969.054 491.84H965.934L962.254 497.52V491.84H959.434V501H962.554L966.234 495.22V501H969.054V491.84ZM977.557 491.84V495.22H973.777V491.84H970.957V501H973.777V497.42H977.557V501H980.377V491.84H977.557ZM985.903 499.48C985.143 499.48 984.763 499.1 984.763 498.36C984.763 497.46 985.503 496.9 988.043 496.9C987.983 498.72 987.103 499.48 985.903 499.48ZM991.863 499.04C991.623 499.26 991.423 499.36 991.263 499.36C990.963 499.36 990.823 499.14 990.823 498.7C990.823 498.22 990.843 497.48 990.883 496.5C990.923 495.5 990.943 494.84 990.943 494.5C990.943 492.6 989.463 491.56 986.583 491.56C985.043 491.56 983.823 491.82 982.963 492.76C982.543 493.22 982.323 493.8 982.323 494.5L984.863 494.86C984.923 493.92 985.583 493.44 986.563 493.44C987.743 493.44 988.083 493.74 988.103 494.64C988.103 494.8 988.083 495.06 988.063 495.4C984.003 495.46 981.983 496.56 981.983 498.74C981.983 500.32 983.083 501.28 984.763 501.28C986.583 501.28 987.583 500.88 988.463 499.74C988.563 500.76 989.203 501.28 990.423 501.28C991.163 501.28 991.883 500.94 992.563 500.26L991.863 499.04Z" fill="#ECE1CF"/>
<ellipse rx="139.735" ry="96.0169" transform="matrix(-0.965926 -0.258819 -0.258819 0.965926 912.781 242.969)" fill="#F8F8F8"/>
<ellipse rx="31.6175" ry="96.0169" transform="matrix(-0.965926 -0.258819 -0.258819 0.965926 912.785 242.969)" fill="#101010"/>
</svg>
