<svg width="783" height="491" viewBox="0 0 783 491" fill="none" xmlns="http://www.w3.org/2000/svg">
<g clip-path="url(#clip0_799_2865)">
<line x1="33.125" y1="-157.23" x2="33.125" y2="669.892" stroke="#ECE1CF"/>
<line x1="83.1484" y1="-157.23" x2="83.1484" y2="669.892" stroke="#ECE1CF"/>
<line x1="94.0234" y1="-157.23" x2="94.0234" y2="669.892" stroke="#ECE1CF"/>
<line x1="143.508" y1="-162.668" x2="143.508" y2="664.455" stroke="#ECE1CF"/>
<line x1="154.383" y1="-162.668" x2="154.383" y2="664.455" stroke="#ECE1CF"/>
<line x1="204.406" y1="-162.668" x2="204.406" y2="664.455" stroke="#ECE1CF"/>
<line x1="215.281" y1="-162.668" x2="215.281" y2="664.455" stroke="#ECE1CF"/>
<line x1="265.305" y1="-168.105" x2="265.305" y2="659.017" stroke="#ECE1CF"/>
<line x1="276.18" y1="-168.105" x2="276.18" y2="659.017" stroke="#ECE1CF"/>
<line x1="325.664" y1="-168.105" x2="325.664" y2="659.017" stroke="#ECE1CF"/>
<line x1="336.539" y1="-168.105" x2="336.539" y2="659.017" stroke="#ECE1CF"/>
<line x1="386.562" y1="-168.105" x2="386.562" y2="659.017" stroke="#ECE1CF"/>
<line x1="397.438" y1="-168.105" x2="397.438" y2="659.017" stroke="#ECE1CF"/>
<line x1="447.461" y1="-168.105" x2="447.461" y2="659.017" stroke="#ECE1CF"/>
<line x1="458.336" y1="-168.105" x2="458.336" y2="659.017" stroke="#ECE1CF"/>
<line x1="507.82" y1="-168.105" x2="507.82" y2="659.017" stroke="#ECE1CF"/>
<line x1="518.695" y1="-173.543" x2="518.695" y2="653.58" stroke="#ECE1CF"/>
<line x1="568.719" y1="-173.543" x2="568.719" y2="653.58" stroke="#ECE1CF"/>
<line x1="579.594" y1="-173.543" x2="579.594" y2="653.58" stroke="#ECE1CF"/>
<line x1="629.617" y1="-173.543" x2="629.617" y2="653.58" stroke="#ECE1CF"/>
<line x1="640.492" y1="-173.543" x2="640.492" y2="653.58" stroke="#ECE1CF"/>
<line x1="689.977" y1="-173.543" x2="689.977" y2="653.58" stroke="#ECE1CF"/>
<line x1="700.852" y1="-173.543" x2="700.852" y2="653.58" stroke="#ECE1CF"/>
<line x1="750.875" y1="-173.543" x2="750.875" y2="653.58" stroke="#ECE1CF"/>
<line x1="-22.293" y1="250.626" x2="804.83" y2="250.626" stroke="#ECE1CF"/>
<line x1="-22.293" y1="312.069" x2="804.83" y2="312.069" stroke="#ECE1CF"/>
<line x1="-22.293" y1="322.944" x2="804.83" y2="322.944" stroke="#ECE1CF"/>
<line x1="-11.9609" y1="384.932" x2="815.162" y2="384.932" stroke="#ECE1CF"/>
<line x1="-11.9609" y1="395.807" x2="815.162" y2="395.807" stroke="#ECE1CF"/>
<line y1="457.251" x2="827.123" y2="457.251" stroke="#ECE1CF"/>
<line x1="-141.375" y1="33.126" x2="889.031" y2="33.126" stroke="#ECE1CF"/>
<line x1="-141.375" y1="94.5693" x2="889.031" y2="94.5693" stroke="#ECE1CF"/>
<line x1="-141.375" y1="105.444" x2="889.031" y2="105.444" stroke="#ECE1CF"/>
<line x1="-132.133" y1="167.432" x2="898.273" y2="167.432" stroke="#ECE1CF"/>
<line x1="-132.133" y1="178.307" x2="898.273" y2="178.307" stroke="#ECE1CF"/>
<line x1="-132.133" y1="239.751" x2="898.273" y2="239.751" stroke="#ECE1CF"/>
</g>
<line x1="146.646" y1="489.646" x2="635.646" y2="0.646985" stroke="#ECE1CF"/>
<line x1="147.354" y1="0.646447" x2="636.353" y2="489.646" stroke="#ECE1CF"/>
<line x1="4.37114e-08" y1="245.5" x2="783" y2="245.5" stroke="#ECE1CF"/>
<line x1="392.5" y1="1" x2="392.5" y2="490" stroke="#ECE1CF"/>
<defs>
<clipPath id="clip0_799_2865">
<rect width="783" height="489.375" fill="white" transform="translate(0 1)"/>
</clipPath>
</defs>
</svg>
