<svg width="350" height="345" viewBox="0 0 350 345" fill="none" xmlns="http://www.w3.org/2000/svg">
<line x1="-8.82031" y1="80.2451" x2="359.196" y2="80.2451" stroke="black" stroke-width="0.587886"/>
<line x1="-8.82031" y1="11.4639" x2="359.196" y2="11.4639" stroke="black" stroke-width="0.587886"/>
<line x1="-8.82031" y1="92.0029" x2="359.196" y2="92.0029" stroke="black" stroke-width="0.587886"/>
<line x1="-8.82031" y1="160.788" x2="359.196" y2="160.788" stroke="black" stroke-width="0.587886"/>
<line x1="-8.82031" y1="172.546" x2="359.196" y2="172.546" stroke="black" stroke-width="0.587886"/>
<line x1="-8.82031" y1="241.327" x2="359.196" y2="241.327" stroke="black" stroke-width="0.587886"/>
<line x1="-8.82031" y1="253.085" x2="359.196" y2="253.085" stroke="black" stroke-width="0.587886"/>
<line x1="-8.82031" y1="321.866" x2="359.196" y2="321.866" stroke="black" stroke-width="0.587886"/>
<line x1="-8.82031" y1="333.624" x2="359.196" y2="333.624" stroke="black" stroke-width="0.587886"/>
<line x1="11.7061" y1="345" x2="11.7061" y2="-19" stroke="black" stroke-width="0.587886"/>
<line x1="55.7061" y1="345" x2="55.706" y2="-19" stroke="black" stroke-width="0.587886"/>
<line x1="67.7061" y1="345" x2="67.706" y2="-19" stroke="black" stroke-width="0.587886"/>
<line x1="112.706" y1="345" x2="112.706" y2="-21" stroke="black" stroke-width="0.587886"/>
<line x1="124.706" y1="345" x2="124.706" y2="-21" stroke="black" stroke-width="0.587886"/>
<line x1="168.706" y1="345" x2="168.706" y2="-21" stroke="black" stroke-width="0.587886"/>
<line x1="180.706" y1="345" x2="180.706" y2="-21" stroke="black" stroke-width="0.587886"/>
<line x1="224.706" y1="345" x2="224.706" y2="-26" stroke="black" stroke-width="0.587886"/>
<line x1="236.706" y1="345" x2="236.706" y2="-26" stroke="black" stroke-width="0.587886"/>
<line x1="292.706" y1="345" x2="292.706" y2="-26" stroke="black" stroke-width="0.587886"/>
<line x1="281.706" y1="345" x2="281.706" y2="-26" stroke="black" stroke-width="0.587886"/>
<line x1="337.706" y1="345" x2="337.706" y2="-26" stroke="black" stroke-width="0.587886"/>
<line x1="236.706" y1="341" x2="236.706" y2="-26" stroke="black" stroke-width="0.587886"/>
<ellipse rx="47.8438" ry="32.8752" transform="matrix(-1 0 0 1 239.156 172.875)" fill="white"/>
<ellipse rx="10.8255" ry="32.8752" transform="matrix(-1 0 0 1 239.159 172.875)" fill="#101010"/>
<ellipse rx="47.8438" ry="32.8752" transform="matrix(-1 0 0 1 121.844 172.875)" fill="white"/>
<ellipse rx="10.8255" ry="32.8752" transform="matrix(-1 0 0 1 121.842 172.875)" fill="#101010"/>
</svg>
