<svg width="783" height="109" viewBox="0 0 783 109" fill="none" xmlns="http://www.w3.org/2000/svg">
<rect y="0.617188" width="381.125" height="108.157" fill="black"/>
<path d="M72.3734 31.5187L58.7316 54.7331L72.3734 77.9476H60.1676L50.1158 60.8222H37.6946V77.9476H26.7812V31.5187H37.6946V48.6441H50.1158L60.1676 31.5187H72.3734Z" fill="#D84E00"/>
<path d="M167.963 31.5187H179.091V77.9476H167.963V60.7461H144.413V77.9476H133.427V31.5187H144.413V48.6441H167.963V31.5187Z" fill="#D84E00"/>
<path d="M131.157 54.6788C131.157 67.1741 117.006 77.3036 99.5494 77.3036C82.0928 77.3036 67.9414 67.1741 67.9414 54.6788C67.9414 42.1835 82.0928 32.054 99.5494 32.054C117.006 32.054 131.157 42.1835 131.157 54.6788Z" fill="#D84E00"/>
<path d="M106.734 54.6788C106.734 67.1741 103.518 77.3036 99.5508 77.3036C95.5834 77.3036 92.3672 67.1741 92.3672 54.6788C92.3672 42.1835 95.5834 32.054 99.5508 32.054C103.518 32.054 106.734 42.1835 106.734 54.6788Z" fill="black"/>
<path d="M248.655 32.054L235.013 55.2685L248.655 78.4829H236.449L226.397 61.3575H213.976V78.4829H203.062V32.054H213.976V49.1794H226.397L236.449 32.054H248.655Z" fill="#D84E00"/>
<path d="M344.244 32.054H355.373V78.4829H344.244V61.2814H320.694V78.4829H309.709V32.054H320.694V49.1794H344.244V32.054Z" fill="#D84E00"/>
<path d="M306.904 54.6788C306.904 67.1741 292.752 77.3036 275.296 77.3036C257.839 77.3036 243.688 67.1741 243.688 54.6788C243.688 42.1835 257.839 32.054 275.296 32.054C292.752 32.054 306.904 42.1835 306.904 54.6788Z" fill="#D84E00"/>
<path d="M282.481 54.6788C282.481 67.1741 279.264 77.3036 275.297 77.3036C271.33 77.3036 268.113 67.1741 268.113 54.6788C268.113 42.1835 271.33 32.054 275.297 32.054C279.264 32.054 282.481 42.1835 282.481 54.6788Z" fill="black"/>
<path d="M181.926 49.6237H200.791V60.7922H181.926V49.6237Z" fill="#D84E00"/>
<rect x="401.5" y="1.11719" width="380.125" height="107.157" stroke="black"/>
<path d="M473.373 31.5187L459.732 54.7331L473.373 77.9476H461.168L451.116 60.8222H438.695V77.9476H427.781V31.5187H438.695V48.6441H451.116L461.168 31.5187H473.373Z" fill="#D84E00"/>
<path d="M568.963 31.5187H580.091V77.9476H568.963V60.7461H545.413V77.9476H534.427V31.5187H545.413V48.6441H568.963V31.5187Z" fill="#D84E00"/>
<path d="M532.157 54.6788C532.157 67.1741 518.006 77.3036 500.549 77.3036C483.093 77.3036 468.941 67.1741 468.941 54.6788C468.941 42.1835 483.093 32.054 500.549 32.054C518.006 32.054 532.157 42.1835 532.157 54.6788Z" fill="#D84E00"/>
<path d="M507.734 54.6788C507.734 67.1741 504.518 77.3036 500.551 77.3036C496.583 77.3036 493.367 67.1741 493.367 54.6788C493.367 42.1835 496.583 32.054 500.551 32.054C504.518 32.054 507.734 42.1835 507.734 54.6788Z" fill="#ECE1CF"/>
<path d="M649.655 32.054L636.013 55.2685L649.655 78.4829H637.449L627.397 61.3575H614.976V78.4829H604.062V32.054H614.976V49.1794H627.397L637.449 32.054H649.655Z" fill="#D84E00"/>
<path d="M745.244 32.054H756.373V78.4829H745.244V61.2814H721.694V78.4829H710.709V32.054H721.694V49.1794H745.244V32.054Z" fill="#D84E00"/>
<path d="M707.904 54.6788C707.904 67.1741 693.752 77.3036 676.296 77.3036C658.839 77.3036 644.688 67.1741 644.688 54.6788C644.688 42.1835 658.839 32.054 676.296 32.054C693.752 32.054 707.904 42.1835 707.904 54.6788Z" fill="#D84E00"/>
<path d="M683.481 54.6788C683.481 67.1741 680.264 77.3036 676.297 77.3036C672.33 77.3036 669.113 67.1741 669.113 54.6788C669.113 42.1835 672.33 32.054 676.297 32.054C680.264 32.054 683.481 42.1835 683.481 54.6788Z" fill="#ECE1CF"/>
<path d="M582.926 49.6237H601.791V60.7922H582.926V49.6237Z" fill="#D84E00"/>
</svg>
