<svg width="500" height="400" viewBox="0 0 500 400" fill="none" xmlns="http://www.w3.org/2000/svg">
<rect x="0.5" y="100.5" width="99" height="99" fill="#ECE1CF" stroke="#ECE1CF"/>
<rect x="200.5" y="200.5" width="99" height="99" stroke="#ECE1CF"/>
<path fill-rule="evenodd" clip-rule="evenodd" d="M250 220C259.754 233.72 266.317 240.293 280 250C266.28 259.754 259.707 266.317 250 280C240.246 266.28 233.683 259.707 220 250C233.72 240.246 240.293 233.683 250 220Z" fill="#ECE1CF"/>
<path fill-rule="evenodd" clip-rule="evenodd" d="M350 220C354.877 233.72 358.159 240.293 365 250C358.14 259.754 354.853 266.317 350 280C345.123 266.28 341.841 259.707 335 250C341.86 240.246 345.147 233.683 350 220Z" fill="#ECE1CF"/>
<path d="M150 220L180 280H150H120L150 220Z" fill="#ECE1CF"/>
<circle r="30" transform="matrix(-1 0 0 1 50 150)" fill="#101010"/>
<ellipse cx="350" cy="150" rx="10" ry="30" fill="#ECE1CF"/>
<path d="M265 120C257.044 120 249.413 123.161 243.787 128.787C238.161 134.413 235 142.044 235 150C235 157.956 238.161 165.587 243.787 171.213C249.413 176.839 257.044 180 265 180L265 120Z" fill="#ECE1CF"/>
<rect x="0.5" y="0.5" width="99" height="99" stroke="#ECE1CF"/>
<rect x="0.5" y="200.5" width="99" height="99" stroke="#ECE1CF"/>
<rect x="100.5" y="0.5" width="99" height="99" stroke="#ECE1CF"/>
<rect x="100.5" y="300.5" width="99" height="99" stroke="#ECE1CF"/>
<rect x="400.5" y="300.5" width="99" height="99" stroke="#ECE1CF"/>
<rect x="0.5" y="300.5" width="99" height="99" stroke="#ECE1CF"/>
<rect x="100.5" y="100.5" width="99" height="99" stroke="#ECE1CF"/>
<rect x="100.5" y="200.5" width="99" height="99" stroke="#ECE1CF"/>
<rect x="200.5" y="0.5" width="99" height="99" stroke="#ECE1CF"/>
<rect x="200.5" y="100.5" width="99" height="99" stroke="#ECE1CF"/>
<rect x="300.5" y="0.5" width="99" height="99" stroke="#ECE1CF"/>
<rect x="400.5" y="0.5" width="99" height="99" stroke="#ECE1CF"/>
<rect x="300.5" y="100.5" width="99" height="99" stroke="#ECE1CF"/>
<rect x="300.5" y="200.5" width="99" height="99" stroke="#ECE1CF"/>
<rect x="400.5" y="100.5" width="99" height="199" stroke="#ECE1CF"/>
<rect x="200.5" y="300.5" width="199" height="99" stroke="#ECE1CF"/>
<path fill-rule="evenodd" clip-rule="evenodd" d="M300.434 370L369.564 355L300.434 340L229.999 355L300.434 370Z" fill="#ECE1CF"/>
<path d="M450 269L433 190.92L433 130L467 130L467 190.92L450 269Z" fill="#ECE1CF"/>
<rect x="340" y="20" width="20" height="60" fill="#ECE1CF"/>
<rect x="220" y="20" width="60" height="60" fill="#ECE1CF"/>
<ellipse rx="20" ry="30" transform="matrix(-1 0 0 1 150 150)" fill="#ECE1CF"/>
</svg>
