<svg width="796" height="762" viewBox="0 0 796 762" fill="none" xmlns="http://www.w3.org/2000/svg">
<rect x="1.37109" y="0.499512" width="794" height="126" stroke="#ECE1CF"/>
<rect x="1.37109" y="127.5" width="794" height="126" stroke="#ECE1CF"/>
<rect x="1.37109" y="254.5" width="794" height="126" stroke="#ECE1CF"/>
<rect x="1.37109" y="381.5" width="794" height="126" stroke="#ECE1CF"/>
<rect x="1.37109" y="508.5" width="794" height="126" stroke="#ECE1CF"/>
<rect x="1.37109" y="635.5" width="794" height="126" stroke="#ECE1CF"/>
<ellipse cx="150.076" cy="63.8647" rx="15.8622" ry="47.5867" transform="rotate(-45 150.076 63.8647)" fill="#ECE1CF"/>
<ellipse cx="345.184" cy="63.8647" rx="15.8622" ry="47.5867" transform="rotate(-45 345.184 63.8647)" fill="#ECE1CF"/>
<ellipse cx="540.289" cy="63.8647" rx="15.8622" ry="47.5867" transform="rotate(-45 540.289 63.8647)" fill="#ECE1CF"/>
<ellipse cx="735.393" cy="63.8647" rx="15.8622" ry="47.5867" transform="rotate(-45 735.393 63.8647)" fill="#ECE1CF"/>
<ellipse cx="60.3448" cy="64.3451" rx="15.8622" ry="47.5867" transform="rotate(45 60.3448 64.3451)" fill="#ECE1CF"/>
<ellipse cx="255.456" cy="64.3451" rx="15.8622" ry="47.5867" transform="rotate(45 255.456 64.3451)" fill="#ECE1CF"/>
<ellipse cx="450.56" cy="64.3451" rx="15.8622" ry="47.5867" transform="rotate(45 450.56 64.3451)" fill="#ECE1CF"/>
<ellipse cx="645.665" cy="64.3451" rx="15.8622" ry="47.5867" transform="rotate(45 645.665 64.3451)" fill="#ECE1CF"/>
<path d="M423.453 190.702L500.998 174L500.998 190.702L500.998 207.404L423.453 190.702Z" fill="#ECE1CF"/>
<path d="M628.656 190.702L706.201 174L706.201 190.702L706.201 207.404L628.656 190.702Z" fill="#ECE1CF"/>
<path d="M217.066 190.702L295.804 174L295.804 190.702L295.804 207.404L217.066 190.702Z" fill="#ECE1CF"/>
<path d="M11.8711 190.702L90.6091 174L90.6091 190.702L90.6091 207.404L11.8711 190.702Z" fill="#ECE1CF"/>
<path d="M578.549 190.702L501.004 207.404L501.004 190.702L501.004 174L578.549 190.702Z" fill="#ECE1CF"/>
<path d="M783.744 190.702L706.199 207.404L706.199 190.702L706.199 174L783.744 190.702Z" fill="#ECE1CF"/>
<path d="M372.154 190.702L295.802 207.404L295.802 190.702L295.802 174L372.154 190.702Z" fill="#ECE1CF"/>
<path d="M166.959 190.702L90.6069 207.404L90.6069 190.702L90.6069 174L166.959 190.702Z" fill="#ECE1CF"/>
<circle cx="603.603" cy="190.702" r="10.737" transform="rotate(90 603.603 190.702)" fill="#ECE1CF"/>
<circle cx="397.214" cy="190.702" r="10.737" transform="rotate(90 397.214 190.702)" fill="#ECE1CF"/>
<circle cx="192.019" cy="190.702" r="10.737" transform="rotate(90 192.019 190.702)" fill="#ECE1CF"/>
<path d="M716.617 272L761.815 364.908H716.617H671.418L716.617 272Z" fill="#ECE1CF"/>
<path d="M625.594 272L671.421 364.908H625.594H579.768L625.594 272Z" fill="#ECE1CF"/>
<path d="M534.568 272L579.767 364.908H534.568H489.369L534.568 272Z" fill="#ECE1CF"/>
<path d="M444.171 272L489.37 364.908H444.171H398.973L444.171 272Z" fill="#ECE1CF"/>
<path d="M353.145 272L398.971 364.908H353.145H307.318L353.145 272Z" fill="#ECE1CF"/>
<path d="M262.119 272L307.317 364.908H262.119H216.92L262.119 272Z" fill="#ECE1CF"/>
<path d="M171.096 272L216.923 364.908H171.096H125.27L171.096 272Z" fill="#ECE1CF"/>
<path d="M80.0698 272L125.269 364.908H80.0699H34.8711L80.0698 272Z" fill="#ECE1CF"/>
<path d="M706.725 444.49C705.429 446.318 701.973 450.537 695.782 452.928C691.175 454.757 687.143 454.757 684.839 454.475C685.127 455.601 686.135 459.398 684.263 463.476C681.24 469.805 673.897 470.93 673.321 470.93C674.041 472.478 676.056 478.103 673.897 484.713C671.161 493.011 663.674 496.387 662.522 496.949C660.218 486.12 655.179 480.775 652.155 478.384C649.132 475.853 645.82 474.446 639.053 471.493C625.951 465.727 623.935 466.993 620.047 463.476C614.288 458.413 611.696 449.412 613.568 441.677C616.304 430.285 627.966 425.081 632.574 423.112C638.477 420.44 640.205 421.425 644.524 419.456C650.284 416.643 656.907 410.314 660.794 394C662.81 395.406 668.281 399.485 671.017 406.939C673.033 412.424 672.601 417.065 672.169 419.596C672.745 419.456 677.64 418.893 680.808 422.268C683.975 425.503 684.119 431.27 680.808 435.489C683.831 435.348 689.015 435.489 694.918 437.598C700.821 439.708 704.565 442.662 706.725 444.49Z" fill="#ECE1CF"/>
<path d="M357.424 444.49C356.128 446.318 352.672 450.537 346.481 452.928C341.874 454.757 337.842 454.757 335.539 454.475C335.826 455.601 336.834 459.398 334.963 463.476C331.939 469.805 324.596 470.93 324.02 470.93C324.74 472.478 326.756 478.103 324.596 484.713C321.86 493.011 314.373 496.387 313.221 496.949C310.918 486.12 305.878 480.775 302.855 478.384C299.831 475.853 296.519 474.446 289.752 471.493C276.65 465.727 274.634 466.993 270.747 463.476C264.987 458.413 262.396 449.412 264.267 441.677C267.003 430.285 278.665 425.081 283.273 423.112C289.176 420.44 290.904 421.425 295.223 419.456C300.983 416.643 307.606 410.314 311.493 394C313.509 395.406 318.981 399.485 321.716 406.939C323.732 412.424 323.3 417.065 322.868 419.596C323.444 419.456 328.339 418.893 331.507 422.268C334.675 425.503 334.819 431.27 331.507 435.489C334.531 435.348 339.714 435.489 345.617 437.598C351.521 439.708 355.264 442.662 357.424 444.49Z" fill="#ECE1CF"/>
<path d="M89.0195 446.459C90.3154 444.631 93.771 440.412 99.9622 438.021C104.57 436.193 108.601 436.193 110.905 436.474C110.617 435.349 109.609 431.551 111.481 427.473C114.504 421.144 121.848 420.019 122.423 420.019C121.704 418.472 119.688 412.846 121.848 406.236C124.583 397.938 132.07 394.563 133.222 394C135.526 404.829 140.565 410.174 143.589 412.565C146.612 415.096 149.924 416.503 156.691 419.456C169.794 425.223 171.809 423.957 175.697 427.473C181.456 432.536 184.048 441.537 182.176 449.272C179.44 460.664 167.778 465.868 163.17 467.837C157.267 470.509 155.539 469.525 151.22 471.494C145.461 474.306 138.837 480.635 134.95 496.95C132.934 495.543 127.463 491.465 124.727 484.011C122.711 478.526 123.143 473.884 123.575 471.353C122.999 471.494 118.104 472.056 114.936 468.681C111.769 465.446 111.625 459.68 114.936 455.46C111.913 455.601 106.729 455.46 100.826 453.351C94.9228 451.241 91.1793 448.288 89.0195 446.459Z" fill="#ECE1CF"/>
<path d="M438.318 446.459C439.614 444.631 443.07 440.412 449.261 438.021C453.868 436.193 457.9 436.193 460.204 436.474C459.916 435.349 458.908 431.551 460.78 427.473C463.803 421.144 471.146 420.019 471.722 420.019C471.002 418.472 468.987 412.846 471.146 406.236C473.882 397.938 481.369 394.563 482.521 394C484.825 404.829 489.864 410.174 492.888 412.565C495.911 415.096 499.223 416.503 505.99 419.456C519.092 425.223 521.108 423.957 524.996 427.473C530.755 432.536 533.347 441.537 531.475 449.272C528.739 460.664 517.077 465.868 512.469 467.837C506.566 470.509 504.838 469.525 500.519 471.494C494.759 474.306 488.136 480.635 484.249 496.95C482.233 495.543 476.762 491.465 474.026 484.011C472.01 478.526 472.442 473.884 472.874 471.353C472.298 471.494 467.403 472.056 464.235 468.681C461.068 465.446 460.924 459.68 464.235 455.46C461.212 455.601 456.028 455.46 450.125 453.351C444.222 451.241 440.478 448.288 438.318 446.459Z" fill="#ECE1CF"/>
<circle cx="572.512" cy="445.476" r="14.7071" transform="rotate(90 572.512 445.476)" fill="#ECE1CF"/>
<circle cx="397.873" cy="445.476" r="14.7071" transform="rotate(90 397.873 445.476)" fill="#ECE1CF"/>
<circle cx="223.225" cy="445.476" r="14.7071" transform="rotate(90 223.225 445.476)" fill="#ECE1CF"/>
<circle cx="48.5781" cy="445.476" r="14.7071" transform="rotate(90 48.5781 445.476)" fill="#ECE1CF"/>
<circle cx="747.164" cy="445.476" r="14.7071" transform="rotate(90 747.164 445.476)" fill="#ECE1CF"/>
<path d="M126.995 598.938C126.995 584.632 121.194 570.913 110.868 560.798C100.541 550.682 86.5363 545 71.933 545C57.3296 545 43.3244 550.682 32.9983 560.798C22.6722 570.913 16.8711 584.632 16.8711 598.938L126.995 598.938Z" fill="#ECE1CF"/>
<path d="M256.222 598.938C256.222 584.632 250.539 570.913 240.424 560.798C230.309 550.682 216.589 545 202.284 545C187.979 545 174.259 550.682 164.144 560.798C154.028 570.913 148.346 584.632 148.346 598.938L256.222 598.938Z" fill="#ECE1CF"/>
<path d="M387.695 598.938C387.695 584.632 381.953 570.913 371.733 560.798C361.512 550.682 347.65 545 333.195 545C318.741 545 304.879 550.682 294.658 560.798C284.437 570.913 278.695 584.632 278.695 598.938L387.695 598.938Z" fill="#ECE1CF"/>
<path d="M518.047 598.938C518.047 584.632 512.305 570.913 502.084 560.798C491.863 550.682 478.001 545 463.547 545C449.093 545 435.23 550.682 425.01 560.798C414.789 570.913 409.047 584.632 409.047 598.938L518.047 598.938Z" fill="#ECE1CF"/>
<path d="M650.645 598.938C650.645 584.632 644.844 570.913 634.518 560.798C624.192 550.682 610.187 545 595.583 545C580.98 545 566.975 550.682 556.649 560.798C546.323 570.913 540.521 584.632 540.521 598.938L650.645 598.938Z" fill="#ECE1CF"/>
<path d="M779.87 598.938C779.87 584.632 774.188 570.913 764.072 560.798C753.957 550.682 740.238 545 725.932 545C711.627 545 697.908 550.682 687.792 560.798C677.677 570.913 671.994 584.632 671.994 598.938L779.87 598.938Z" fill="#ECE1CF"/>
<path d="M50.4455 647.347L89.0444 697.873L50.4945 748.4L11.8956 697.873L50.4455 647.347Z" fill="#ECE1CF"/>
<path d="M127.719 647.46L166.318 697.987L127.768 748.513L89.169 697.987L127.719 647.46Z" fill="#ECE1CF"/>
<path d="M204.988 647.574L243.587 698.1L205.037 748.626L166.439 698.1L204.988 647.574Z" fill="#ECE1CF"/>
<path d="M282.262 647.688L320.861 698.214L282.311 748.74L243.712 698.214L282.262 647.688Z" fill="#ECE1CF"/>
<path d="M359.533 647.802L398.132 698.328L359.582 748.854L320.983 698.328L359.533 647.802Z" fill="#ECE1CF"/>
<path d="M436.807 647.917L475.406 698.443L436.856 748.969L398.257 698.443L436.807 647.917Z" fill="#ECE1CF"/>
<path d="M514.076 648.029L552.675 698.556L514.125 749.082L475.526 698.556L514.076 648.029Z" fill="#ECE1CF"/>
<path d="M591.352 648.143L629.951 698.669L591.401 749.196L552.802 698.669L591.352 648.143Z" fill="#ECE1CF"/>
<path d="M668.623 648.258L707.222 698.784L668.672 749.31L630.073 698.784L668.623 648.258Z" fill="#ECE1CF"/>
<path d="M745.895 648.372L784.494 698.898L745.944 749.424L707.345 698.898L745.895 648.372Z" fill="#ECE1CF"/>
</svg>
