<svg width="316" height="45" viewBox="0 0 316 45" fill="none" xmlns="http://www.w3.org/2000/svg">
<path d="M43.7775 0L30.6787 22.2905L43.7775 44.581H32.0576L22.4058 28.1372H10.479V44.581H0V0H10.479V16.4438H22.4058L32.0576 0H43.7775Z" fill="#101010"/>
<path d="M135.562 0H146.248V44.581H135.562V28.0641H112.95V44.581H102.402V0H112.95V16.4438H135.562V0Z" fill="#101010"/>
<path d="M100.501 22.2905C100.501 34.6012 86.5585 44.581 69.3598 44.581C52.1611 44.581 38.2188 34.6012 38.2188 22.2905C38.2188 9.9798 52.1611 0 69.3598 0C86.5585 0 100.501 9.9798 100.501 22.2905Z" fill="white"/>
<path d="M76.4363 22.2905C76.4363 34.6012 73.2675 44.581 69.3588 44.581C65.45 44.581 62.2812 34.6012 62.2812 22.2905C62.2812 9.9798 65.45 0 69.3588 0C73.2675 0 76.4363 9.9798 76.4363 22.2905Z" fill="#101010"/>
<path d="M212.531 0L199.433 22.2905L212.531 44.581H200.811L191.16 28.1372H179.233V44.581H168.754V0H179.233V16.4438H191.16L200.811 0H212.531Z" fill="#101010"/>
<path d="M304.316 0H315.002V44.581H304.316V28.0641H281.703V44.581H271.155V0H281.703V16.4438H304.316V0Z" fill="#101010"/>
<path d="M269.251 22.2905C269.251 34.6012 255.308 44.581 238.11 44.581C220.911 44.581 206.969 34.6012 206.969 22.2905C206.969 9.9798 220.911 0 238.11 0C255.308 0 269.251 9.9798 269.251 22.2905Z" fill="white"/>
<path d="M245.19 22.2905C245.19 34.6012 242.021 44.581 238.113 44.581C234.204 44.581 231.035 34.6012 231.035 22.2905C231.035 9.9798 234.204 0 238.113 0C242.021 0 245.19 9.9798 245.19 22.2905Z" fill="#101010"/>
<path d="M148.457 16.8711H166.572V27.5951H148.457V16.8711Z" fill="#101010"/>
</svg>
