<svg width="170" height="23" viewBox="0 0 170 23" fill="none" xmlns="http://www.w3.org/2000/svg">
<path d="M23.0701 0L16.1672 11.1892L23.0701 22.3784H16.8938L11.8075 14.1241H5.52228V22.3784H0V0H5.52228V8.25432H11.8075L16.8938 0H23.0701Z" fill="#ECE1CF"/>
<path d="M71.4392 0H77.0704V22.3784H71.4392V14.0874H59.5226V22.3784H53.964V0H59.5226V8.25432H71.4392V0Z" fill="#ECE1CF"/>
<path d="M52.9623 11.1892C52.9623 17.3688 45.6149 22.3784 36.5515 22.3784C27.488 22.3784 20.1406 17.3688 20.1406 11.1892C20.1406 5.00957 27.488 0 36.5515 0C45.6149 0 52.9623 5.00957 52.9623 11.1892Z" fill="#ECE1CF"/>
<path d="M40.2798 11.1892C40.2798 17.3688 38.6099 22.3784 36.55 22.3784C34.4902 22.3784 32.8203 17.3688 32.8203 11.1892C32.8203 5.00957 34.4902 0 36.55 0C38.6099 0 40.2798 5.00957 40.2798 11.1892Z" fill="#101010"/>
<path d="M115.687 0L108.784 11.1892L115.687 22.3784H109.511L104.425 14.1241H98.1395V22.3784H92.6172V0H98.1395V8.25432H104.425L109.511 0H115.687Z" fill="#ECE1CF"/>
<path d="M164.056 0H169.688V22.3784H164.056V14.0874H152.14V22.3784H146.581V0H152.14V8.25432H164.056V0Z" fill="#ECE1CF"/>
<path d="M145.579 11.1892C145.579 17.3688 138.232 22.3784 129.169 22.3784C120.105 22.3784 112.758 17.3688 112.758 11.1892C112.758 5.00957 120.105 0 129.169 0C138.232 0 145.579 5.00957 145.579 11.1892Z" fill="#ECE1CF"/>
<path d="M132.897 11.1892C132.897 17.3688 131.227 22.3784 129.167 22.3784C127.107 22.3784 125.438 17.3688 125.438 11.1892C125.438 5.00957 127.107 0 129.167 0C131.227 0 132.897 5.00957 132.897 11.1892Z" fill="#101010"/>
<path d="M80.0703 8.46875H89.6164V13.8519H80.0703V8.46875Z" fill="#ECE1CF"/>
</svg>
