<svg width="353" height="762" viewBox="0 0 353 762" fill="none" xmlns="http://www.w3.org/2000/svg">
<g clip-path="url(#clip0_796_2766)">
<line x1="-20.7656" y1="17.6052" x2="373.777" y2="17.6052" stroke="#ECE1CF" stroke-width="0.902844"/>
<line x1="-20.7656" y1="123.238" x2="373.777" y2="123.238" stroke="#ECE1CF" stroke-width="0.902844"/>
<line x1="-20.7656" y1="141.295" x2="373.777" y2="141.295" stroke="#ECE1CF" stroke-width="0.902844"/>
<line x1="-20.7656" y1="247.831" x2="373.777" y2="247.831" stroke="#ECE1CF" stroke-width="0.902844"/>
<line x1="-20.7656" y1="265.887" x2="373.777" y2="265.887" stroke="#ECE1CF" stroke-width="0.902844"/>
<line x1="-20.7656" y1="371.52" x2="373.777" y2="371.52" stroke="#ECE1CF" stroke-width="0.902844"/>
<line x1="-20.7656" y1="389.577" x2="373.777" y2="389.577" stroke="#ECE1CF" stroke-width="0.902844"/>
<line x1="-20.7656" y1="513.266" x2="373.777" y2="513.266" stroke="#ECE1CF" stroke-width="0.902844"/>
<line x1="-20.7656" y1="495.21" x2="373.777" y2="495.21" stroke="#ECE1CF" stroke-width="0.902844"/>
<line x1="-20.7656" y1="637.859" x2="373.777" y2="637.859" stroke="#ECE1CF" stroke-width="0.902844"/>
<line x1="-20.7656" y1="743.492" x2="373.777" y2="743.492" stroke="#ECE1CF" stroke-width="0.902844"/>
<line x1="-20.7656" y1="619.802" x2="373.777" y2="619.802" stroke="#ECE1CF" stroke-width="0.902844"/>
<line x1="18.51" y1="-11.7373" x2="18.51" y2="774.639" stroke="#ECE1CF" stroke-width="0.902844"/>
<line x1="84.4163" y1="-12.6396" x2="84.4162" y2="773.737" stroke="#ECE1CF" stroke-width="0.902844"/>
<line x1="102.471" y1="-12.6396" x2="102.471" y2="773.737" stroke="#ECE1CF" stroke-width="0.902844"/>
<line x1="167.479" y1="-11.7373" x2="167.479" y2="774.639" stroke="#ECE1CF" stroke-width="0.902844"/>
<line x1="185.533" y1="-11.7373" x2="185.533" y2="774.639" stroke="#ECE1CF" stroke-width="0.902844"/>
<line x1="251.444" y1="-12.6396" x2="251.444" y2="773.737" stroke="#ECE1CF" stroke-width="0.902844"/>
<line x1="269.498" y1="-12.6396" x2="269.498" y2="773.737" stroke="#ECE1CF" stroke-width="0.902844"/>
<line x1="334.502" y1="-12.6396" x2="334.502" y2="773.737" stroke="#ECE1CF" stroke-width="0.902844"/>
</g>
<defs>
<clipPath id="clip0_796_2766">
<rect width="352.109" height="762" fill="white"/>
</clipPath>
</defs>
</svg>
