<svg width="354" height="762" viewBox="0 0 354 762" fill="none" xmlns="http://www.w3.org/2000/svg">
<g clip-path="url(#clip0_799_2870)">
<line x1="-19.7148" y1="17.6052" x2="374.828" y2="17.6052" stroke="#ECE1CF" stroke-width="0.902844"/>
<line x1="-19.7148" y1="123.238" x2="374.828" y2="123.238" stroke="#ECE1CF" stroke-width="0.902844"/>
<line x1="-19.7148" y1="141.295" x2="374.828" y2="141.295" stroke="#ECE1CF" stroke-width="0.902844"/>
<line x1="-19.7148" y1="247.831" x2="374.828" y2="247.831" stroke="#ECE1CF" stroke-width="0.902844"/>
<line x1="-19.7148" y1="265.887" x2="374.828" y2="265.887" stroke="#ECE1CF" stroke-width="0.902844"/>
<line x1="-19.7148" y1="371.52" x2="374.828" y2="371.52" stroke="#ECE1CF" stroke-width="0.902844"/>
<line x1="-19.7148" y1="389.577" x2="374.828" y2="389.577" stroke="#ECE1CF" stroke-width="0.902844"/>
<line x1="-19.7148" y1="513.266" x2="374.828" y2="513.266" stroke="#ECE1CF" stroke-width="0.902844"/>
<line x1="-19.7148" y1="495.21" x2="374.828" y2="495.21" stroke="#ECE1CF" stroke-width="0.902844"/>
<line x1="-19.7148" y1="637.859" x2="374.828" y2="637.859" stroke="#ECE1CF" stroke-width="0.902844"/>
<line x1="-19.7148" y1="743.492" x2="374.828" y2="743.492" stroke="#ECE1CF" stroke-width="0.902844"/>
<line x1="-19.7148" y1="619.802" x2="374.828" y2="619.802" stroke="#ECE1CF" stroke-width="0.902844"/>
<line x1="19.5608" y1="-11.7373" x2="19.5608" y2="774.639" stroke="#ECE1CF" stroke-width="0.902844"/>
<line x1="85.467" y1="-12.6396" x2="85.467" y2="773.737" stroke="#ECE1CF" stroke-width="0.902844"/>
<line x1="103.522" y1="-12.6396" x2="103.522" y2="773.737" stroke="#ECE1CF" stroke-width="0.902844"/>
<line x1="168.53" y1="-11.7373" x2="168.53" y2="774.639" stroke="#ECE1CF" stroke-width="0.902844"/>
<line x1="186.584" y1="-11.7373" x2="186.584" y2="774.639" stroke="#ECE1CF" stroke-width="0.902844"/>
<line x1="252.494" y1="-12.6396" x2="252.494" y2="773.737" stroke="#ECE1CF" stroke-width="0.902844"/>
<line x1="270.549" y1="-12.6396" x2="270.549" y2="773.737" stroke="#ECE1CF" stroke-width="0.902844"/>
<line x1="335.553" y1="-12.6396" x2="335.553" y2="773.737" stroke="#ECE1CF" stroke-width="0.902844"/>
</g>
<line y1="-0.5" x2="593.622" y2="-0.5" transform="matrix(0.59297 -0.805225 0.59297 0.805225 1.05078 620)" stroke="#ECE1CF"/>
<line y1="-0.5" x2="593.622" y2="-0.5" transform="matrix(0.59297 0.805225 -0.59297 0.805225 1.05078 142)" stroke="#ECE1CF"/>
<line x1="1.04794" y1="381.5" x2="353.048" y2="379.5" stroke="#ECE1CF"/>
<line x1="177.551" y1="762" x2="177.551" y2="-2.18557e-08" stroke="#ECE1CF"/>
<defs>
<clipPath id="clip0_799_2870">
<rect width="352.109" height="762" fill="white" transform="translate(1.05078)"/>
</clipPath>
</defs>
</svg>
