<svg width="500" height="400" viewBox="0 0 500 400" fill="none" xmlns="http://www.w3.org/2000/svg">
<rect x="0.5" y="100.5" width="99" height="99" stroke="#ECE1CF"/>
<rect x="200.5" y="200.5" width="99" height="99" stroke="#ECE1CF"/>
<rect x="0.5" y="0.5" width="99" height="99" stroke="#ECE1CF"/>
<rect x="0.5" y="200.5" width="99" height="99" stroke="#ECE1CF"/>
<rect x="100.5" y="0.5" width="99" height="99" stroke="#ECE1CF"/>
<rect x="100.5" y="300.5" width="99" height="99" stroke="#ECE1CF"/>
<rect x="400.5" y="300.5" width="99" height="99" stroke="#ECE1CF"/>
<rect x="0.5" y="300.5" width="99" height="99" stroke="#ECE1CF"/>
<rect x="100.5" y="100.5" width="99" height="99" stroke="#ECE1CF"/>
<rect x="100.5" y="200.5" width="99" height="99" stroke="#ECE1CF"/>
<rect x="200.5" y="0.5" width="99" height="99" stroke="#ECE1CF"/>
<rect x="200.5" y="100.5" width="99" height="99" stroke="#ECE1CF"/>
<rect x="300.5" y="0.5" width="99" height="99" stroke="#ECE1CF"/>
<rect x="400.5" y="0.5" width="99" height="99" stroke="#ECE1CF"/>
<rect x="300.5" y="100.5" width="99" height="99" stroke="#ECE1CF"/>
<rect x="300.5" y="200.5" width="99" height="99" stroke="#ECE1CF"/>
<rect x="400.5" y="200.5" width="99" height="99" stroke="#ECE1CF"/>
<rect x="400.5" y="100.5" width="99" height="99" stroke="#ECE1CF"/>
<rect x="200.5" y="300.5" width="99" height="99" stroke="#ECE1CF"/>
<rect x="300.5" y="300.5" width="99" height="99" stroke="#ECE1CF"/>
<path d="M350.788 23C349.542 26.808 347.17 32.3796 342.145 37.0694C337.924 41.0377 335.592 40.8773 330.285 45.527C325.622 49.6156 320.878 53.7843 320.114 60.2378C319.511 65.2482 321.24 72.1827 326.788 75.3894C330.969 77.7944 337.642 78.2754 340.899 74.6278C342.507 72.7839 343.512 69.6975 342.547 66.8917C342.306 66.1701 341.341 63.7651 339.13 62.9234C337.481 62.3221 335.833 62.763 333.18 63.5647C331.933 63.9255 330.888 64.3263 330.245 64.647C329.843 63.7651 329.2 61.8411 329.642 59.4762C330.486 55.0269 334.547 53.0628 335.109 52.8223C338.647 51.2189 341.944 52.2611 342.708 52.5417C342.708 51.4193 342.868 49.9763 343.431 48.4531C345.16 44.0039 349.14 42.1199 350.266 41.6389C351.11 41.9195 355.21 43.3625 357.1 47.5713C357.904 49.335 358.025 51.0586 358.025 52.1008C358.949 51.8202 361.804 51.1388 364.859 52.5818C365.261 52.7421 369.764 54.9066 370.327 59.5563C370.608 61.7609 369.844 63.5647 369.402 64.4065C368.799 63.8854 366.708 62.3622 363.814 62.4424C360.879 62.4824 357.623 64.206 356.658 66.8516C355.211 70.8599 359.351 76.0307 363.653 77.4337C369.683 79.4378 377.121 74.3472 379.292 68.495C382.669 59.3559 372.94 49.1747 371.734 47.892C366.025 41.9596 361.763 42.5208 356.738 36.3078C352.959 31.6581 351.472 26.5674 350.788 23Z" fill="#ECE1CF"/>
<path d="M448.232 22C449.339 22.7774 451.894 24.8504 453.342 28.5644C454.449 31.3284 454.449 33.7469 454.279 35.1289C454.96 34.9561 457.26 34.3515 459.73 35.4744C463.562 37.2882 464.244 41.6933 464.244 42.0388C465.181 41.6069 468.587 40.3977 472.59 41.6933C477.615 43.3344 479.659 47.8259 480 48.5169C473.442 49.8988 470.206 52.9219 468.758 54.7358C467.225 56.5496 466.373 58.5362 464.584 62.5958C461.093 70.4559 461.715 71.2141 459.73 73.9972C456.664 77.4522 451.213 79.0069 446.529 77.884C439.63 76.2429 436.479 69.2467 435.286 66.4827C433.668 62.9414 432.655 57.6216 431.249 54.7358C429.374 51.5285 429.374 50.5911 420 48.5169C420.852 47.3076 420.978 45.0619 425.492 43.4208C428.814 42.2116 431.624 42.4707 433.157 42.7298C433.072 42.3843 432.731 39.4476 434.775 37.5473C436.734 35.6471 440.226 35.5607 442.781 37.5473C442.696 35.7335 442.781 32.624 444.059 29.0827C445.336 25.5413 447.125 23.2956 448.232 22Z" fill="#ECE1CF"/>
<path fill-rule="evenodd" clip-rule="evenodd" d="M128.968 138.074C128.35 138.731 127.713 139.406 127.095 140.134L127.091 140.125L126.972 140.272C125.851 141.648 124.515 143.288 123.558 145.714C122.84 147.523 122.443 149.862 122.243 151.416C122.099 152.53 122.044 153.651 122.001 154.773L122.066 155.874L122.195 157.687C122.27 158.581 122.392 159.473 122.603 160.345C122.816 161.226 123.142 162.108 124.213 163.466C125.841 165.52 128.035 166.477 128.967 166.833L128.991 166.81C132.618 168.212 136.409 168.015 136.754 167.996C134.488 168.652 131.928 169.581 129.285 170.903C128.341 171.372 127.48 171.85 126.677 172.328C127.421 172.61 128.282 172.901 129.273 173.154C130.028 173.351 130.748 173.491 131.397 173.594C131.362 174.27 131.409 175.442 132.117 176.717C132.305 177.064 133.945 179.906 136.482 180C136.945 180.018 138.111 179.486 140.425 178.431L140.425 178.431L140.426 178.431L140.565 178.368C142.735 177.364 143.29 177.055 143.809 176.717C144.871 176.033 145.638 175.339 146.133 174.842C145.308 174.767 144.479 174.692 143.65 174.617C142.821 174.542 141.992 174.467 141.166 174.392C140.34 172.929 138.63 172.366 137.627 172.75C136.754 173.088 136.234 174.185 136.647 174.72C136.822 174.944 137.107 175.001 137.466 175.073C137.859 175.152 138.341 175.248 138.865 175.601C139.149 175.789 139.68 176.155 139.656 176.605C139.621 177.186 138.665 177.618 137.957 177.749C136.801 177.955 135.798 177.458 135.432 177.233C132.01 175.104 132.718 171.916 136.824 169.712C138.901 168.598 140.394 168.351 144.09 167.741C145.434 167.518 147.069 167.248 149.13 166.871C155.773 165.651 157.083 164.967 158.015 164.273C160.363 162.51 161.082 160.09 161.318 158.365C160.419 158.711 157.174 159.866 152.959 159.509C151.7 159.185 150.312 158.765 148.848 158.215C146.41 157.277 144.423 156.21 142.852 155.212C142.458 154.843 142.177 154.537 142.004 154.342C148.658 154.342 153.142 152.551 153.425 150.562C153.472 150.234 153.519 149.1 151.207 147.543C155.797 149.118 160.316 147.712 161.495 145.405C162.557 143.323 160.622 141.016 160.386 140.753C163.312 141.625 166.592 140.547 167.831 138.362C169.141 136.074 167.819 133.27 164.823 132.201C166.274 132.201 169.861 132.032 173.211 130.062C179.158 126.565 178.946 120.563 178.91 120C176.897 120.693 174.442 121.529 171.598 122.474C171.586 122.394 171.574 122.326 171.564 122.27C164.703 124.693 159.192 126.317 155.355 127.378C154.997 127.478 154.67 127.567 154.367 127.649L154.366 127.649L154.366 127.65L154.366 127.65C152.89 128.052 151.971 128.303 150.682 128.825C144.872 131.153 141.681 134.731 139.792 136.91C134.673 142.799 133.192 148.88 132.702 152.445C132.68 152.527 132.658 152.609 132.636 152.691C131.255 150.028 131.102 147.89 131.22 146.436C131.415 143.847 132.323 142.034 134.58 137.525L134.58 137.525C135.184 136.319 135.885 134.919 136.695 133.26C138.382 129.809 137.332 126.78 134.996 124.004C134.417 123.329 133.698 122.841 132.895 122.551C130.595 121.716 127.35 122.26 125.722 123.948C124.442 125.282 124.564 126.904 124.612 127.539L124.613 127.549C124.665 128.246 124.848 128.655 125.031 129.063C125.178 129.39 125.324 129.718 125.403 130.194L125.407 130.216L125.38 130.203C125.179 130.859 124.955 131.525 124.707 132.21C124.412 133.035 124.106 133.832 123.799 134.601L123.827 134.596L123.822 134.601L123.85 134.591C125.29 134.307 125.974 133.781 126.312 133.401C126.571 133.121 126.678 132.876 126.899 132.368C126.96 132.228 127.03 132.068 127.114 131.881C127.48 131.062 127.825 130.4 128.061 129.957C128.087 129.933 128.113 129.909 128.14 129.884C128.492 129.569 128.786 129.447 129.054 129.337C129.335 129.221 129.586 129.118 129.839 128.815C130.319 128.238 130.257 127.599 130.21 127.109C130.174 126.731 130.146 126.442 130.382 126.339C130.795 126.161 131.68 126.696 132.246 127.268C132.777 127.802 133.686 129.04 133.179 131.516C132.629 134.187 130.881 136.043 128.968 138.074Z" fill="#ECE1CF"/>
<path d="M233.631 144.863C233.631 146.22 233.6 147.577 233.631 148.934C233.662 151.229 235.163 152.974 237.851 153.976C239.352 154.525 242.01 153.717 243.104 152.392C243.729 151.617 243.854 148.482 243.198 147.771C242.947 147.513 242.447 147.319 242.135 147.383C241.884 147.448 241.572 147.933 241.509 148.288C241.259 149.775 240.102 151.035 238.758 151.132C237.351 151.229 235.663 149.904 235.319 148.45C234.694 145.735 236.601 143.247 239.352 143.086C243.041 142.859 246.418 145.929 247.512 148.999C248.356 151.39 246.918 153.135 245.48 154.848C244.354 156.205 242.697 156.011 241.29 156.593C240.853 156.787 240.446 157.11 240.04 157.369C240.415 157.756 240.728 158.273 241.165 158.467C242.854 159.243 244.542 160.374 246.511 159.178C246.73 159.049 247.262 159.21 247.449 159.437C247.637 159.663 247.637 160.148 247.543 160.438C247.199 161.537 246.699 162.603 246.386 163.702C246.105 164.672 247.731 168 248.669 168.323C249.075 168.452 249.794 168.485 250.044 168.226C252.045 166.352 253.233 164.155 252.108 160.955C251.92 160.438 252.045 159.824 252.045 159.275C252.514 159.372 252.983 159.404 253.421 159.566C255.64 160.309 257.704 159.857 259.736 158.855C259.955 158.758 260.174 158.306 260.111 158.112C260.017 157.821 259.673 157.498 259.392 157.433C257.266 156.884 255.734 155.656 254.234 153.976C251.764 151.132 252.358 148.773 254.359 145.994C256.172 143.473 258.736 142.698 261.737 143.15C263.581 143.441 264.144 144.798 264.676 146.22C265.176 147.513 264.488 148.644 263.644 149.548C262.612 150.679 261.237 150.841 259.924 150.227C259.392 149.969 258.986 149.193 258.736 148.579C258.423 147.836 258.736 146.479 257.548 146.802C256.954 146.963 256.328 148.224 256.328 149.031C256.266 151.164 257.422 152.748 259.017 153.2C261.487 153.911 263.738 153.232 265.051 151.649C266.551 149.839 266.989 147.868 266.489 145.606C266.458 145.445 266.489 145.283 266.52 145.121C266.551 145.024 266.614 144.96 266.833 144.637C268.115 146.349 269.553 147.836 270.491 149.645C271.866 152.295 273.961 153.911 276.462 155.171C277.556 155.72 278.557 155.3 279.307 154.557C280.12 153.782 279.369 153.038 278.775 152.78C275.462 151.229 273.336 148.514 271.366 145.509C270.741 144.572 270.053 143.667 269.49 142.342C270.835 142.73 272.241 143.053 273.554 143.538C274.93 144.023 276.212 144.734 277.556 145.283C278.588 145.703 279.401 145.186 279.963 144.346C280.089 144.12 279.87 143.344 279.651 143.247C277.369 142.181 275.055 141.211 272.742 140.21C272.179 139.983 271.585 139.822 271.022 139.596C270.678 139.466 270.366 139.208 270.053 139.014C270.366 138.723 270.616 138.335 270.96 138.141C272.523 137.398 274.211 136.849 275.712 136.009C276.587 135.524 277.306 134.684 277.931 133.876C278.181 133.553 278.275 132.777 278.088 132.486C277.869 132.196 277.15 132.066 276.743 132.196C275.743 132.551 274.805 133.165 273.805 133.585C273.336 133.779 272.773 133.811 271.96 133.973C272.273 133.359 272.554 133.068 272.523 132.874C272.398 132.228 272.116 131.614 271.897 131C271.429 131.226 270.803 131.291 270.522 131.646C268.677 133.876 266.676 135.879 263.8 137.043C263.863 136.59 263.894 136.235 263.957 135.912C263.957 135.879 264.05 135.847 264.05 135.783C264.644 134.652 264.613 133.294 263.488 132.907C262.862 132.713 261.612 133.682 261.018 134.425C260.393 135.201 260.236 136.332 259.83 137.301C258.892 139.499 256.766 140.371 255.046 141.696C254.359 142.213 253.608 142.633 252.889 143.118C252.139 141.114 252.795 139.628 254.577 138.626C255.078 138.335 255.422 137.721 255.859 137.237C255.328 136.784 254.734 135.847 254.327 135.912C252.389 136.3 252.108 134.748 251.389 133.65C250.92 132.907 250.232 132.325 249.638 131.679C249.013 132.519 248.356 133.359 247.793 134.264C247.574 134.587 247.731 135.169 247.512 135.492C247.262 135.847 246.637 136.397 246.418 136.3C244.823 135.589 244.229 136.784 243.166 138.045C246.043 138.885 247.856 140.403 247.418 143.764C243.792 141.825 240.259 140.21 238.727 136.073C238.477 135.395 237.977 134.748 237.445 134.296C237.039 133.973 236.382 134.005 235.851 133.876C235.726 134.49 235.413 135.201 235.569 135.718C235.788 136.558 236.351 137.269 236.57 138.206C234.037 137.528 231.943 136.267 230.348 134.231C229.942 133.714 229.629 133.003 229.098 132.68C228.629 132.39 227.91 132.454 227.316 132.39C227.316 132.907 227.316 133.456 227.347 133.973C227.347 134.296 227.409 134.587 227.535 135.459C225.346 134.458 223.47 133.617 221.563 132.745C220.938 134.781 221.563 135.912 223.408 136.59C225.596 137.398 227.785 138.238 230.129 139.111C229.848 139.466 229.692 139.886 229.442 139.983C226.597 141.276 223.72 142.504 220.907 143.861C220.469 144.087 220.313 144.927 220 145.509C220.625 145.703 221.407 146.252 221.907 146.058C223.97 145.283 225.971 144.281 227.972 143.376C228.754 143.021 229.504 142.536 230.317 142.375C231.13 142.213 231.38 142.956 231.005 143.506C229.098 146.091 227.222 148.708 225.096 151.132C224.127 152.231 222.657 152.845 221.501 153.782C221.094 154.105 220.844 154.783 220.75 155.333C220.719 155.462 221.501 155.882 221.938 155.979C224.033 156.399 225.596 155.074 226.722 153.652C228.723 151.164 230.379 148.385 232.162 145.703C232.474 145.218 232.662 144.637 232.912 144.12C233.131 144.443 233.381 144.669 233.631 144.863Z" fill="#ECE1CF"/>
<path d="M350.306 161.327C351.789 163.067 353.018 164.664 354.351 166.136C356.055 168.05 358.435 168.854 360.778 169.068C363.708 169.31 366.749 169.297 369.589 168.717C372.628 168.082 374.925 165.907 376.875 163.486C379.658 160.092 380.371 156.237 379.835 151.863C379.078 145.32 375.647 140.64 370.287 137.302C368.067 135.918 365.356 135.196 362.775 134.513C359.289 133.59 355.658 132.986 352.653 130.941C350.661 129.568 349.407 129.801 347.29 130.971C343.862 132.862 340.007 134.143 336.199 135.133C329.378 136.889 324.221 140.688 321.231 146.981C319.736 150.111 319.825 153.614 320.338 157.137C321.044 162.043 323.823 165.351 327.792 167.737C329.665 168.875 331.961 169.381 334.125 169.912C335.03 170.12 336.098 169.682 337.088 169.502C340.719 168.799 344.41 168.196 346.979 165.151C347.741 164.274 348.474 163.329 349.237 162.451C349.55 162.074 349.892 161.764 350.306 161.327ZM343.596 138.93C343.939 139.927 344.011 140.454 344.251 140.891C344.909 142.133 345.735 143.285 346.294 144.555C347.146 146.493 347.93 148.493 347.572 151.123C346.503 150.253 345.785 149.564 344.963 149.001C342.94 147.593 340.927 145.99 338.263 146.317C336.52 146.525 334.671 146.892 333.097 147.664C330.251 149.028 327.7 151.027 327.272 154.406C326.661 159.508 329.253 162.643 334.439 163.553C337.063 164.042 338.888 162.824 340.979 160.867C339.902 160.814 339.164 160.549 338.694 160.787C337.317 161.537 336.134 160.988 334.882 160.534C333.339 160.001 332.072 157.846 332.435 156.458C333.667 152.007 339.151 150.185 342.813 152.164C347.111 154.5 347.917 159.378 345.192 162.938C342.849 166.027 339.269 167.027 335.804 167.02C330.347 166.98 326.047 164.676 323.834 159.173C322.089 154.771 322.619 150.646 325.19 146.915C328.182 142.583 334.903 140.855 340.077 142.679C340.462 142.829 340.92 142.819 341.342 142.872C341.234 142.409 341.296 141.824 341.018 141.483C340.463 140.802 339.773 140.212 339.083 139.623C338.581 139.206 337.972 138.947 337.181 138.417C338.117 138.006 338.687 137.707 339.284 137.54C342.892 136.639 345.925 134.794 348.448 132.009C349.97 130.319 350.065 130.389 351.486 132.061C353.931 134.862 356.878 136.74 360.649 137.187C361.428 137.291 362.19 137.753 362.961 138.02C362.986 138.185 362.98 138.315 363.004 138.48C362.064 138.99 360.999 139.362 360.183 140.008C359.332 140.686 358.695 141.668 358 142.516C358.122 142.686 358.244 142.855 358.336 142.99C358.928 142.921 359.58 142.954 360.146 142.753C366.275 140.439 370.07 141.705 374.404 145.972C376.555 148.105 376.765 151.123 377.151 153.921C377.713 157.774 376.086 160.93 373.28 163.472C370.781 165.768 367.774 166.405 364.402 166.5C360.538 166.637 357.408 165.796 354.882 162.664C352.387 159.566 353.741 154.631 356.499 152.413C359.256 150.195 365.021 151.296 367.067 154.209C368.535 156.275 367.907 159.056 365.539 160.018C364.24 160.51 362.709 160.402 361.295 160.561C360.768 160.633 360.24 160.738 359.714 160.81C360.051 161.251 360.285 161.819 360.73 162.069C363.936 164.025 369.792 163.268 371.675 160.222C372.634 158.668 373.422 156.614 373.279 154.874C373.103 152.479 371.909 150.165 369.619 148.875C367.743 147.802 365.756 146.331 363.732 146.264C360.83 146.121 357.707 146.457 355.307 148.726C354.484 149.502 353.444 150.04 352.431 150.709C351.604 148.249 353.939 143.329 355.461 140.953C355.743 140.542 355.865 140.057 356.083 139.61C355.569 139.421 355.003 138.969 354.542 139.044C352.6 139.308 352.052 138.496 351.848 136.655C351.737 135.604 350.671 134.669 350.002 133.655C349.308 134.471 348.615 135.254 347.921 136.07C347.887 136.101 347.851 136.164 347.848 136.23C348.222 139.256 346.468 139.692 343.596 138.93Z" fill="#ECE1CF"/>
<path d="M454.459 147.237C455.395 146.645 456.455 146.146 457.266 145.397C458.139 144.586 458.825 143.495 457.89 142.279C457.048 141.187 454.99 140.938 453.836 141.717C452.62 142.528 451.871 144.836 452.37 146.208C452.713 147.112 452.869 148.11 453.399 148.89C454.615 150.73 456.674 151.447 458.669 151.665C462.942 152.102 466.746 153.692 470.083 156.218C472.672 158.183 473.95 161.114 474.886 164.202C475.572 166.509 476.164 168.88 477.162 171.062C477.755 172.341 479.033 173.339 480 174.462C478.035 176.863 470.239 172.84 467.62 167.819C467.089 168.256 466.622 168.692 466.123 169.067C463.971 170.688 461.601 171.749 458.981 172.403C457.297 172.84 455.613 173.37 453.929 173.838C453.399 173.994 452.838 174.087 452.245 174.243C451.684 172.934 452.058 171.904 452.869 171.031C453.617 170.22 453.649 169.503 453.056 168.568C451.341 165.792 452.089 163.141 453.773 160.678C455.052 158.838 456.83 157.809 459.168 157.965C460.665 158.058 461.632 158.776 461.726 159.43C460.634 160.46 459.605 161.177 458.888 162.144C458.077 163.235 458.42 164.326 459.605 165.044C461.383 166.166 463.659 166.135 465.218 163.828C466.31 162.206 466.715 162.206 467.775 163.859C468.617 165.137 469.647 165.979 471.393 166.322C471.081 163.796 470.208 161.769 468.617 160.148C467.588 159.119 466.372 158.214 465.187 157.31C462.162 155.002 456.767 155.065 453.773 157.403C453.399 157.684 452.807 157.715 452.339 157.84C452.432 157.341 452.495 156.873 452.588 156.374C452.62 156.187 452.682 155.969 452.775 155.782C453.243 154.846 454.21 153.848 454.085 153.006C453.961 152.133 452.744 151.478 452.058 150.667C451.466 149.919 450.936 149.108 450.249 148.11C449.906 148.64 449.626 149.139 449.314 149.607C448.597 150.574 447.942 151.665 447.037 152.414C446.039 153.225 446.071 153.755 446.819 154.722C447.599 155.719 448.16 156.904 448.815 158.027C448.659 158.183 448.534 158.339 448.378 158.464C447.599 158.058 446.694 157.809 446.071 157.247C443.451 154.909 440.52 155.22 437.651 156.343C435.593 157.154 433.565 158.277 431.819 159.618C429.979 161.052 429.231 163.204 429.106 165.792C431.507 165.636 432.193 163.453 433.877 162.144C434.407 162.83 435 163.453 435.437 164.139C436.715 166.166 439.241 166.166 440.956 164.825C442.141 163.921 442.079 162.268 440.8 161.208C440.27 160.74 439.553 160.522 438.961 160.148C438.649 159.961 438.368 159.711 438.056 159.493C438.306 159.212 438.493 158.838 438.773 158.682C442.547 156.78 444.854 157.934 446.944 161.489C448.378 163.983 448.846 166.697 446.788 169.285C446.57 169.566 446.694 170.252 446.881 170.626C447.287 171.437 447.911 172.185 448.347 172.996C448.503 173.308 448.565 173.869 448.41 174.087C448.254 174.306 447.661 174.368 447.349 174.275C444.137 173.308 440.863 172.403 437.744 171.187C436.341 170.657 435.156 169.472 433.94 168.505C433.067 167.788 432.505 167.507 431.85 168.786C430.541 171.312 428.42 173.183 425.8 174.119C424.148 174.711 422.245 174.618 420 174.898C420.468 174.15 420.561 173.807 420.811 173.588C423.43 171.437 424.179 168.349 425.021 165.293C426.549 159.555 429.792 155.22 435.499 153.193C438.087 152.258 440.925 151.977 443.545 151.135C446.694 150.137 447.443 149.077 447.942 145.615C448.254 143.308 446.57 141.312 444.356 141.281C443.669 141.281 442.703 141.717 442.36 142.247C442.017 142.778 442.141 143.744 442.391 144.43C442.859 145.771 443.919 146.551 445.291 146.956C445.541 147.019 445.821 147.393 445.852 147.674C445.884 147.861 445.634 148.204 445.416 148.36C442.328 150.293 440.021 150.2 437.464 147.736C435.748 146.052 435.281 143.807 435.748 141.468C436.029 140.189 435.655 139.659 434.376 139.472C429.2 138.755 425.426 135.855 422.775 131.52C421.965 130.21 421.185 128.682 421.653 126.686C422.526 127.31 423.212 127.84 423.929 128.308C426.518 129.992 429.324 130.99 432.318 131.863C436.435 133.079 440.582 133.048 444.761 132.954C445.322 132.954 446.133 132.58 446.351 132.144C447.287 130.304 448.067 128.339 448.909 126.437C449.033 126.156 449.127 125.844 449.314 125.626C449.501 125.376 449.751 125.065 450.031 125.002C450.187 124.971 450.53 125.283 450.655 125.532C451.559 127.029 452.432 128.526 453.274 130.023C453.43 130.304 453.649 130.584 453.617 130.865C453.555 132.861 454.709 133.141 456.362 132.986C457.609 132.861 458.857 132.954 460.104 132.954C464.626 133.048 468.836 131.769 472.89 129.992C474.511 129.306 475.915 128.152 477.443 127.279C477.817 127.06 478.347 127.092 478.815 126.998C478.846 127.435 479.002 127.902 478.846 128.308C476.819 133.921 472.89 137.507 467.245 139.316C466.341 139.597 465.031 139.503 464.595 140.096C464.158 140.688 464.626 141.904 464.626 142.84C464.657 146.988 462.973 148.391 459.605 149.638C457.827 150.231 455.146 148.952 454.459 147.237ZM441.05 138.817C442.422 138.536 443.857 137.85 445.104 138.1C446.507 138.381 447.817 139.41 448.971 140.345C449.844 141.062 450.312 141.218 451.06 140.252C452.588 138.256 454.553 137.507 457.017 138.443C457.796 138.724 458.607 138.911 459.605 139.191C458.545 134.857 455.27 135.013 452.464 135.106C451.84 133.453 451.341 132.081 450.78 130.74C450.655 130.46 450.343 130.272 450.125 130.023C449.844 130.304 449.439 130.522 449.345 130.834C449.033 131.988 448.784 133.173 448.565 134.389C448.41 135.324 447.879 136.198 446.975 135.605C445.385 134.576 444.106 135.512 442.734 135.886C441.861 136.073 440.863 138.287 441.05 138.817Z" fill="#ECE1CF"/>
<path d="M280 69.758C277.475 71.1268 271.835 73.7711 264.332 73.4526C255.179 73.0729 249.031 68.4262 246.583 66.5643C243.404 64.0805 237.314 59.4181 235.55 51.8972C234.849 48.8121 235.041 46.2431 232.788 43.6998C230.265 40.8512 226.497 40.1614 225.699 39.9976C223.246 39.522 221.247 39.8057 220 40.077C220.229 38.8198 220.695 36.8066 221.85 34.5461C223.02 32.3444 223.889 30.6637 225.649 30.1923C227.995 29.5637 230.239 31.6058 230.642 31.9383C230.896 31.2411 231.535 29.8739 232.855 28.7019C233.566 28.0708 235.164 26.7615 237.187 27.0378C238.959 27.3182 240.428 28.8127 241.022 30.7937C241.205 30.304 241.84 28.6862 243.532 27.7292C245.822 26.4233 248.21 27.3571 248.699 27.5407C251.501 28.6151 252.534 31.2966 252.644 31.7077C253.21 31.2412 254.75 29.9476 257.104 29.8202C258.09 29.745 260.194 29.6217 261.753 31.2181C263.492 33.0179 263.05 35.591 262.996 35.8573C263.583 35.7002 265.507 35.3735 267.393 36.3156C269.726 37.5157 270.473 39.8332 270.693 40.6554C271.366 42.9299 270.884 44.8844 270.588 45.6561C269.636 45.1557 268.063 44.4444 265.939 44.2582C265.231 44.1962 262.355 44.0225 260.476 45.2185C257.229 47.4103 257.379 53.6012 258.409 56.9758C260.68 64.0459 269.246 68.8001 280 69.758Z" fill="#ECE1CF"/>
<path d="M134.445 76.6898C144.866 76.6318 155.288 76.5157 165.71 76.4577C164.378 75.2388 161.425 72.2786 160.673 67.6932C160.383 65.8938 159.862 62.8175 161.773 60.2056C163.567 57.8258 167.273 56.1426 169.647 57.5937C170.863 58.2902 172.021 60.0315 171.615 61.7728C171.326 62.9917 170.457 63.6882 170.11 63.9784C170.052 63.8043 169.705 62.4693 168.605 62.0049C167.273 61.4245 165.652 62.4112 165.131 63.5141C164.262 65.3134 166.115 67.6932 167.562 68.796C170.284 70.8855 173.642 69.9568 173.931 69.8988C177.405 68.9121 179.316 65.4875 179.837 62.8756C180.647 58.6965 178.389 54.1111 174.163 51.4411C174.568 51.1509 177.231 49.1194 177.463 45.7529C177.637 42.3283 175.321 38.6136 171.789 38.0912C168.605 37.6269 166.173 39.9486 165.883 40.2968C165.652 38.8458 165.131 36.5821 163.452 34.3764C162.815 33.5638 161.888 32.2869 160.209 31.4743C158.299 30.5456 157.025 30.9519 155.578 30.6617C153.841 30.2554 151.583 28.6302 149.672 23C148.63 26.8308 146.835 28.5721 145.735 29.3847C144.287 30.4295 142.435 31.126 141.161 31.5904C138.208 32.6351 137.282 32.403 136.124 33.5638C134.85 34.8408 134.503 36.6401 134.387 37.2786C134.155 38.5555 134.271 39.6584 134.387 40.3549C133.982 40.0066 131.955 38.4975 129.118 38.8458C128.597 38.9038 125.934 39.194 124.313 41.4577C122.402 44.0696 123.444 47.1459 123.676 47.8424C124.371 49.7578 125.702 50.9187 126.281 51.325C125.297 51.8474 123.213 53.1824 121.707 55.7363C121.244 56.4908 119.16 60.0315 120.376 64.2686C120.665 65.1973 121.707 68.9701 125.413 70.4212C128.134 71.466 130.971 70.7695 132.882 69.5505C133.692 68.9701 135.603 67.7512 135.487 65.8358C135.429 64.6749 134.619 63.2819 133.518 62.9917C132.071 62.5854 130.971 64.2106 130.045 63.6301C129.292 63.2238 129.118 61.7147 129.581 60.786C130.392 59.1608 133.287 58.9867 135.198 59.6832C137.398 60.4958 138.44 62.5273 138.961 63.6301C139.308 64.3267 141.393 68.5058 139.192 72.6268C137.687 75.1807 135.313 76.3416 134.445 76.6898Z" fill="#ECE1CF"/>
<path d="M350 217.091L380 246.753L350 276.415L320 246.753L350 217.091Z" fill="#ECE1CF"/>
<rect width="20.3739" height="20.3739" transform="matrix(0.711108 0.703083 -0.711108 0.703083 350.023 232.454)" fill="#101010"/>
<path d="M265.616 230.665L277.617 230.598L262.837 245.518L250.687 245.736L265.616 230.665Z" fill="#ECE1CF"/>
<path d="M264.11 229.175L264.053 217.186L249.274 232.106L249.181 244.245L264.11 229.175Z" fill="#ECE1CF"/>
<path d="M231.477 264.426L231.535 276.415L246.314 261.495L246.406 249.355L231.477 264.426Z" fill="#ECE1CF"/>
<path d="M229.97 262.933L217.969 263.001L232.749 248.081L244.899 247.862L229.97 262.933Z" fill="#ECE1CF"/>
<path d="M265.608 262.882L277.609 262.938L262.843 248.033L250.694 247.826L265.608 262.882Z" fill="#ECE1CF"/>
<path d="M264.103 264.375L264.034 276.364L249.268 261.458L249.188 249.318L264.103 264.375Z" fill="#ECE1CF"/>
<path d="M231.519 229.081L231.587 217.092L246.353 231.998L246.433 244.137L231.519 229.081Z" fill="#ECE1CF"/>
<path d="M230.009 230.574L218.008 230.518L232.774 245.423L244.923 245.63L230.009 230.574Z" fill="#ECE1CF"/>
<path d="M466.866 247.597L472.855 253.518L458.08 253.625L451.942 247.705L466.866 247.597Z" fill="#ECE1CF"/>
<path d="M466.86 246.106L472.811 240.098L458.036 240.205L451.936 246.214L466.86 246.106Z" fill="#ECE1CF"/>
<path d="M433.095 247.489L427.144 253.497L441.919 253.39L448.019 247.381L433.095 247.489Z" fill="#ECE1CF"/>
<path d="M433.091 245.996L427.102 240.075L441.877 239.967L448.015 245.887L433.091 245.996Z" fill="#ECE1CF"/>
<path d="M450.803 263.655L456.73 269.638L456.837 254.877L450.911 248.746L450.803 263.655Z" fill="#ECE1CF"/>
<path d="M449.309 263.653L443.295 269.598L443.403 254.838L449.417 248.744L449.309 263.653Z" fill="#ECE1CF"/>
<path d="M450.734 229.887L456.747 223.942L456.64 238.703L450.626 244.797L450.734 229.887Z" fill="#ECE1CF"/>
<path d="M449.242 229.882L443.315 223.9L443.208 238.66L449.134 244.792L449.242 229.882Z" fill="#ECE1CF"/>
<path d="M474.57 222.284L474.621 238.471L458.435 238.42L458.384 222.233L474.57 222.284Z" fill="#ECE1CF"/>
<path d="M474.553 255L474.603 270.989L458.614 270.939L458.564 254.95L474.553 255Z" fill="#ECE1CF"/>
<path d="M441.994 222.304L442.045 238.431L425.918 238.38L425.867 222.253L441.994 222.304Z" fill="#ECE1CF"/>
<path d="M441.902 254.928L441.953 271.057L425.824 271.006L425.773 254.877L441.902 254.928Z" fill="#ECE1CF"/>
<rect width="7.81688" height="7.81688" transform="matrix(0.00314504 0.999995 -0.999995 -0.00314504 438.082 226.198)" fill="#101010"/>
<rect width="7.82261" height="7.82264" transform="matrix(0.00314504 0.999995 -0.999995 -0.00314504 437.736 259.068)" fill="#101010"/>
<rect width="7.81688" height="7.81688" transform="matrix(0.00314504 0.999995 -0.999995 -0.00314504 470.18 258.942)" fill="#101010"/>
<rect width="7.81688" height="7.81688" transform="matrix(0.00314504 0.999995 -0.999995 -0.00314504 470.402 226.47)" fill="#101010"/>
<path fill-rule="evenodd" clip-rule="evenodd" d="M149.999 217.091L158.641 225.635H171.079V238.083L179.811 246.716L171.079 255.35V267.797H158.7L149.983 276.415L141.266 267.797H128.918V255.351L120.186 246.716L128.918 238.082V225.635H141.358L149.999 217.091Z" fill="#ECE1CF"/>
</svg>
