<svg width="350" height="495" viewBox="0 0 350 495" fill="none" xmlns="http://www.w3.org/2000/svg">
<g clip-path="url(#clip0_799_2943)">
<line x1="-8.81641" y1="80.2461" x2="359.2" y2="80.2461" stroke="#ECE1CF" stroke-width="0.587886"/>
<line x1="-8.81641" y1="11.4639" x2="359.2" y2="11.4639" stroke="#ECE1CF" stroke-width="0.587886"/>
<line x1="-8.81641" y1="92.0039" x2="359.2" y2="92.0039" stroke="#ECE1CF" stroke-width="0.587886"/>
<line x1="-8.81641" y1="160.787" x2="359.2" y2="160.787" stroke="#ECE1CF" stroke-width="0.587886"/>
<line x1="-8.81641" y1="172.545" x2="359.2" y2="172.545" stroke="#ECE1CF" stroke-width="0.587886"/>
<line x1="-8.81641" y1="241.327" x2="359.2" y2="241.327" stroke="#ECE1CF" stroke-width="0.587886"/>
<line x1="-8.81641" y1="253.085" x2="359.2" y2="253.085" stroke="#ECE1CF" stroke-width="0.587886"/>
<line x1="-8.81641" y1="321.867" x2="359.2" y2="321.867" stroke="#ECE1CF" stroke-width="0.587886"/>
<line x1="-8.81641" y1="333.625" x2="359.2" y2="333.625" stroke="#ECE1CF" stroke-width="0.587886"/>
<line x1="11.4639" y1="517.928" x2="11.4638" y2="-16.4606" stroke="#ECE1CF" stroke-width="0.587886"/>
<line x1="56.1436" y1="517.928" x2="56.1435" y2="-16.4606" stroke="#ECE1CF" stroke-width="0.587886"/>
<line x1="67.9014" y1="517.928" x2="67.9013" y2="-16.4606" stroke="#ECE1CF" stroke-width="0.587886"/>
<line x1="112.581" y1="514.4" x2="112.581" y2="-19.988" stroke="#ECE1CF" stroke-width="0.587886"/>
<line x1="124.339" y1="514.4" x2="124.339" y2="-19.988" stroke="#ECE1CF" stroke-width="0.587886"/>
<line x1="169.019" y1="514.4" x2="169.019" y2="-19.988" stroke="#ECE1CF" stroke-width="0.587886"/>
<line x1="180.776" y1="514.4" x2="180.776" y2="-19.988" stroke="#ECE1CF" stroke-width="0.587886"/>
<line x1="224.866" y1="508.521" x2="224.866" y2="-25.8669" stroke="#ECE1CF" stroke-width="0.587886"/>
<line x1="236.624" y1="508.521" x2="236.624" y2="-25.8669" stroke="#ECE1CF" stroke-width="0.587886"/>
<line x1="293.062" y1="508.521" x2="293.061" y2="-25.8669" stroke="#ECE1CF" stroke-width="0.587886"/>
<line x1="281.304" y1="508.521" x2="281.304" y2="-25.8669" stroke="#ECE1CF" stroke-width="0.587886"/>
<line x1="337.741" y1="508.521" x2="337.741" y2="-25.8669" stroke="#ECE1CF" stroke-width="0.587886"/>
<line x1="236.624" y1="508.521" x2="236.624" y2="-25.8669" stroke="#ECE1CF" stroke-width="0.587886"/>
<line x1="-8.81641" y1="402.408" x2="359.2" y2="402.408" stroke="#ECE1CF" stroke-width="0.587886"/>
<line x1="-8.81641" y1="414.166" x2="359.2" y2="414.166" stroke="#ECE1CF" stroke-width="0.587886"/>
<line x1="-8.81641" y1="482.948" x2="359.2" y2="482.948" stroke="#ECE1CF" stroke-width="0.587886"/>
</g>
<defs>
<clipPath id="clip0_799_2943">
<rect width="349.792" height="495" fill="white"/>
</clipPath>
</defs>
</svg>
