<svg width="350" height="494" viewBox="0 0 350 494" fill="none" xmlns="http://www.w3.org/2000/svg">
<g clip-path="url(#clip0_799_2975)">
<line x1="-8.80078" y1="80.0846" x2="358.472" y2="80.0846" stroke="#ECE1CF" stroke-width="0.586698"/>
<line x1="-8.80078" y1="11.441" x2="358.472" y2="11.441" stroke="#ECE1CF" stroke-width="0.586698"/>
<line x1="-8.80078" y1="91.818" x2="358.472" y2="91.818" stroke="#ECE1CF" stroke-width="0.586698"/>
<line x1="-8.80078" y1="160.462" x2="358.472" y2="160.462" stroke="#ECE1CF" stroke-width="0.586698"/>
<line x1="-8.80078" y1="172.196" x2="358.472" y2="172.196" stroke="#ECE1CF" stroke-width="0.586698"/>
<line x1="-8.80078" y1="240.839" x2="358.472" y2="240.839" stroke="#ECE1CF" stroke-width="0.586698"/>
<line x1="-8.80078" y1="252.574" x2="358.472" y2="252.574" stroke="#ECE1CF" stroke-width="0.586698"/>
<line x1="-8.80078" y1="321.217" x2="358.472" y2="321.217" stroke="#ECE1CF" stroke-width="0.586698"/>
<line x1="-8.80078" y1="332.952" x2="358.472" y2="332.952" stroke="#ECE1CF" stroke-width="0.586698"/>
<line x1="11.441" y1="516.881" x2="11.441" y2="-16.4279" stroke="#ECE1CF" stroke-width="0.586698"/>
<line x1="56.0309" y1="516.881" x2="56.0308" y2="-16.4279" stroke="#ECE1CF" stroke-width="0.586698"/>
<line x1="67.7652" y1="516.881" x2="67.7652" y2="-16.4279" stroke="#ECE1CF" stroke-width="0.586698"/>
<line x1="112.351" y1="513.361" x2="112.351" y2="-19.9474" stroke="#ECE1CF" stroke-width="0.586698"/>
<line x1="124.086" y1="513.361" x2="124.086" y2="-19.9474" stroke="#ECE1CF" stroke-width="0.586698"/>
<line x1="168.675" y1="513.361" x2="168.675" y2="-19.9474" stroke="#ECE1CF" stroke-width="0.586698"/>
<line x1="180.41" y1="513.361" x2="180.41" y2="-19.9474" stroke="#ECE1CF" stroke-width="0.586698"/>
<line x1="224.414" y1="507.494" x2="224.414" y2="-25.8146" stroke="#ECE1CF" stroke-width="0.586698"/>
<line x1="236.148" y1="507.494" x2="236.148" y2="-25.8146" stroke="#ECE1CF" stroke-width="0.586698"/>
<line x1="292.468" y1="507.494" x2="292.468" y2="-25.8146" stroke="#ECE1CF" stroke-width="0.586698"/>
<line x1="280.734" y1="507.494" x2="280.734" y2="-25.8146" stroke="#ECE1CF" stroke-width="0.586698"/>
<line x1="337.058" y1="507.494" x2="337.058" y2="-25.8146" stroke="#ECE1CF" stroke-width="0.586698"/>
<line x1="236.148" y1="507.494" x2="236.148" y2="-25.8146" stroke="#ECE1CF" stroke-width="0.586698"/>
<line x1="-8.80078" y1="401.595" x2="358.472" y2="401.595" stroke="#ECE1CF" stroke-width="0.586698"/>
<line x1="-8.80078" y1="413.329" x2="358.472" y2="413.329" stroke="#ECE1CF" stroke-width="0.586698"/>
<line x1="-8.80078" y1="481.972" x2="358.472" y2="481.972" stroke="#ECE1CF" stroke-width="0.586698"/>
<line x1="175.129" x2="175.129" y2="494" stroke="#ECE1CF" stroke-width="0.586698"/>
<line x1="421.836" y1="247.293" x2="-72.1641" y2="247.293" stroke="#ECE1CF" stroke-width="0.586698"/>
<line y1="-0.293349" x2="482.625" y2="-0.293349" transform="matrix(-0.723773 0.690039 -0.723772 -0.690039 349.086 80.5938)" stroke="#ECE1CF" stroke-width="0.586698"/>
<line y1="-0.293349" x2="482.625" y2="-0.293349" transform="matrix(-0.723773 -0.690039 0.723772 -0.690039 349.086 413.409)" stroke="#ECE1CF" stroke-width="0.586698"/>
</g>
<defs>
<clipPath id="clip0_799_2975">
<rect width="349.086" height="494" fill="white"/>
</clipPath>
</defs>
</svg>
