<svg width="1320" height="866" viewBox="0 0 1320 866" fill="none" xmlns="http://www.w3.org/2000/svg">
<path fill-rule="evenodd" clip-rule="evenodd" d="M509.13 452.735C592.863 394.125 644.028 369.934 742.732 342.09L742.74 342.093L742.737 342.088L742.741 342.087L742.734 342.085C684.127 258.355 659.937 207.19 632.093 108.484L632.093 108.484C632.093 108.484 632.093 108.484 632.093 108.484C632.093 108.483 632.092 108.483 632.092 108.482L632.091 108.485C548.359 167.095 497.194 191.285 398.49 219.13L398.481 219.126C398.482 219.128 398.483 219.13 398.484 219.132C398.483 219.132 398.483 219.132 398.482 219.132L398.486 219.134C457.094 302.865 481.284 354.03 509.129 452.737L570.608 280.613L570.609 280.613L509.13 452.735Z" fill="#79A0C1"/>
<ellipse cx="248.541" cy="345.821" rx="138.276" ry="207.413" transform="rotate(-60.7225 248.541 345.821)" fill="#EFB852"/>
<path d="M1289.51 366.77C1285.3 375.022 1273.7 394.334 1249.91 407.714C1232.23 417.873 1215.84 420.195 1206.3 420.366C1208.13 424.82 1214.44 439.829 1209.19 457.652C1200.58 485.376 1171.37 494.223 1169.02 494.554C1172.85 500.491 1184.32 522.427 1179.38 550.808C1173.07 586.45 1144.59 604.618 1140.23 607.591C1124.57 564.458 1100.96 545.418 1087.28 537.343C1073.51 528.691 1059.22 524.824 1029.98 516.595C973.346 500.466 968.803 505.412 948.03 494.627C921.664 477.156 905.892 441.695 909.009 408.86C913.513 360.516 957.919 332.437 975.513 321.7C997.968 307.331 1033.06 295.356 1051.28 283.054C1071.22 267.265 1077.58 266.365 1082.64 200.823C1091.66 205.436 1107 204.137 1122.46 233.164C1133.85 254.522 1134.79 273.825 1134.5 284.467C1136.76 283.558 1156.34 278.429 1171.19 290.463C1185.95 301.919 1189.89 325.51 1178.87 344.739C1191.09 342.42 1212.25 340.013 1237.49 345.275C1262.72 350.537 1279.66 360.507 1289.51 366.77Z" fill="#C4A4DD"/>
<circle cx="853.76" cy="163.891" r="144.997" transform="rotate(81.9418 853.76 163.891)" fill="#DC6F3A"/>
<path d="M901.105 546.852C885.617 498.621 851.603 458.519 806.547 435.367C761.491 412.215 709.083 407.909 660.853 423.398C612.623 438.886 572.52 472.9 549.368 517.956C526.216 563.012 521.911 615.419 537.399 663.65L901.105 546.852Z" fill="#517D56"/>
<path fill-rule="evenodd" clip-rule="evenodd" d="M252.786 564.847C336.943 555.592 387.332 542.28 482.994 503.892C432.815 594.282 413.214 642.621 393.633 724.632C309.476 733.887 259.086 747.198 163.425 785.586C213.604 695.197 233.204 646.857 252.786 564.847Z" fill="#D84E00"/>
<path d="M221.567 385.048C224.026 386.586 224.877 388.581 223.552 390.701C222.227 392.82 220.049 392.945 217.59 391.408C215.149 389.881 214.29 387.858 215.616 385.738C216.941 383.619 219.125 383.522 221.567 385.048ZM225.943 392.196C227.12 390.314 227.449 388.467 226.936 386.684C226.417 384.873 225.22 383.393 223.338 382.216C221.455 381.039 219.6 380.611 217.762 380.948C215.918 381.257 214.402 382.361 213.225 384.243C212.037 386.142 211.708 387.989 212.227 389.8C212.74 391.583 213.937 393.063 215.82 394.24C217.702 395.417 219.557 395.845 221.401 395.536C223.239 395.199 224.755 394.095 225.943 392.196ZM219.835 379.557L222.252 375.69L232.088 381.84L233.806 379.093L223.97 372.943L226.377 369.094L223.969 367.588L217.427 378.051L219.835 379.557ZM238.518 362.919C237.023 362.291 235.912 362.446 234.725 363.59C234.854 362.893 234.82 362.306 234.579 361.824C234.337 361.343 233.905 360.79 233.265 360.153C232.368 359.286 232.218 358.886 232.472 358.479C232.568 358.326 232.714 358.205 232.894 358.105L231.209 356.273C230.58 356.752 230.132 357.204 229.856 357.645C229.475 358.255 229.273 358.766 229.373 359.324C229.449 359.843 229.474 360.142 229.896 360.712L230.403 361.336L231.062 362.055C231.382 362.373 231.594 362.6 231.715 362.746C232.545 363.643 232.685 364.249 232.208 365.012L231.222 366.589L226.457 363.61L224.739 366.357L236.983 374.013L238.7 371.266L233.63 368.095L234.722 366.348C235.072 365.789 235.424 365.49 235.806 365.446C236.17 365.39 236.813 365.533 237.716 365.861C239.225 366.428 240.315 366.685 240.985 366.632C241.654 366.579 242.235 366.14 242.744 365.326C243.137 364.699 243.347 364.099 243.391 363.537L241.375 362.725C241.375 362.913 241.352 363.064 241.288 363.166C241.076 363.505 240.68 363.611 240.093 363.456C239.505 363.301 239.219 363.193 238.518 362.919ZM243.688 355.481C244.599 354.023 244.941 352.609 244.712 351.239C244.477 349.842 243.685 348.733 242.328 347.885C240.971 347.036 239.627 346.809 238.313 347.214C236.998 347.619 235.866 348.562 234.944 350.037L232.081 354.616L244.324 362.271L246.042 359.524L242.532 357.329L243.688 355.481ZM236.207 353.374L237.33 351.577C238.274 350.067 239.453 349.955 240.555 350.645C241.708 351.366 242.187 352.561 241.265 354.037L240.141 355.834L236.207 353.374ZM245.447 333.24L257.69 340.896L259.408 338.148L247.165 330.493L245.447 333.24ZM246.958 344.894L248.188 342.927C248.994 341.638 250.19 341.536 251.207 342.173C252.174 342.777 252.549 344.026 251.817 345.196L250.587 347.163L246.958 344.894ZM240.633 340.939L238.915 343.686L251.159 351.342L254.191 346.492C255.008 345.186 255.313 343.867 255.08 342.542C254.858 341.2 254.156 340.172 252.952 339.419C251.714 338.645 250.449 338.443 249.156 338.814C247.873 339.168 246.821 340.02 245.984 341.36L244.669 343.462L240.633 340.939ZM250.341 330.77L252.758 326.904L262.594 333.054L264.312 330.307L254.476 324.157L256.883 320.307L254.475 318.801L247.933 329.264L250.341 330.77ZM261.777 307.124L274.02 314.78L275.738 312.033L263.494 304.377L261.777 307.124ZM263.288 318.778L264.518 316.811C265.324 315.522 266.519 315.421 267.537 316.057C268.503 316.661 268.878 317.91 268.147 319.08L266.917 321.047L263.288 318.778ZM256.963 314.823L255.245 317.57L267.488 325.226L270.521 320.376C271.337 319.07 271.643 317.752 271.41 316.427C271.188 315.085 270.486 314.056 269.282 313.303C268.044 312.529 266.779 312.328 265.485 312.699C264.203 313.052 263.151 313.904 262.313 315.244L260.999 317.347L256.963 314.823ZM263.004 298.446C264.7 299.507 266.237 298.935 267.626 296.713C269.015 294.492 268.856 292.859 267.161 291.799L265.757 293.704C266.588 294.224 266.736 294.93 266.185 295.812C265.633 296.694 264.934 296.869 264.103 296.35L263.004 298.446ZM273.973 297.049L281.977 302.054L283.695 299.307L271.452 291.651L269.575 294.653L274.493 304.592L266.489 299.588L264.771 302.335L277.015 309.99L278.892 306.989L273.973 297.049Z" fill="black"/>
<path d="M485.964 263.915L488.845 264.821L489.955 261.292L498.788 264.071L497.678 267.6L500.578 268.513L502.535 262.293L500.722 261.723L504.21 250.639L494.709 247.649L494.145 249.443C493.382 251.866 492.643 253.751 491.913 255.136C491.203 256.526 490.404 257.533 489.504 258.194L487.921 257.695L485.964 263.915ZM492.538 259.148C494.148 257.83 495.558 255.213 496.795 251.283L500.267 252.375L497.632 260.751L492.538 259.148ZM509.812 263.199C511.452 263.715 512.907 263.691 514.175 263.125C515.468 262.547 516.342 261.501 516.823 259.975C517.303 258.449 517.185 257.091 516.463 255.92C515.741 254.749 514.544 253.89 512.884 253.368L507.733 251.747L503.399 265.522L506.49 266.494L507.732 262.545L509.812 263.199ZM509.971 255.429L511.993 256.065C513.691 256.599 514.096 257.712 513.706 258.952C513.298 260.249 512.261 261.013 510.601 260.491L508.578 259.855L509.971 255.429ZM528.738 258.356L523.392 265.019L522.118 256.273L518.798 255.229L520.593 266.382C520.712 267.006 520.689 267.544 520.545 268.002C520.371 268.555 520.02 268.738 519.505 268.576C519.123 268.456 518.952 268.067 519.072 267.685C519.186 267.323 519.339 267.036 519.525 266.78L517.274 266.071C516.926 266.444 516.704 266.815 516.584 267.196C516.11 268.703 516.784 270.027 518.615 270.603C520.299 271.049 521.228 270.963 522.376 270.046C522.794 269.716 523.149 269.388 523.435 269.079C523.721 268.771 524.118 268.308 524.614 267.731L531.733 259.299L528.738 258.356ZM546.423 274.257C546.655 272.653 546.227 271.617 544.82 270.755C545.528 270.705 546.088 270.525 546.493 270.17C546.898 269.815 547.325 269.258 547.78 268.478C548.394 267.393 548.744 267.146 549.202 267.29C549.374 267.344 549.528 267.456 549.669 267.605L551.019 265.514C550.397 265.025 549.848 264.705 549.352 264.549C548.665 264.333 548.12 264.266 547.605 264.502C547.122 264.707 546.839 264.806 546.393 265.358L545.917 266.005L545.386 266.824C545.159 267.213 544.993 267.475 544.881 267.629C544.222 268.659 543.67 268.946 542.812 268.676L541.61 268.298L543.297 262.937L540.206 261.965L538.519 267.326L537.317 266.947C536.459 266.677 536.171 266.125 536.22 264.904L536.248 263.948C536.291 263.479 536.304 263.169 536.301 262.98C536.308 262.625 536.28 261.715 536.11 261.389C535.859 260.786 535.373 260.067 534.319 259.819C533.823 259.663 533.189 259.61 532.399 259.655L532.308 262.143C532.51 262.101 532.7 262.098 532.872 262.152C533.329 262.296 533.475 262.698 533.357 263.94C533.284 264.84 533.315 265.541 533.444 266.064C533.573 266.587 533.929 267.055 534.48 267.501C532.834 267.403 531.889 268.007 531.161 269.455C530.805 270.119 530.658 270.387 530.312 270.886C529.966 271.386 529.596 271.563 529.214 271.443C529.1 271.407 528.984 271.307 528.862 271.164L527.857 273.091C528.256 273.489 528.805 273.809 529.511 274.031C530.427 274.319 531.154 274.275 531.697 273.88C532.241 273.485 532.902 272.582 533.682 271.171C534.155 270.334 534.551 269.809 534.864 269.614C535.183 269.4 535.644 269.398 536.274 269.596L537.667 270.035L535.872 275.739L538.963 276.711L540.757 271.007L542.15 271.445C542.78 271.643 543.157 271.909 543.296 272.267C543.441 272.606 543.465 273.264 543.374 274.22C543.205 275.824 543.23 276.943 543.449 277.578C543.669 278.213 544.239 278.665 545.155 278.953C545.861 279.175 546.494 279.228 547.049 279.13L547.329 276.975C547.147 277.022 546.995 277.037 546.881 277.001C546.499 276.881 546.297 276.524 546.299 275.917C546.302 275.309 546.334 275.005 546.423 274.257ZM558.905 276.717L559.758 274.008L554.149 272.243L554.983 269.591L561.699 271.704L562.551 268.995L552.745 265.91L548.411 279.684L558.236 282.776L559.082 280.086L552.348 277.967L553.296 274.952L558.905 276.717ZM565.545 272.894C564.002 277.797 562.973 280.136 562.288 280.78C561.958 281.095 561.574 281.184 561.154 281.052C560.772 280.932 560.466 280.773 560.216 280.568L559.117 282.927C559.554 283.337 560.104 283.657 560.772 283.867C562.431 284.389 563.784 283.955 564.835 282.546C565.887 281.136 567.115 278.231 568.515 273.849L572.464 275.092L568.983 286.157L572.073 287.129L576.407 273.355L566.391 270.204L565.545 272.894ZM581.157 283.718C580.796 285.597 581.008 287.257 581.83 288.71C582.651 290.164 584.028 291.184 585.955 291.791C588.073 292.457 589.943 292.312 591.54 291.367C593.162 290.41 594.294 288.879 594.96 286.761C595.626 284.644 595.575 282.741 594.787 281.046C594.025 279.339 592.575 278.149 590.457 277.482C588.607 276.9 586.957 276.947 585.469 277.611C584.006 278.262 582.868 279.413 582.047 281.021L580.101 280.409L581.788 275.048L578.698 274.076L574.364 287.85L577.454 288.822L579.249 283.118L581.157 283.718ZM591.774 285.759C590.903 288.525 589.186 289.851 586.802 289.101C584.417 288.35 583.749 286.274 584.62 283.508C585.484 280.761 587.226 279.422 589.611 280.172C591.996 280.923 592.638 283.012 591.774 285.759ZM599.707 289.031L601.443 289.577C603.274 290.153 603.992 291.071 603.596 292.33C603.266 293.379 602.207 294.011 600.834 293.579L598.506 292.846L599.707 289.031ZM608.525 283.461L599.005 280.465L594.671 294.24L600.452 296.058C603.447 297.001 605.841 296.056 606.705 293.309C607.57 290.561 606.192 288.409 603.159 287.454L600.469 286.608L601.243 284.147L607.673 286.17L608.525 283.461ZM617.572 295.176L615.777 300.88L618.868 301.853L623.202 288.079L620.111 287.106L618.425 292.467L612.873 290.72L614.56 285.359L611.469 284.387L607.135 298.161L610.226 299.134L612.021 293.429L617.572 295.176ZM637.25 292.499L632.916 306.273L636.007 307.245L640.341 293.471L637.25 292.499ZM626.35 296.89L628.563 297.586C630.013 298.042 630.411 299.174 630.051 300.319C629.709 301.406 628.595 302.083 627.278 301.669L625.065 300.972L626.35 296.89ZM628.589 289.773L625.498 288.801L621.164 302.575L626.62 304.292C628.089 304.754 629.443 304.719 630.667 304.16C631.91 303.608 632.729 302.671 633.155 301.316C633.593 299.923 633.47 298.648 632.787 297.489C632.122 296.336 631.033 295.533 629.526 295.058L627.16 294.314L628.589 289.773ZM645.958 291.507C645.358 293.414 646.298 294.758 648.797 295.545C651.296 296.331 652.836 295.767 653.437 293.86L651.24 292.98C650.945 293.914 650.299 294.235 649.307 293.923C648.315 293.611 647.969 292.978 648.263 292.043L645.958 291.507ZM650.066 301.773L647.233 310.778L650.324 311.75L654.658 297.976L651.281 296.913L642.896 304.171L645.729 295.167L642.638 294.194L638.305 307.968L641.681 309.031L650.066 301.773Z" fill="black"/>
<path d="M774.104 150.82C775.624 150.82 776.484 151.56 776.484 152.7C776.484 153.88 775.704 154.62 774.204 154.62H771.704V150.82H774.104ZM768.464 157H774.604C776.144 157 777.384 156.64 778.324 155.94C779.264 155.24 779.744 154.26 779.744 153C779.744 151.1 778.584 149.76 776.324 149.46C777.984 149.12 779.044 147.8 779.044 146.18C779.044 143.86 777.124 142.56 773.904 142.56H768.464V157ZM773.724 144.94C775.164 144.94 775.784 145.64 775.784 146.68C775.784 147.72 775.164 148.44 773.724 148.44H771.704V144.94H773.724ZM790.864 151.02V157H794.104V142.56H790.864V148.18H785.044V142.56H781.804V157H785.044V151.02H790.864ZM805.871 147.56V157H809.111V142.56H805.571L799.751 152V142.56H796.511V157H800.051L805.871 147.56ZM811.511 157H814.731V146.1H814.831L818.431 157H820.851L824.311 146.1H824.411V157H827.651V142.56H822.731L819.651 151.72L816.531 142.56H811.511V157ZM842.966 157L837.866 142.56H834.106L829.046 157H832.146L833.126 154.1H838.546L839.526 157H842.966ZM837.666 151.46H833.966L835.806 146.02L837.666 151.46ZM841.605 145.4H846.165V157H849.405V145.4H853.945V142.56H841.605V145.4ZM864.517 151.02V148.18H858.637V145.4H865.677V142.56H855.397V157H865.697V154.18H858.637V151.02H864.517ZM869.703 145.38C869.703 150.52 869.423 153.06 868.963 153.88C868.743 154.28 868.403 154.48 867.963 154.48C867.563 154.48 867.223 154.42 866.923 154.3L866.583 156.88C867.123 157.14 867.743 157.28 868.443 157.28C870.183 157.28 871.343 156.46 871.923 154.8C872.503 153.14 872.803 150 872.823 145.4H876.963V157H880.203V142.56H869.703V145.38ZM885.844 150.02H888.164C889.684 150.02 890.404 150.98 890.404 152.18C890.404 153.32 889.544 154.3 888.164 154.3H885.844V150.02ZM885.844 142.56H882.604V157H888.324C889.864 157 891.144 156.56 892.144 155.66C893.164 154.76 893.664 153.62 893.664 152.2C893.664 150.74 893.164 149.56 892.164 148.66C891.184 147.76 889.904 147.32 888.324 147.32H885.844V142.56ZM904.321 151.02V157H907.561V142.56H904.321V148.18H898.501V142.56H895.261V157H898.501V151.02H904.321ZM922.288 142.56V157H925.528V142.56H922.288ZM913.208 150.02H915.528C917.048 150.02 917.768 150.98 917.768 152.18C917.768 153.32 916.908 154.3 915.528 154.3H913.208V150.02ZM913.208 142.56H909.968V157H915.688C917.228 157 918.508 156.56 919.508 155.66C920.528 154.76 921.028 153.62 921.028 152.2C921.028 150.74 920.528 149.56 919.528 148.66C918.548 147.76 917.268 147.32 915.688 147.32H913.208V142.56ZM930.296 139C930.296 141 931.596 142 934.216 142C936.836 142 938.136 141 938.136 139L935.776 138.82C935.776 139.8 935.256 140.3 934.216 140.3C933.176 140.3 932.656 139.8 932.656 138.82L930.296 139ZM937.296 147.56V157H940.536V142.56H936.996L931.176 152V142.56H927.936V157H931.476L937.296 147.56ZM805.5 177.42C805.24 175.82 804.52 174.96 802.92 174.56C803.58 174.3 804.06 173.96 804.34 173.5C804.62 173.04 804.86 172.38 805.06 171.5C805.32 170.28 805.58 169.94 806.06 169.94C806.24 169.94 806.42 170 806.6 170.1L807.26 167.7C806.52 167.42 805.9 167.28 805.38 167.28C804.66 167.28 804.12 167.38 803.7 167.76C803.3 168.1 803.06 168.28 802.8 168.94L802.54 169.7L802.28 170.64C802.18 171.08 802.1 171.38 802.04 171.56C801.72 172.74 801.28 173.18 800.38 173.18H798.52V167.56H795.28V182H798.52V176.02H800.58C801.24 176.02 801.68 176.16 801.92 176.46C802.16 176.74 802.38 177.36 802.58 178.3C802.9 179.88 803.26 180.94 803.66 181.48C804.06 182.02 804.74 182.28 805.7 182.28C806.44 182.28 807.06 182.14 807.56 181.88L807.18 179.74C807.02 179.84 806.88 179.9 806.76 179.9C806.36 179.9 806.06 179.62 805.88 179.04C805.7 178.46 805.64 178.16 805.5 177.42ZM813.87 185.7H816.89V182H826.15V185.7H829.19V179.18H827.29V167.56H817.33V169.44C817.33 171.98 817.19 174 816.91 175.54C816.65 177.08 816.19 178.28 815.53 179.18H813.87V185.7ZM818.71 179.18C819.85 177.44 820.41 174.52 820.41 170.4H824.05V179.18H818.71ZM840.103 176.02V173.18H834.223V170.4H841.263V167.56H830.983V182H841.283V179.18H834.223V176.02H840.103ZM842.269 170.4H846.829V182H850.069V170.4H854.609V167.56H842.269V170.4ZM867.184 182L862.084 167.56H858.324L853.264 182H856.364L857.344 179.1H862.764L863.744 182H867.184ZM861.884 176.46H858.184L860.024 171.02L861.884 176.46ZM870.641 170.38C870.641 175.52 870.361 178.06 869.901 178.88C869.681 179.28 869.341 179.48 868.901 179.48C868.501 179.48 868.161 179.42 867.861 179.3L867.521 181.88C868.061 182.14 868.681 182.28 869.381 182.28C871.121 182.28 872.281 181.46 872.861 179.8C873.441 178.14 873.741 175 873.761 170.4H877.901V182H881.141V167.56H870.641V170.38ZM891.942 174.22H889.422C887.762 174.22 887.062 173.34 887.062 172.14C887.062 170.88 887.842 170.24 889.422 170.24H891.942V174.22ZM884.762 178.36C884.522 179.38 884.162 179.9 883.682 179.9C883.562 179.9 883.422 179.84 883.262 179.74L882.882 181.88C883.382 182.14 884.002 182.28 884.742 182.28C885.602 182.28 886.222 182.08 886.642 181.66C887.062 181.24 887.402 180.48 887.662 179.38C888.082 177.72 888.502 176.98 889.762 176.98H891.942V182H895.182V167.56H889.142C885.762 167.56 883.802 169.22 883.802 171.88C883.802 173.82 884.782 175.26 886.782 175.74C885.762 176.08 885.102 176.96 884.762 178.36ZM897.585 182H900.805V171.1H900.905L904.505 182H906.925L910.385 171.1H910.485V182H913.725V167.56H908.805L905.725 176.72L902.605 167.56H897.585V182Z" fill="black"/>
<path d="M627.202 544.003C628.845 543.496 630.021 544.117 630.709 545.872L633.624 544.532C632.048 540.581 628.701 540.589 626.198 541.362C624.134 542 622.768 543.133 622.074 544.75C621.38 546.367 621.394 548.309 622.084 550.545C623.483 555.074 626.573 556.945 630.624 555.694C633.032 554.95 635.89 553.021 634.91 548.698L631.748 549.235C632.16 551.18 631.493 552.474 629.964 552.947C627.747 553.631 626.238 552.674 625.276 549.559C624.308 546.425 624.909 544.712 627.202 544.003ZM650.231 549.345L641.097 537.054L637.504 538.163L636.931 553.453L639.893 552.538L639.973 549.478L645.152 547.879L646.944 550.361L650.231 549.345ZM643.532 545.616L639.997 546.708L640.15 540.967L643.532 545.616ZM651.565 548.933L654.642 547.983L651.425 537.569L651.521 537.539L658.177 546.891L660.489 546.177L660.579 534.742L660.674 534.712L663.891 545.127L666.987 544.171L662.725 530.374L658.024 531.825L657.785 541.486L652.101 533.655L647.304 535.136L651.565 548.933ZM677.062 533.502C677.918 536.273 677.258 538.34 674.87 539.077C672.481 539.815 670.752 538.486 669.896 535.715C669.046 532.964 669.719 530.872 672.108 530.134C674.496 529.396 676.212 530.75 677.062 533.502ZM675.702 541.772C677.823 541.117 679.279 539.934 680.057 538.25C680.847 536.54 680.909 534.638 680.253 532.517C679.598 530.395 678.475 528.859 676.864 527.912C675.266 526.94 673.397 526.785 671.275 527.44C669.135 528.101 667.679 529.283 666.889 530.993C666.111 532.677 666.05 534.58 666.705 536.701C667.36 538.822 668.484 540.359 670.081 541.331C671.693 542.277 673.562 542.433 675.702 541.772ZM685.444 531.688L687.183 531.151C689.017 530.584 690.129 530.932 690.519 532.193C690.843 533.244 690.331 534.365 688.955 534.79L686.624 535.51L685.444 531.688ZM689.535 522.094L679.999 525.039L684.26 538.836L690.05 537.047C693.05 536.121 694.483 533.983 693.633 531.231C692.784 528.479 690.427 527.491 687.389 528.429L684.694 529.261L683.933 526.796L690.373 524.807L689.535 522.094ZM704.255 517.547L708.516 531.344L711.612 530.388L707.351 516.591L704.255 517.547ZM697.781 527.354L699.997 526.67C701.45 526.221 702.421 526.926 702.775 528.073C703.111 529.162 702.579 530.352 701.26 530.759L699.044 531.444L697.781 527.354ZM695.579 520.227L692.484 521.183L696.745 534.98L702.21 533.292C703.681 532.837 704.775 532.039 705.464 530.884C706.173 529.723 706.315 528.486 705.896 527.13C705.465 525.735 704.639 524.755 703.418 524.19C702.216 523.619 700.863 523.577 699.353 524.043L696.984 524.775L695.579 520.227ZM709.573 518.877L713.93 517.531L717.353 528.615L720.449 527.659L717.026 516.575L721.363 515.236L720.525 512.522L708.735 516.164L709.573 518.877ZM733.066 517.503L734.83 523.217L737.926 522.261L733.665 508.464L730.569 509.42L732.228 514.79L726.667 516.507L725.008 511.137L721.913 512.094L726.174 525.89L729.27 524.934L727.505 519.221L733.066 517.503ZM747.736 504.118L751.997 517.915L755.093 516.959L750.832 503.162L747.736 504.118ZM741.262 513.925L743.479 513.241C744.931 512.792 745.902 513.497 746.256 514.643C746.593 515.733 746.06 516.923 744.742 517.33L742.525 518.015L741.262 513.925ZM739.06 506.797L735.965 507.754L740.226 521.55L745.691 519.863C747.163 519.408 748.256 518.61 748.946 517.455C749.655 516.294 749.796 515.057 749.377 513.7C748.946 512.305 748.12 511.326 746.899 510.761C745.697 510.19 744.344 510.147 742.835 510.614L740.465 511.345L739.06 506.797ZM754.338 498.353C754.928 500.264 756.465 500.836 758.968 500.063C761.472 499.29 762.419 497.951 761.829 496.04L759.52 496.564C759.81 497.5 759.46 498.132 758.467 498.438C757.473 498.745 756.829 498.421 756.539 497.485L754.338 498.353ZM763.552 504.466L766.338 513.486L769.433 512.53L765.172 498.733L761.79 499.777L759.015 510.515L756.229 501.495L753.133 502.451L757.394 516.248L760.777 515.203L763.552 504.466Z" fill="black"/>
<path d="M973.595 411.909C974.376 416.989 974.485 419.542 974.155 420.422C973.998 420.851 973.693 421.101 973.258 421.167C972.863 421.228 972.517 421.221 972.203 421.148L972.259 423.749C972.832 423.924 973.466 423.968 974.158 423.862C975.878 423.598 976.899 422.611 977.221 420.882C977.542 419.153 977.361 416.004 976.682 411.454L980.774 410.825L982.536 422.291L985.739 421.798L983.545 407.526L973.167 409.121L973.595 411.909ZM992.382 414.727C992.888 416.571 993.811 417.967 995.19 418.909C996.569 419.85 998.256 420.158 1000.25 419.851C1002.45 419.513 1004.06 418.557 1005.08 417.005C1006.11 415.43 1006.45 413.556 1006.11 411.362C1005.77 409.168 1004.89 407.483 1003.43 406.31C1001.99 405.115 1000.17 404.687 997.973 405.025C996.056 405.32 994.596 406.09 993.554 407.343C992.529 408.573 992.016 410.109 991.99 411.914L989.974 412.224L989.12 406.669L985.918 407.161L988.112 421.434L991.314 420.941L990.405 415.031L992.382 414.727ZM1002.81 411.869C1003.25 414.736 1002.29 416.684 999.824 417.063C997.353 417.443 995.837 415.875 995.396 413.009C994.959 410.162 995.931 408.192 998.401 407.812C1000.87 407.432 1002.37 409.023 1002.81 411.869ZM1011.37 411.302L1013.17 411.025C1015.07 410.734 1016.12 411.24 1016.32 412.545C1016.48 413.632 1015.81 414.666 1014.39 414.885L1011.98 415.255L1011.37 411.302ZM1016.82 402.41L1006.96 403.927L1009.15 418.199L1015.14 417.278C1018.25 416.801 1019.98 414.896 1019.54 412.049C1019.1 409.203 1016.92 407.88 1013.77 408.363L1010.99 408.791L1010.59 406.241L1017.26 405.217L1016.82 402.41ZM1031.23 407.5C1031.67 410.367 1030.72 412.314 1028.25 412.694C1025.77 413.074 1024.26 411.506 1023.82 408.64C1023.38 405.793 1024.35 403.823 1026.82 403.443C1029.29 403.063 1030.79 404.654 1031.23 407.5ZM1028.67 415.482C1030.87 415.144 1032.48 414.188 1033.5 412.636C1034.53 411.06 1034.87 409.187 1034.53 406.993C1034.19 404.799 1033.31 403.114 1031.85 401.941C1030.42 400.746 1028.59 400.318 1026.39 400.656C1024.18 400.996 1022.57 401.952 1021.53 403.527C1020.52 405.08 1020.18 406.953 1020.52 409.147C1020.85 411.342 1021.74 413.026 1023.18 414.222C1024.63 415.394 1026.46 415.822 1028.67 415.482ZM1044.76 400.989L1046.52 412.454L1049.73 411.962L1047.53 397.689L1035.38 399.558L1037.57 413.831L1040.77 413.338L1039.01 401.873L1044.76 400.989ZM1062.09 395.452L1064.28 409.724L1067.49 409.232L1065.29 394.96L1062.09 395.452ZM1054.25 404.205L1056.54 403.852C1058.04 403.621 1058.9 404.461 1059.08 405.647C1059.26 406.774 1058.56 407.873 1057.19 408.083L1054.9 408.435L1054.25 404.205ZM1053.11 396.831L1049.91 397.324L1052.11 411.596L1057.76 410.727C1059.28 410.493 1060.48 409.864 1061.33 408.822C1062.2 407.778 1062.52 406.575 1062.31 405.171C1062.09 403.728 1061.41 402.638 1060.29 401.9C1059.18 401.16 1057.85 400.919 1056.29 401.159L1053.84 401.536L1053.11 396.831ZM1067.15 397.546L1071.66 396.854L1073.42 408.319L1076.63 407.827L1074.86 396.361L1079.35 395.671L1078.92 392.864L1066.72 394.739L1067.15 397.546ZM1090.6 399.629L1091.5 405.54L1094.71 405.047L1092.51 390.775L1089.31 391.267L1090.16 396.822L1084.41 397.706L1083.56 392.152L1080.36 392.644L1082.55 406.916L1085.75 406.424L1084.84 400.513L1090.6 399.629ZM1107.07 388.537L1109.26 402.81L1112.46 402.317L1110.27 388.045L1107.07 388.537ZM1099.23 397.29L1101.52 396.938C1103.02 396.707 1103.88 397.546 1104.06 398.732C1104.24 399.859 1103.53 400.958 1102.17 401.168L1099.88 401.521L1099.23 397.29ZM1098.09 389.917L1094.89 390.409L1097.09 404.682L1102.74 403.812C1104.26 403.579 1105.46 402.949 1106.31 401.908C1107.18 400.863 1107.5 399.66 1107.29 398.257C1107.07 396.814 1106.39 395.723 1105.27 394.986C1104.16 394.245 1102.83 394.005 1101.27 394.245L1098.82 394.622L1098.09 389.917ZM1114.44 383.802C1114.75 385.779 1116.18 386.569 1118.77 386.171C1121.36 385.773 1122.5 384.587 1122.19 382.611L1119.83 382.791C1119.98 383.76 1119.54 384.333 1118.52 384.491C1117.49 384.649 1116.9 384.234 1116.75 383.265L1114.44 383.802ZM1122.66 391.199L1124.1 400.529L1127.3 400.037L1125.11 385.765L1121.61 386.302L1117.29 396.517L1115.85 387.187L1112.65 387.679L1114.85 401.951L1118.34 401.414L1122.66 391.199Z" fill="black"/>
<path d="M268.948 673.286L271.216 681.522L263.382 677.431L260.591 679.509L270.681 684.588C271.256 684.858 271.679 685.192 271.966 685.577C272.312 686.042 272.255 686.434 271.822 686.756C271.501 686.995 271.085 686.905 270.847 686.585C270.62 686.28 270.477 685.987 270.378 685.687L268.485 687.097C268.583 687.597 268.754 687.993 268.993 688.314C269.936 689.582 271.403 689.811 272.943 688.664C274.291 687.561 274.766 686.758 274.695 685.29C274.673 684.758 274.615 684.278 274.532 683.865C274.449 683.453 274.307 682.861 274.13 682.12L271.467 671.411L268.948 673.286ZM282.048 673.83C283.268 672.922 284.399 673.002 285.08 673.916C285.785 674.862 285.601 675.922 284.398 676.818L282.393 678.311L280.124 675.263L282.048 673.83ZM281.216 682.155L286.14 678.488C287.376 677.568 288.155 676.539 288.491 675.416C288.827 674.293 288.627 673.22 287.874 672.21C286.739 670.686 285.009 670.304 283.017 671.413C284.145 670.149 284.207 668.457 283.239 667.158C281.854 665.297 279.537 665.401 276.955 667.324L272.592 670.573L281.216 682.155ZM278.232 669.34C279.387 668.48 280.302 668.672 280.923 669.506C281.544 670.34 281.477 671.288 280.322 672.148L278.702 673.354L276.612 670.547L278.232 669.34ZM286.314 663.871C289.384 667.993 290.676 670.198 290.797 671.13C290.86 671.582 290.706 671.946 290.353 672.209C290.033 672.448 289.724 672.602 289.412 672.685L290.68 674.958C291.268 674.844 291.849 674.586 292.411 674.168C293.806 673.129 294.247 671.778 293.721 670.1C293.195 668.422 291.56 665.725 288.829 662.023L292.149 659.551L299.077 668.855L301.676 666.92L293.052 655.338L284.63 661.609L286.314 663.871ZM307.345 655.242L305.649 652.965L300.932 656.476L299.272 654.247L304.919 650.042L303.222 647.764L294.977 653.904L303.601 665.486L311.863 659.334L310.178 657.072L304.516 661.289L302.629 658.754L307.345 655.242ZM313.782 639.901L311.184 641.836L314.958 646.905C314.303 647.867 313.636 648.612 312.931 649.138C311.711 650.046 310.751 650.162 309.76 648.831L306.917 645.013L304.318 646.948L307.161 650.766C309.108 653.381 311.327 653.748 313.492 652.136C314.824 651.144 315.835 650.092 316.499 648.974L319.808 653.418L322.407 651.483L313.782 639.901ZM328.07 639.81L326.374 637.532L321.658 641.044L319.997 638.814L325.644 634.609L323.947 632.332L315.702 638.471L324.327 650.053L332.588 643.901L330.904 641.64L325.241 645.856L323.354 643.322L328.07 639.81ZM337.844 632.532L341.415 637.328L344.014 635.393L335.39 623.811L332.791 625.746L336.148 630.254L331.48 633.73L328.123 629.222L325.524 631.157L334.149 642.739L336.747 640.804L333.176 636.008L337.844 632.532ZM349.64 623.748L353.211 628.544L355.81 626.609L347.186 615.027L344.587 616.963L347.943 621.47L343.276 624.946L339.919 620.439L337.32 622.374L345.945 633.955L348.543 632.02L344.972 627.224L349.64 623.748ZM358.998 606.232L367.622 617.814L370.22 615.879L361.596 604.297L358.998 606.232ZM356.17 617.638L358.031 616.253C359.25 615.345 360.401 615.685 361.118 616.647C361.799 617.562 361.694 618.861 360.587 619.685L358.727 621.071L356.17 617.638ZM351.715 611.655L349.116 613.59L357.74 625.172L362.328 621.755C363.563 620.836 364.327 619.718 364.592 618.399C364.872 617.068 364.593 615.855 363.744 614.716C362.872 613.545 361.767 612.897 360.427 612.773C359.104 612.636 357.814 613.048 356.547 613.991L354.558 615.473L351.715 611.655ZM363.295 598.593C364.489 600.197 366.129 600.223 368.231 598.658C370.332 597.094 370.778 595.515 369.583 593.911L367.583 595.176C368.168 595.962 368.05 596.674 367.215 597.295C366.381 597.916 365.666 597.825 365.08 597.039L363.295 598.593ZM374.022 601.278L379.66 608.85L382.258 606.915L373.634 595.333L370.795 597.447L371.765 608.495L366.127 600.923L363.528 602.858L372.152 614.44L374.992 612.326L374.022 601.278Z" fill="black"/>
</svg>
