<svg width="784" height="248" viewBox="0 0 784 248" fill="none" xmlns="http://www.w3.org/2000/svg">
<circle cx="124" cy="124" r="123.5" stroke="#ECE1CF"/>
<line x1="124.5" x2="124.5" y2="248" stroke="#ECE1CF"/>
<line x1="248" y1="124.5" x2="-4.37114e-08" y2="124.5" stroke="#ECE1CF"/>
<line x1="212.088" y1="36.7266" x2="36.7254" y2="212.089" stroke="#ECE1CF"/>
<line x1="211.381" y1="212.09" x2="36.0183" y2="36.7274" stroke="#ECE1CF"/>
<path d="M139.943 125.146C139.943 128.012 138.253 130.662 135.409 132.616C132.567 134.569 128.613 135.793 124.221 135.793C119.83 135.793 115.876 134.569 113.034 132.616C110.19 130.662 108.5 128.012 108.5 125.146C108.5 122.281 110.19 119.631 113.034 117.677C115.876 115.724 119.83 114.5 124.221 114.5C128.613 114.5 132.567 115.724 135.409 117.677C138.253 119.631 139.943 122.281 139.943 125.146Z" stroke="#ECE1CF"/>
<path d="M127.392 125.146C127.392 128.186 126.985 130.917 126.342 132.872C126.019 133.851 125.646 134.608 125.255 135.11C124.86 135.617 124.506 135.793 124.221 135.793C123.936 135.793 123.582 135.617 123.187 135.11C122.797 134.608 122.423 133.851 122.101 132.872C121.457 130.917 121.051 128.186 121.051 125.146C121.051 122.107 121.457 119.375 122.101 117.421C122.423 116.441 122.797 115.685 123.187 115.183C123.582 114.675 123.936 114.5 124.221 114.5C124.506 114.5 124.86 114.675 125.255 115.183C125.646 115.685 126.019 116.441 126.342 117.421C126.985 119.375 127.392 122.107 127.392 125.146Z" fill="#ECE1CF" stroke="#ECE1CF"/>
<circle cx="392" cy="124" r="123.5" stroke="#ECE1CF"/>
<line x1="392.5" x2="392.5" y2="248" stroke="#ECE1CF"/>
<line x1="516" y1="124.5" x2="268" y2="124.5" stroke="#ECE1CF"/>
<line x1="480.088" y1="36.7266" x2="304.725" y2="212.089" stroke="#ECE1CF"/>
<line x1="479.381" y1="212.09" x2="304.018" y2="36.7274" stroke="#ECE1CF"/>
<path d="M407.943 125.146C407.943 128.012 406.253 130.662 403.409 132.616C400.567 134.569 396.613 135.793 392.221 135.793C387.83 135.793 383.876 134.569 381.034 132.616C378.19 130.662 376.5 128.012 376.5 125.146C376.5 122.281 378.19 119.631 381.034 117.677C383.876 115.724 387.83 114.5 392.221 114.5C396.613 114.5 400.567 115.724 403.409 117.677C406.253 119.631 407.943 122.281 407.943 125.146Z" stroke="#ECE1CF"/>
<path d="M395.392 125.146C395.392 128.186 394.985 130.917 394.342 132.872C394.019 133.851 393.646 134.608 393.255 135.11C392.86 135.617 392.506 135.793 392.221 135.793C391.936 135.793 391.582 135.617 391.187 135.11C390.797 134.608 390.423 133.851 390.101 132.872C389.457 130.917 389.051 128.186 389.051 125.146C389.051 122.107 389.457 119.375 390.101 117.421C390.423 116.441 390.797 115.685 391.187 115.183C391.582 114.675 391.936 114.5 392.221 114.5C392.506 114.5 392.86 114.675 393.255 115.183C393.646 115.685 394.019 116.441 394.342 117.421C394.985 119.375 395.392 122.107 395.392 125.146Z" fill="#ECE1CF" stroke="#ECE1CF"/>
<mask id="path-15-inside-1_796_2680" fill="white">
<path fill-rule="evenodd" clip-rule="evenodd" d="M350.507 174.234C349.553 173.441 348.735 172.617 348.043 171.819C346.975 170.96 345.809 169.853 344.703 168.458C343.725 169.647 341.89 171.407 339.199 172.418L339.174 172.426C337.916 172.86 332.608 174.688 328.096 171.271C324.171 168.36 323.658 163.585 323.555 162.626L323.554 162.618C322.949 157.51 325.573 153.861 326.178 153.131C324.967 153.34 323.05 153.548 320.829 153.131C319.719 152.923 316.59 152.297 314.369 150.004C313.073 148.665 312.776 147.498 312.248 145.426C311.954 144.272 311.588 142.836 310.938 140.934C310.13 138.64 308.919 135.304 307.102 132.698C305.689 130.717 302.661 127.486 296 125.609C305.79 122.169 308.616 118.103 309.323 114.975C309.497 114.077 309.527 113.215 309.558 112.331C309.616 110.651 309.678 108.889 310.736 106.635C312.063 103.795 314.103 102.151 315.517 101.012C315.608 100.938 315.697 100.867 315.783 100.797C319.618 97.7737 323.554 96.8357 326.078 96.4187C325.472 95.8971 321.435 91.5187 322.242 85.7848C323.151 79.4255 329.61 75.2555 335.565 75.5682C341.419 75.9852 344.952 80.7808 345.456 81.5106C346.54 79.7351 347.804 78.1525 349.198 76.788C348.224 75.7159 347.16 74.204 346.461 72.2523L346.453 72.2269C346.03 70.9385 344.245 65.5007 347.581 60.8791C350.421 56.8591 355.083 56.333 356.019 56.2273L356.027 56.2264C361.014 55.606 364.576 58.2942 365.288 58.9146C365.085 57.6739 364.882 55.7094 365.288 53.4348C365.492 52.2975 366.102 49.0922 368.341 46.8176C369.648 45.4897 370.788 45.1851 372.81 44.6443C373.937 44.3429 375.338 43.9682 377.195 43.3022C379.434 42.475 382.691 41.2343 385.235 39.3733C387.169 37.9258 390.323 34.824 392.155 28C395.514 38.0292 399.482 40.9242 402.536 41.6479C403.413 41.8261 404.254 41.8569 405.117 41.8885C406.757 41.9485 408.477 42.0114 410.677 43.0954C413.449 44.455 415.054 46.5442 416.166 47.9924C416.238 48.0861 416.308 48.1772 416.376 48.2651C419.328 52.1941 420.243 56.2264 420.651 58.8112C421.16 58.1908 425.434 54.0551 431.031 54.8823C437.239 55.8128 441.31 62.43 441.004 68.5302C440.663 73.5558 437.32 76.9112 435.827 78.1706C436.415 78.8474 436.974 79.567 437.498 80.3268C437.841 80.6076 438.174 80.8962 438.497 81.1921C439.477 79.8935 442.87 75.9449 448.157 75.5682C454.113 75.2555 460.572 79.4255 461.481 85.7848C462.288 91.5187 458.251 95.8971 457.645 96.4187C460.168 96.8357 464.104 97.7737 467.94 100.797L468.086 100.915L468.205 101.012C469.619 102.151 471.659 103.795 472.987 106.635C474.045 108.89 474.106 110.652 474.165 112.332V112.333V112.333V112.333C474.196 113.216 474.226 114.077 474.399 114.975C475.106 118.103 477.932 122.169 487.723 125.609C481.061 127.486 478.033 130.717 476.62 132.698C474.803 135.304 473.592 138.64 472.785 140.934C472.135 142.836 471.769 144.272 471.475 145.426L471.474 145.427L471.474 145.427C470.947 147.498 470.649 148.665 469.353 150.004C467.133 152.297 464.004 152.923 462.893 153.131C460.673 153.548 458.755 153.34 457.544 153.131C458.15 153.861 460.774 157.51 460.168 162.618L460.167 162.626C460.064 163.584 459.551 168.36 455.626 171.271C451.115 174.688 445.806 172.859 444.549 172.426L444.524 172.418C442.577 171.686 441.079 170.563 440.028 169.548C438.649 171.069 437.031 172.445 435.203 173.615C435.916 174.132 440.597 177.751 441.004 183.748C441.31 189.848 437.239 196.465 431.031 197.395C425.434 198.223 421.16 194.087 420.651 193.467C420.243 196.051 419.328 200.083 416.376 204.013C416.348 204.049 416.32 204.085 416.292 204.122C416.251 204.176 416.209 204.23 416.167 204.285C415.054 205.733 413.45 207.823 410.677 209.183C408.476 210.267 406.756 210.329 405.116 210.389C404.254 210.421 403.413 210.452 402.536 210.63C399.482 211.354 395.514 214.249 392.155 224.278C390.323 217.454 387.169 214.352 385.235 212.905C382.691 211.043 379.434 209.803 377.195 208.975C375.338 208.31 373.937 207.935 372.81 207.634C370.788 207.093 369.648 206.788 368.341 205.46C366.102 203.185 365.492 199.98 365.288 198.843C364.882 196.568 365.085 194.604 365.288 193.363C364.576 193.983 361.014 196.672 356.027 196.051L356.02 196.05C355.088 195.946 350.423 195.421 347.581 191.399C344.244 186.777 346.03 181.339 346.453 180.051L346.461 180.026C347.501 177.121 349.352 175.19 350.507 174.234Z"/>
</mask>
<path d="M348.043 171.819L348.798 171.163L348.739 171.096L348.669 171.039L348.043 171.819ZM350.507 174.234L351.145 175.004L352.074 174.235L351.146 173.464L350.507 174.234ZM344.703 168.458L345.486 167.837L344.717 166.867L343.931 167.823L344.703 168.458ZM339.199 172.418L339.525 173.363L339.538 173.359L339.55 173.354L339.199 172.418ZM339.174 172.426L339.5 173.372L339.5 173.372L339.174 172.426ZM328.096 171.271L328.7 170.474L328.692 170.468L328.096 171.271ZM323.555 162.626L324.549 162.519L324.549 162.519L323.555 162.626ZM323.554 162.618L324.549 162.511L324.547 162.5L323.554 162.618ZM326.178 153.131L326.948 153.77L328.676 151.687L326.009 152.146L326.178 153.131ZM320.829 153.131L320.644 154.114L320.645 154.114L320.829 153.131ZM314.369 150.004L313.651 150.699L313.651 150.699L314.369 150.004ZM312.248 145.426L311.279 145.673L312.248 145.426ZM310.938 140.934L311.884 140.61L311.881 140.602L310.938 140.934ZM307.102 132.698L307.923 132.126L307.917 132.117L307.102 132.698ZM296 125.609L295.668 124.666L292.685 125.714L295.729 126.571L296 125.609ZM309.323 114.975L310.298 115.195L310.302 115.18L310.305 115.165L309.323 114.975ZM309.558 112.331L310.557 112.366L309.558 112.331ZM310.736 106.635L311.641 107.06L311.642 107.059L310.736 106.635ZM315.517 101.012L314.889 100.233L314.889 100.233L315.517 101.012ZM315.783 100.797L315.163 100.012L315.158 100.016L315.152 100.021L315.783 100.797ZM326.078 96.4187L326.241 97.4053L328.351 97.0567L326.73 95.661L326.078 96.4187ZM322.242 85.7848L321.252 85.6434L321.252 85.6453L322.242 85.7848ZM335.565 75.5682L335.636 74.5707L335.627 74.5701L335.618 74.5696L335.565 75.5682ZM345.456 81.5106L344.634 82.0794L345.509 83.3447L346.31 82.0314L345.456 81.5106ZM349.198 76.788L349.898 77.5027L350.587 76.8288L349.939 76.1156L349.198 76.788ZM346.461 72.2523L345.511 72.5642L345.515 72.5768L345.52 72.5893L346.461 72.2523ZM346.453 72.2269L347.403 71.915V71.915L346.453 72.2269ZM347.581 60.8791L348.391 61.4644L348.397 61.4562L347.581 60.8791ZM356.019 56.2273L356.131 57.221L356.131 57.221L356.019 56.2273ZM356.027 56.2264L356.14 57.2201L356.151 57.2187L356.027 56.2264ZM365.288 58.9146L364.631 59.6687L366.724 61.4907L366.275 58.7529L365.288 58.9146ZM365.288 53.4348L364.304 53.2583L364.304 53.2588L365.288 53.4348ZM368.341 46.8176L369.054 47.5191L369.054 47.5191L368.341 46.8176ZM372.81 44.6443L373.068 45.6103L372.81 44.6443ZM377.195 43.3022L377.533 44.2436L377.542 44.2402L377.195 43.3022ZM385.235 39.3733L385.825 40.1804L385.834 40.1738L385.235 39.3733ZM392.155 28L393.104 27.6824L392.05 24.5359L391.19 27.7407L392.155 28ZM402.536 41.6479L402.305 42.621L402.321 42.6247L402.337 42.6279L402.536 41.6479ZM405.117 41.8885L405.08 42.8878L405.117 41.8885ZM410.677 43.0954L410.235 43.9925L410.237 43.9932L410.677 43.0954ZM416.166 47.9924L416.959 47.3833H416.959L416.166 47.9924ZM416.376 48.2651L417.176 47.6644L417.167 47.6533L416.376 48.2651ZM420.651 58.8112L419.663 58.9668L420.01 61.1688L421.424 59.4456L420.651 58.8112ZM431.031 54.8823L431.179 53.8933L431.177 53.893L431.031 54.8823ZM441.004 68.5302L442.002 68.598L442.003 68.5891L442.003 68.5802L441.004 68.5302ZM435.827 78.1706L435.182 77.4061L434.406 78.0605L435.072 78.8266L435.827 78.1706ZM437.498 80.3268L436.675 80.8946L436.755 81.011L436.865 81.1006L437.498 80.3268ZM438.497 81.1921L437.822 81.9296L438.633 82.6725L439.296 81.7942L438.497 81.1921ZM448.157 75.5682L448.105 74.5696L448.096 74.5701L448.086 74.5707L448.157 75.5682ZM461.481 85.7848L462.471 85.6454L462.471 85.6433L461.481 85.7848ZM457.645 96.4187L456.992 95.6611L455.372 97.0567L457.482 97.4053L457.645 96.4187ZM467.94 100.797L468.569 100.02L468.559 100.012L467.94 100.797ZM468.086 100.915L467.457 101.693L467.458 101.694L468.086 100.915ZM468.205 101.012L467.578 101.79L467.578 101.79L468.205 101.012ZM472.987 106.635L472.081 107.059L472.081 107.06L472.987 106.635ZM474.165 112.332H475.165V112.315L475.164 112.298L474.165 112.332ZM474.165 112.333H473.165V112.35L473.166 112.368L474.165 112.333ZM474.399 114.975L473.418 115.165L473.421 115.18L473.424 115.195L474.399 114.975ZM487.723 125.609L487.994 126.571L491.038 125.714L488.054 124.666L487.723 125.609ZM476.62 132.698L475.806 132.117L475.8 132.126L476.62 132.698ZM472.785 140.934L471.842 140.602L471.839 140.61L472.785 140.934ZM471.475 145.426L472.436 145.701L472.44 145.687L472.444 145.673L471.475 145.426ZM471.474 145.427L470.513 145.152L470.505 145.181L470.498 145.21L471.474 145.427ZM471.474 145.427L472.443 145.674L472.447 145.659L472.451 145.644L471.474 145.427ZM469.353 150.004L470.072 150.699L470.072 150.699L469.353 150.004ZM462.893 153.131L463.078 154.114L463.078 154.114L462.893 153.131ZM457.544 153.131L457.714 152.146L455.047 151.687L456.775 153.77L457.544 153.131ZM460.168 162.618L459.175 162.5L459.174 162.512L460.168 162.618ZM460.167 162.626L461.162 162.733L461.162 162.732L460.167 162.626ZM455.626 171.271L455.03 170.468L455.022 170.474L455.626 171.271ZM444.549 172.426L444.222 173.372L444.223 173.372L444.549 172.426ZM444.524 172.418L444.172 173.354L444.185 173.359L444.198 173.363L444.524 172.418ZM440.028 169.548L440.723 168.829L439.981 168.112L439.288 168.876L440.028 169.548ZM435.203 173.615L434.664 172.773L433.429 173.564L434.616 174.425L435.203 173.615ZM441.004 183.748L442.003 183.698L442.003 183.689L442.002 183.68L441.004 183.748ZM431.031 197.395L431.177 198.385L431.179 198.384L431.031 197.395ZM420.651 193.467L421.424 192.832L420.01 191.109L419.663 193.311L420.651 193.467ZM416.376 204.013L417.167 204.625L417.176 204.613L416.376 204.013ZM416.292 204.122L415.5 203.512L415.499 203.512L416.292 204.122ZM416.167 204.285L416.96 204.894L416.96 204.894L416.167 204.285ZM410.677 209.183L410.237 208.285L410.235 208.285L410.677 209.183ZM405.116 210.389L405.08 209.39H405.08L405.116 210.389ZM402.536 210.63L402.337 209.65L402.321 209.653L402.305 209.657L402.536 210.63ZM392.155 224.278L391.19 224.537L392.05 227.742L393.104 224.595L392.155 224.278ZM385.235 212.905L385.834 212.104L385.825 212.098L385.235 212.905ZM377.195 208.975L377.542 208.037L377.533 208.034L377.195 208.975ZM372.81 207.634L373.069 206.667H373.069L372.81 207.634ZM368.341 205.46L367.629 206.162L367.629 206.162L368.341 205.46ZM365.288 198.843L364.304 199.019L364.304 199.019L365.288 198.843ZM365.288 193.363L366.275 193.525L366.723 190.787L364.631 192.609L365.288 193.363ZM356.027 196.051L356.151 195.059L356.139 195.057L356.027 196.051ZM356.02 196.05L356.132 195.057L356.132 195.057L356.02 196.05ZM347.581 191.399L348.397 190.821L348.391 190.813L347.581 191.399ZM346.453 180.051L345.503 179.739L346.453 180.051ZM346.461 180.026L345.52 179.689L345.515 179.701L345.511 179.714L346.461 180.026ZM347.287 172.474C348.012 173.309 348.868 174.172 349.868 175.003L351.146 173.464C350.237 172.709 349.459 171.925 348.798 171.163L347.287 172.474ZM343.919 169.08C345.078 170.54 346.298 171.7 347.416 172.598L348.669 171.039C347.651 170.221 346.54 169.166 345.486 167.837L343.919 169.08ZM339.55 173.354C342.455 172.263 344.425 170.37 345.475 169.094L343.931 167.823C343.025 168.923 341.325 170.551 338.847 171.482L339.55 173.354ZM339.5 173.372L339.525 173.363L338.873 171.473L338.848 171.481L339.5 173.372ZM327.492 172.068C332.464 175.833 338.263 173.798 339.5 173.372L338.848 171.481C337.57 171.921 332.752 173.543 328.7 170.474L327.492 172.068ZM322.561 162.733C322.664 163.697 323.199 168.885 327.5 172.074L328.692 170.468C325.143 167.836 324.652 163.472 324.549 162.519L322.561 162.733ZM322.56 162.725L322.561 162.733L324.549 162.519L324.548 162.511L322.56 162.725ZM325.409 152.493C324.723 153.319 321.909 157.236 322.561 162.736L324.547 162.5C323.988 157.783 326.422 154.404 326.948 153.77L325.409 152.493ZM320.645 154.114C323.025 154.561 325.073 154.336 326.348 154.117L326.009 152.146C324.862 152.343 323.074 152.535 321.014 152.148L320.645 154.114ZM313.651 150.699C316.11 153.24 319.528 153.904 320.644 154.114L321.014 152.149C319.91 151.941 317.07 151.355 315.088 149.308L313.651 150.699ZM311.279 145.673C311.804 147.735 312.15 149.148 313.651 150.699L315.088 149.308C313.997 148.181 313.747 147.261 313.217 145.179L311.279 145.673ZM309.992 141.257C310.628 143.12 310.986 144.523 311.279 145.673L313.217 145.179C312.922 144.02 312.548 142.553 311.884 140.61L309.992 141.257ZM306.282 133.27C308.01 135.749 309.183 138.96 309.995 141.266L311.881 140.602C311.078 138.32 309.828 134.86 307.923 132.126L306.282 133.27ZM295.729 126.571C302.147 128.38 304.992 131.462 306.288 133.279L307.917 132.117C306.386 129.972 303.176 126.591 296.271 124.646L295.729 126.571ZM308.348 114.755C307.749 117.406 305.299 121.281 295.668 124.666L296.332 126.552C306.282 123.056 309.484 118.799 310.298 115.195L308.348 114.755ZM308.558 112.297C308.527 113.191 308.498 113.975 308.341 114.785L310.305 115.165C310.496 114.178 310.527 113.24 310.557 112.366L308.558 112.297ZM309.831 106.21C308.681 108.66 308.618 110.597 308.558 112.297L310.557 112.366C310.615 110.706 310.675 109.119 311.641 107.06L309.831 106.21ZM314.889 100.233C313.469 101.378 311.263 103.145 309.83 106.212L311.642 107.059C312.863 104.446 314.736 102.925 316.144 101.791L314.889 100.233ZM315.152 100.021C315.068 100.089 314.981 100.16 314.889 100.233L316.144 101.791C316.235 101.717 316.325 101.644 316.413 101.574L315.152 100.021ZM325.914 95.4321C323.313 95.8621 319.187 96.8399 315.163 100.012L316.402 101.582C320.049 98.7075 323.796 97.8093 326.241 97.4053L325.914 95.4321ZM321.252 85.6453C320.81 88.7821 321.697 91.524 322.744 93.5208C323.784 95.503 325.022 96.8291 325.425 97.1764L326.73 95.661C326.528 95.4867 325.444 94.3629 324.516 92.5919C323.595 90.8356 322.867 88.5213 323.232 85.9242L321.252 85.6453ZM335.618 74.5696C329.256 74.2355 322.248 78.6688 321.252 85.6434L323.232 85.9262C324.053 80.1822 329.964 76.2754 335.513 76.5668L335.618 74.5696ZM346.279 80.9418C345.754 80.1827 341.985 75.023 335.636 74.5707L335.494 76.5657C340.853 76.9475 344.149 81.3789 344.634 82.0794L346.279 80.9418ZM348.499 76.0732C347.044 77.4966 345.728 79.1445 344.603 80.9898L346.31 82.0314C347.351 80.3256 348.564 78.8084 349.898 77.5027L348.499 76.0732ZM345.52 72.5893C346.272 74.69 347.416 76.3127 348.458 77.4604L349.939 76.1156C349.033 75.119 348.048 73.718 347.403 71.9154L345.52 72.5893ZM345.503 72.5388L345.511 72.5642L347.411 71.9404L347.403 71.915L345.503 72.5388ZM346.77 60.2938C343.11 65.3636 345.087 71.2711 345.503 72.5388L347.403 71.915C346.973 70.6059 345.379 65.6378 348.391 61.4644L346.77 60.2938ZM355.906 55.2336C354.955 55.341 349.878 55.8947 346.764 60.302L348.397 61.4562C350.964 57.8235 355.21 57.3249 356.131 57.221L355.906 55.2336ZM355.915 55.2327L355.906 55.2337L356.131 57.221L356.14 57.22L355.915 55.2327ZM365.945 58.1605C365.141 57.4607 361.302 54.5625 355.904 55.234L356.151 57.2187C360.726 56.6496 364.01 59.1278 364.631 59.6687L365.945 58.1605ZM364.304 53.2588C363.87 55.6864 364.088 57.7745 364.301 59.0763L366.275 58.7529C366.082 57.5733 365.893 55.7324 366.273 53.6107L364.304 53.2588ZM367.629 46.1161C365.154 48.6306 364.508 52.1198 364.304 53.2583L366.272 53.6112C366.476 52.4751 367.051 49.5539 369.054 47.5191L367.629 46.1161ZM372.552 43.6782C370.535 44.2174 369.146 44.5741 367.629 46.1162L369.054 47.5191C370.15 46.4053 371.04 46.1528 373.068 45.6103L372.552 43.6782ZM376.858 42.3609C375.042 43.0122 373.674 43.3782 372.552 43.6782L373.068 45.6103C374.2 45.3076 375.635 44.9242 377.533 44.2435L376.858 42.3609ZM384.644 38.5662C382.229 40.3335 379.099 41.5328 376.849 42.3642L377.542 44.2402C379.769 43.4173 383.153 42.1352 385.825 40.1803L384.644 38.5662ZM391.19 27.7407C389.42 34.3312 386.405 37.2484 384.636 38.5727L385.834 40.1738C387.933 38.6031 391.227 35.3168 393.121 28.2593L391.19 27.7407ZM402.766 40.6749C400.204 40.0674 396.414 37.5689 393.104 27.6824L391.207 28.3176C394.614 38.4895 398.761 41.781 402.305 42.621L402.766 40.6749ZM405.153 40.8892C404.28 40.8572 403.519 40.8273 402.735 40.6679L402.337 42.6279C403.307 42.825 404.228 42.8566 405.08 42.8878L405.153 40.8892ZM411.119 42.1983C408.717 41.0151 406.815 40.95 405.153 40.8892L405.08 42.8878C406.698 42.947 408.236 43.0078 410.235 43.9925L411.119 42.1983ZM416.959 47.3833C415.845 45.9321 414.119 43.6694 411.118 42.1976L410.237 43.9932C412.78 45.2406 414.263 47.1563 415.373 48.6016L416.959 47.3833ZM417.167 47.6533C417.101 47.5669 417.032 47.4773 416.959 47.3833L415.373 48.6016C415.445 48.695 415.516 48.7874 415.585 48.8769L417.167 47.6533ZM421.638 58.6556C421.22 55.9975 420.268 51.7806 417.176 47.6645L415.577 48.8657C418.388 52.6075 419.267 56.4552 419.663 58.9668L421.638 58.6556ZM431.177 53.893C428.095 53.4375 425.404 54.3529 423.451 55.4278C421.511 56.4951 420.216 57.7649 419.878 58.1769L421.424 59.4456C421.595 59.2372 422.691 58.1289 424.415 57.18C426.125 56.2388 428.37 55.4999 430.885 55.8715L431.177 53.893ZM442.003 68.5802C442.327 62.1164 438.031 54.9205 431.179 53.8933L430.883 55.8712C436.446 56.7052 440.293 62.7436 440.006 68.4803L442.003 68.5802ZM436.472 78.935C438.033 77.6183 441.633 74.0335 442.002 68.598L440.007 68.4625C439.693 73.0781 436.607 76.2042 435.182 77.4061L436.472 78.935ZM438.321 79.759C437.776 78.9687 437.195 78.2197 436.582 77.5145L435.072 78.8266C435.636 79.4752 436.172 80.1652 436.675 80.8946L438.321 79.759ZM439.173 80.4545C438.836 80.1461 438.489 79.8455 438.131 79.553L436.865 81.1006C437.193 81.3697 437.512 81.6462 437.822 81.9296L439.173 80.4545ZM448.086 74.5707C442.344 74.9799 438.716 79.2413 437.699 80.59L439.296 81.7942C440.237 80.5457 443.397 76.9099 448.228 76.5657L448.086 74.5707ZM462.471 85.6433C461.474 78.6688 454.466 74.2355 448.105 74.5696L448.21 76.5668C453.759 76.2754 459.67 80.1822 460.491 85.9262L462.471 85.6433ZM458.298 97.1764C458.701 96.8291 459.939 95.503 460.978 93.5208C462.025 91.524 462.912 88.7822 462.471 85.6454L460.49 85.9242C460.856 88.5213 460.128 90.8356 459.207 92.5919C458.278 94.3629 457.195 95.4867 456.992 95.6611L458.298 97.1764ZM468.559 100.012C464.535 96.8399 460.41 95.8621 457.808 95.4321L457.482 97.4053C459.926 97.8093 463.674 98.7075 467.321 101.582L468.559 100.012ZM468.715 100.138L468.569 100.02L467.311 101.575L467.457 101.693L468.715 100.138ZM468.833 100.233L468.714 100.137L467.458 101.694L467.578 101.79L468.833 100.233ZM473.893 106.212C472.459 103.145 470.253 101.377 468.833 100.233L467.578 101.79C468.986 102.925 470.86 104.445 472.081 107.059L473.893 106.212ZM475.164 112.298C475.105 110.598 475.042 108.66 473.892 106.21L472.081 107.06C473.048 109.119 473.108 110.707 473.166 112.367L475.164 112.298ZM475.165 112.333V112.332H473.165V112.333H475.165ZM475.165 112.333V112.333H473.165V112.333H475.165ZM475.165 112.333V112.333H473.165V112.333H475.165ZM475.381 114.785C475.225 113.976 475.195 113.192 475.164 112.298L473.166 112.368C473.196 113.241 473.227 114.178 473.418 115.165L475.381 114.785ZM488.054 124.666C478.424 121.281 475.974 117.406 475.375 114.755L473.424 115.195C474.239 118.799 477.441 123.056 487.391 126.552L488.054 124.666ZM477.434 133.279C478.73 131.462 481.575 128.38 487.994 126.571L487.451 124.646C480.547 126.591 477.336 129.972 475.806 132.117L477.434 133.279ZM473.728 141.266C474.54 138.96 475.712 135.749 477.44 133.27L475.8 132.126C473.894 134.86 472.645 138.32 471.842 140.602L473.728 141.266ZM472.444 145.673C472.737 144.523 473.094 143.12 473.731 141.257L471.839 140.61C471.175 142.553 470.801 144.02 470.506 145.179L472.444 145.673ZM472.436 145.701L472.436 145.701L470.513 145.151L470.513 145.152L472.436 145.701ZM472.451 145.644L472.451 145.644L470.498 145.21L470.498 145.21L472.451 145.644ZM470.072 150.699C471.573 149.148 471.918 147.735 472.443 145.674L470.505 145.18C469.975 147.261 469.726 148.181 468.635 149.308L470.072 150.699ZM463.078 154.114C464.195 153.904 467.612 153.24 470.072 150.699L468.635 149.308C466.653 151.355 463.813 151.941 462.709 152.149L463.078 154.114ZM457.375 154.117C458.65 154.336 460.697 154.561 463.078 154.114L462.709 152.148C460.649 152.535 458.861 152.343 457.714 152.146L457.375 154.117ZM461.161 162.736C461.814 157.236 458.999 153.319 458.314 152.493L456.775 153.77C457.3 154.404 459.735 157.783 459.175 162.5L461.161 162.736ZM461.162 162.732L461.162 162.724L459.174 162.512L459.173 162.52L461.162 162.732ZM456.222 172.074C460.523 168.884 461.058 163.696 461.162 162.733L459.173 162.519C459.071 163.472 458.579 167.836 455.031 170.468L456.222 172.074ZM444.223 173.372C445.459 173.798 451.259 175.833 456.23 172.068L455.022 170.474C450.971 173.543 446.152 171.921 444.874 171.481L444.223 173.372ZM444.198 173.363L444.222 173.372L444.875 171.481L444.85 171.473L444.198 173.363ZM439.333 170.267C440.458 171.354 442.069 172.564 444.172 173.354L444.876 171.482C443.085 170.809 441.7 169.773 440.723 168.829L439.333 170.267ZM435.743 174.457C437.644 173.24 439.33 171.807 440.769 170.22L439.288 168.876C437.968 170.332 436.417 171.651 434.664 172.773L435.743 174.457ZM442.002 183.68C441.563 177.207 436.543 173.351 435.791 172.806L434.616 174.425C435.289 174.912 439.632 178.294 440.007 183.815L442.002 183.68ZM431.179 198.384C438.031 197.357 442.327 190.162 442.003 183.698L440.006 183.798C440.293 189.534 436.446 195.572 430.883 196.406L431.179 198.384ZM419.878 194.101C420.216 194.513 421.511 195.783 423.451 196.85C425.404 197.925 428.095 198.84 431.177 198.385L430.885 196.406C428.37 196.778 426.125 196.039 424.415 195.098C422.691 194.149 421.595 193.041 421.424 192.832L419.878 194.101ZM417.176 204.613C420.268 200.497 421.22 196.28 421.638 193.622L419.663 193.311C419.267 195.822 418.388 199.67 415.577 203.412L417.176 204.613ZM417.084 204.732C417.112 204.696 417.14 204.66 417.167 204.625L415.585 203.401C415.557 203.438 415.528 203.475 415.5 203.512L417.084 204.732ZM416.96 204.894C417.002 204.839 417.044 204.785 417.084 204.732L415.499 203.512C415.458 203.566 415.416 203.621 415.374 203.676L416.96 204.894ZM411.118 210.08C414.119 208.608 415.845 206.345 416.96 204.894L415.374 203.676C414.263 205.121 412.78 207.037 410.237 208.285L411.118 210.08ZM405.153 211.389C406.815 211.328 408.717 211.263 411.119 210.08L410.235 208.285C408.236 209.27 406.698 209.331 405.08 209.39L405.153 211.389ZM402.735 211.61C403.519 211.45 404.279 211.421 405.153 211.389L405.08 209.39C404.228 209.421 403.307 209.453 402.337 209.65L402.735 211.61ZM393.104 224.595C396.414 214.709 400.204 212.21 402.767 211.603L402.305 209.657C398.761 210.497 394.614 213.789 391.207 223.96L393.104 224.595ZM384.636 213.705C386.405 215.029 389.42 217.946 391.19 224.537L393.121 224.018C391.227 216.961 387.933 213.674 385.834 212.104L384.636 213.705ZM376.849 209.913C379.099 210.745 382.229 211.944 384.644 213.712L385.825 212.098C383.153 210.143 379.769 208.861 377.542 208.037L376.849 209.913ZM372.552 208.6C373.674 208.9 375.042 209.266 376.858 209.917L377.533 208.034C375.635 207.354 374.2 206.97 373.069 206.667L372.552 208.6ZM367.629 206.162C369.147 207.704 370.536 208.06 372.552 208.6L373.069 206.667C371.04 206.125 370.15 205.872 369.054 204.759L367.629 206.162ZM364.304 199.019C364.508 200.158 365.154 203.647 367.629 206.162L369.054 204.759C367.051 202.724 366.476 199.803 366.272 198.667L364.304 199.019ZM364.301 193.201C364.088 194.503 363.87 196.591 364.304 199.019L366.273 198.667C365.893 196.545 366.082 194.705 366.275 193.525L364.301 193.201ZM355.904 197.044C361.302 197.716 365.141 194.817 365.945 194.117L364.631 192.609C364.01 193.15 360.726 195.628 356.151 195.059L355.904 197.044ZM355.908 197.044L355.915 197.045L356.139 195.057L356.132 195.057L355.908 197.044ZM346.764 191.976C349.88 196.385 354.961 196.938 355.908 197.044L356.132 195.057C355.216 194.954 350.966 194.456 348.397 190.822L346.764 191.976ZM345.503 179.739C345.087 181.006 343.11 186.914 346.77 191.984L348.391 190.813C345.379 186.64 346.973 181.671 347.403 180.363L345.503 179.739ZM345.511 179.714L345.503 179.739L347.403 180.363L347.411 180.338L345.511 179.714ZM349.87 173.463C348.623 174.496 346.637 176.566 345.52 179.689L347.403 180.363C348.364 177.676 350.082 175.884 351.145 175.004L349.87 173.463Z" fill="#ECE1CF" mask="url(#path-15-inside-1_796_2680)"/>
<circle cx="660" cy="124" r="123.5" stroke="#ECE1CF"/>
<line x1="660.5" x2="660.5" y2="248" stroke="#ECE1CF"/>
<line x1="784" y1="124.5" x2="536" y2="124.5" stroke="#ECE1CF"/>
<line x1="748.088" y1="36.7266" x2="572.725" y2="212.089" stroke="#ECE1CF"/>
<line x1="747.381" y1="212.09" x2="572.018" y2="36.7274" stroke="#ECE1CF"/>
<path d="M675.943 125.146C675.943 128.012 674.253 130.662 671.409 132.616C668.567 134.569 664.613 135.793 660.221 135.793C655.83 135.793 651.876 134.569 649.034 132.616C646.19 130.662 644.5 128.012 644.5 125.146C644.5 122.281 646.19 119.631 649.034 117.677C651.876 115.724 655.83 114.5 660.221 114.5C664.613 114.5 668.567 115.724 671.409 117.677C674.253 119.631 675.943 122.281 675.943 125.146Z" stroke="#ECE1CF"/>
<path d="M663.392 125.146C663.392 128.186 662.985 130.917 662.342 132.872C662.019 133.851 661.646 134.608 661.255 135.11C660.86 135.617 660.506 135.793 660.221 135.793C659.936 135.793 659.582 135.617 659.187 135.11C658.797 134.608 658.423 133.851 658.101 132.872C657.457 130.917 657.051 128.186 657.051 125.146C657.051 122.107 657.457 119.375 658.101 117.421C658.423 116.441 658.797 115.685 659.187 115.183C659.582 114.675 659.936 114.5 660.221 114.5C660.506 114.5 660.86 114.675 661.255 115.183C661.646 115.685 662.019 116.441 662.342 117.421C662.985 119.375 663.392 122.107 663.392 125.146Z" fill="#ECE1CF" stroke="#ECE1CF"/>
<mask id="path-24-inside-2_796_2680" fill="white">
<path fill-rule="evenodd" clip-rule="evenodd" d="M618.507 174.234C617.553 173.441 616.735 172.617 616.043 171.819C614.975 170.96 613.809 169.853 612.703 168.458C611.725 169.647 609.89 171.407 607.199 172.418L607.174 172.426C605.916 172.86 600.608 174.688 596.096 171.271C592.171 168.36 591.658 163.585 591.555 162.626L591.554 162.618C590.949 157.51 593.573 153.861 594.178 153.131C592.967 153.34 591.05 153.548 588.829 153.131C587.719 152.923 584.59 152.297 582.369 150.004C581.073 148.665 580.776 147.498 580.248 145.426C579.954 144.272 579.588 142.836 578.938 140.934C578.13 138.64 576.919 135.304 575.102 132.698C573.689 130.717 570.661 127.486 564 125.609C573.79 122.169 576.616 118.103 577.323 114.975C577.497 114.077 577.527 113.215 577.558 112.331C577.616 110.651 577.678 108.889 578.736 106.635C580.063 103.795 582.103 102.151 583.517 101.012C583.608 100.938 583.697 100.867 583.783 100.797C587.618 97.7737 591.554 96.8357 594.078 96.4187C593.472 95.8971 589.435 91.5187 590.242 85.7848C591.151 79.4255 597.61 75.2555 603.565 75.5682C609.419 75.9852 612.952 80.7808 613.456 81.5106C614.54 79.7351 615.804 78.1525 617.198 76.788C616.224 75.7159 615.16 74.204 614.461 72.2523L614.453 72.2269C614.03 70.9385 612.245 65.5007 615.581 60.8791C618.421 56.8591 623.083 56.333 624.019 56.2273L624.027 56.2264C629.014 55.606 632.576 58.2942 633.288 58.9146C633.085 57.6739 632.882 55.7094 633.288 53.4348C633.492 52.2975 634.102 49.0922 636.341 46.8176C637.648 45.4897 638.788 45.1851 640.81 44.6443C641.937 44.3429 643.338 43.9682 645.195 43.3022C647.434 42.475 650.691 41.2343 653.235 39.3733C655.169 37.9258 658.323 34.824 660.155 28C663.514 38.0292 667.482 40.9242 670.536 41.6479C671.413 41.8261 672.254 41.8569 673.117 41.8885C674.757 41.9485 676.477 42.0114 678.677 43.0954C681.449 44.455 683.054 46.5442 684.166 47.9924C684.238 48.0861 684.308 48.1772 684.376 48.2651C687.328 52.1941 688.243 56.2264 688.651 58.8112C689.16 58.1908 693.434 54.0551 699.031 54.8823C705.239 55.8128 709.31 62.43 709.004 68.5302C708.663 73.5558 705.32 76.9112 703.827 78.1706C704.415 78.8474 704.974 79.567 705.498 80.3268C705.841 80.6076 706.174 80.8962 706.497 81.1921C707.477 79.8935 710.87 75.9449 716.157 75.5682C722.113 75.2555 728.572 79.4255 729.481 85.7848C730.288 91.5187 726.251 95.8971 725.645 96.4187C728.168 96.8357 732.104 97.7737 735.94 100.797L736.086 100.915L736.205 101.012C737.619 102.151 739.659 103.795 740.987 106.635C742.045 108.89 742.106 110.652 742.165 112.332V112.333V112.333V112.333C742.196 113.216 742.226 114.077 742.399 114.975C743.106 118.103 745.932 122.169 755.723 125.609C749.061 127.486 746.033 130.717 744.62 132.698C742.803 135.304 741.592 138.64 740.785 140.934C740.135 142.836 739.769 144.272 739.475 145.426L739.474 145.427L739.474 145.427C738.947 147.498 738.649 148.665 737.353 150.004C735.133 152.297 732.004 152.923 730.893 153.131C728.673 153.548 726.755 153.34 725.544 153.131C726.15 153.861 728.774 157.51 728.168 162.618L728.167 162.626C728.064 163.584 727.551 168.36 723.626 171.271C719.115 174.688 713.806 172.859 712.549 172.426L712.524 172.418C710.577 171.686 709.079 170.563 708.028 169.548C706.649 171.069 705.031 172.445 703.203 173.615C703.916 174.132 708.597 177.751 709.004 183.748C709.31 189.848 705.239 196.465 699.031 197.395C693.434 198.223 689.16 194.087 688.651 193.467C688.243 196.051 687.328 200.083 684.376 204.013C684.348 204.049 684.32 204.085 684.292 204.122C684.251 204.176 684.209 204.23 684.167 204.285C683.054 205.733 681.45 207.823 678.677 209.183C676.476 210.267 674.756 210.329 673.116 210.389C672.254 210.421 671.413 210.452 670.536 210.63C667.482 211.354 663.514 214.249 660.155 224.278C658.323 217.454 655.169 214.352 653.235 212.905C650.691 211.043 647.434 209.803 645.195 208.975C643.338 208.31 641.937 207.935 640.81 207.634C638.788 207.093 637.648 206.788 636.341 205.46C634.102 203.185 633.492 199.98 633.288 198.843C632.882 196.568 633.085 194.604 633.288 193.363C632.576 193.983 629.014 196.672 624.027 196.051L624.02 196.05C623.088 195.946 618.423 195.421 615.581 191.399C612.244 186.777 614.03 181.339 614.453 180.051L614.461 180.026C615.501 177.121 617.352 175.19 618.507 174.234Z"/>
</mask>
<path d="M616.043 171.819L616.798 171.163L616.739 171.096L616.669 171.039L616.043 171.819ZM618.507 174.234L619.145 175.004L620.074 174.235L619.146 173.464L618.507 174.234ZM612.703 168.458L613.486 167.837L612.717 166.867L611.931 167.823L612.703 168.458ZM607.199 172.418L607.525 173.363L607.538 173.359L607.55 173.354L607.199 172.418ZM607.174 172.426L607.5 173.372L607.5 173.372L607.174 172.426ZM596.096 171.271L596.7 170.474L596.692 170.468L596.096 171.271ZM591.555 162.626L592.549 162.519L592.549 162.519L591.555 162.626ZM591.554 162.618L592.549 162.511L592.547 162.5L591.554 162.618ZM594.178 153.131L594.948 153.77L596.676 151.687L594.009 152.146L594.178 153.131ZM588.829 153.131L588.644 154.114L588.645 154.114L588.829 153.131ZM582.369 150.004L581.651 150.699L581.651 150.699L582.369 150.004ZM580.248 145.426L579.279 145.673L580.248 145.426ZM578.938 140.934L579.884 140.61L579.881 140.602L578.938 140.934ZM575.102 132.698L575.923 132.126L575.917 132.117L575.102 132.698ZM564 125.609L563.668 124.666L560.685 125.714L563.729 126.571L564 125.609ZM577.323 114.975L578.298 115.195L578.302 115.18L578.305 115.165L577.323 114.975ZM577.558 112.331L578.557 112.366L577.558 112.331ZM578.736 106.635L579.641 107.06L579.642 107.059L578.736 106.635ZM583.517 101.012L582.889 100.233L582.889 100.233L583.517 101.012ZM583.783 100.797L583.163 100.012L583.158 100.016L583.152 100.021L583.783 100.797ZM594.078 96.4187L594.241 97.4053L596.351 97.0567L594.73 95.661L594.078 96.4187ZM590.242 85.7848L589.252 85.6434L589.252 85.6453L590.242 85.7848ZM603.565 75.5682L603.636 74.5707L603.627 74.5701L603.618 74.5696L603.565 75.5682ZM613.456 81.5106L612.634 82.0794L613.509 83.3447L614.31 82.0314L613.456 81.5106ZM617.198 76.788L617.898 77.5027L618.587 76.8288L617.939 76.1156L617.198 76.788ZM614.461 72.2523L613.511 72.5642L613.515 72.5768L613.52 72.5893L614.461 72.2523ZM614.453 72.2269L615.403 71.915V71.915L614.453 72.2269ZM615.581 60.8791L616.391 61.4644L616.397 61.4562L615.581 60.8791ZM624.019 56.2273L624.131 57.221L624.131 57.221L624.019 56.2273ZM624.027 56.2264L624.14 57.2201L624.151 57.2187L624.027 56.2264ZM633.288 58.9146L632.631 59.6687L634.724 61.4907L634.275 58.7529L633.288 58.9146ZM633.288 53.4348L632.304 53.2583L632.304 53.2588L633.288 53.4348ZM636.341 46.8176L637.054 47.5191L637.054 47.5191L636.341 46.8176ZM640.81 44.6443L641.068 45.6103L640.81 44.6443ZM645.195 43.3022L645.533 44.2436L645.542 44.2402L645.195 43.3022ZM653.235 39.3733L653.825 40.1804L653.834 40.1738L653.235 39.3733ZM660.155 28L661.104 27.6824L660.05 24.5359L659.19 27.7407L660.155 28ZM670.536 41.6479L670.305 42.621L670.321 42.6247L670.337 42.6279L670.536 41.6479ZM673.117 41.8885L673.08 42.8878L673.117 41.8885ZM678.677 43.0954L678.235 43.9925L678.237 43.9932L678.677 43.0954ZM684.166 47.9924L684.959 47.3833H684.959L684.166 47.9924ZM684.376 48.2651L685.176 47.6644L685.167 47.6533L684.376 48.2651ZM688.651 58.8112L687.663 58.9668L688.01 61.1688L689.424 59.4456L688.651 58.8112ZM699.031 54.8823L699.179 53.8933L699.177 53.893L699.031 54.8823ZM709.004 68.5302L710.002 68.598L710.003 68.5891L710.003 68.5802L709.004 68.5302ZM703.827 78.1706L703.182 77.4061L702.406 78.0605L703.072 78.8266L703.827 78.1706ZM705.498 80.3268L704.675 80.8946L704.755 81.011L704.865 81.1006L705.498 80.3268ZM706.497 81.1921L705.822 81.9296L706.633 82.6725L707.296 81.7942L706.497 81.1921ZM716.157 75.5682L716.105 74.5696L716.096 74.5701L716.086 74.5707L716.157 75.5682ZM729.481 85.7848L730.471 85.6454L730.471 85.6433L729.481 85.7848ZM725.645 96.4187L724.992 95.6611L723.372 97.0567L725.482 97.4053L725.645 96.4187ZM735.94 100.797L736.569 100.02L736.559 100.012L735.94 100.797ZM736.086 100.915L735.457 101.693L735.458 101.694L736.086 100.915ZM736.205 101.012L735.578 101.79L735.578 101.79L736.205 101.012ZM740.987 106.635L740.081 107.059L740.081 107.06L740.987 106.635ZM742.165 112.332H743.165V112.315L743.164 112.298L742.165 112.332ZM742.165 112.333H741.165V112.35L741.166 112.368L742.165 112.333ZM742.399 114.975L741.418 115.165L741.421 115.18L741.424 115.195L742.399 114.975ZM755.723 125.609L755.994 126.571L759.038 125.714L756.054 124.666L755.723 125.609ZM744.62 132.698L743.806 132.117L743.8 132.126L744.62 132.698ZM740.785 140.934L739.842 140.602L739.839 140.61L740.785 140.934ZM739.475 145.426L740.436 145.701L740.44 145.687L740.444 145.673L739.475 145.426ZM739.474 145.427L738.513 145.152L738.505 145.181L738.498 145.21L739.474 145.427ZM739.474 145.427L740.443 145.674L740.447 145.659L740.451 145.644L739.474 145.427ZM737.353 150.004L738.072 150.699L738.072 150.699L737.353 150.004ZM730.893 153.131L731.078 154.114L731.078 154.114L730.893 153.131ZM725.544 153.131L725.714 152.146L723.047 151.687L724.775 153.77L725.544 153.131ZM728.168 162.618L727.175 162.5L727.174 162.512L728.168 162.618ZM728.167 162.626L729.162 162.733L729.162 162.732L728.167 162.626ZM723.626 171.271L723.03 170.468L723.022 170.474L723.626 171.271ZM712.549 172.426L712.222 173.372L712.223 173.372L712.549 172.426ZM712.524 172.418L712.172 173.354L712.185 173.359L712.198 173.363L712.524 172.418ZM708.028 169.548L708.723 168.829L707.981 168.112L707.288 168.876L708.028 169.548ZM703.203 173.615L702.664 172.773L701.429 173.564L702.616 174.425L703.203 173.615ZM709.004 183.748L710.003 183.698L710.003 183.689L710.002 183.68L709.004 183.748ZM699.031 197.395L699.177 198.385L699.179 198.384L699.031 197.395ZM688.651 193.467L689.424 192.832L688.01 191.109L687.663 193.311L688.651 193.467ZM684.376 204.013L685.167 204.625L685.176 204.613L684.376 204.013ZM684.292 204.122L683.5 203.512L683.499 203.512L684.292 204.122ZM684.167 204.285L684.96 204.894L684.96 204.894L684.167 204.285ZM678.677 209.183L678.237 208.285L678.235 208.285L678.677 209.183ZM673.116 210.389L673.08 209.39H673.08L673.116 210.389ZM670.536 210.63L670.337 209.65L670.321 209.653L670.305 209.657L670.536 210.63ZM660.155 224.278L659.19 224.537L660.05 227.742L661.104 224.595L660.155 224.278ZM653.235 212.905L653.834 212.104L653.825 212.098L653.235 212.905ZM645.195 208.975L645.542 208.037L645.533 208.034L645.195 208.975ZM640.81 207.634L641.069 206.667H641.069L640.81 207.634ZM636.341 205.46L635.629 206.162L635.629 206.162L636.341 205.46ZM633.288 198.843L632.304 199.019L632.304 199.019L633.288 198.843ZM633.288 193.363L634.275 193.525L634.723 190.787L632.631 192.609L633.288 193.363ZM624.027 196.051L624.151 195.059L624.139 195.057L624.027 196.051ZM624.02 196.05L624.132 195.057L624.132 195.057L624.02 196.05ZM615.581 191.399L616.397 190.821L616.391 190.813L615.581 191.399ZM614.453 180.051L613.503 179.739L614.453 180.051ZM614.461 180.026L613.52 179.689L613.515 179.701L613.511 179.714L614.461 180.026ZM615.287 172.474C616.012 173.309 616.868 174.172 617.868 175.003L619.146 173.464C618.237 172.709 617.459 171.925 616.798 171.163L615.287 172.474ZM611.919 169.08C613.078 170.54 614.298 171.7 615.416 172.598L616.669 171.039C615.651 170.221 614.54 169.166 613.486 167.837L611.919 169.08ZM607.55 173.354C610.455 172.263 612.425 170.37 613.475 169.094L611.931 167.823C611.025 168.923 609.325 170.551 606.847 171.482L607.55 173.354ZM607.5 173.372L607.525 173.363L606.873 171.473L606.848 171.481L607.5 173.372ZM595.492 172.068C600.464 175.833 606.263 173.798 607.5 173.372L606.848 171.481C605.57 171.921 600.752 173.543 596.7 170.474L595.492 172.068ZM590.561 162.733C590.664 163.697 591.199 168.885 595.5 172.074L596.692 170.468C593.143 167.836 592.652 163.472 592.549 162.519L590.561 162.733ZM590.56 162.725L590.561 162.733L592.549 162.519L592.548 162.511L590.56 162.725ZM593.409 152.493C592.723 153.319 589.909 157.236 590.561 162.736L592.547 162.5C591.988 157.783 594.422 154.404 594.948 153.77L593.409 152.493ZM588.645 154.114C591.025 154.561 593.073 154.336 594.348 154.117L594.009 152.146C592.862 152.343 591.074 152.535 589.014 152.148L588.645 154.114ZM581.651 150.699C584.11 153.24 587.528 153.904 588.644 154.114L589.014 152.149C587.91 151.941 585.07 151.355 583.088 149.308L581.651 150.699ZM579.279 145.673C579.804 147.735 580.15 149.148 581.651 150.699L583.088 149.308C581.997 148.181 581.747 147.261 581.217 145.179L579.279 145.673ZM577.992 141.257C578.628 143.12 578.986 144.523 579.279 145.673L581.217 145.179C580.922 144.02 580.548 142.553 579.884 140.61L577.992 141.257ZM574.282 133.27C576.01 135.749 577.183 138.96 577.995 141.266L579.881 140.602C579.078 138.32 577.828 134.86 575.923 132.126L574.282 133.27ZM563.729 126.571C570.147 128.38 572.992 131.462 574.288 133.279L575.917 132.117C574.386 129.972 571.176 126.591 564.271 124.646L563.729 126.571ZM576.348 114.755C575.749 117.406 573.299 121.281 563.668 124.666L564.332 126.552C574.282 123.056 577.484 118.799 578.298 115.195L576.348 114.755ZM576.558 112.297C576.527 113.191 576.498 113.975 576.341 114.785L578.305 115.165C578.496 114.178 578.527 113.24 578.557 112.366L576.558 112.297ZM577.831 106.21C576.681 108.66 576.618 110.597 576.558 112.297L578.557 112.366C578.615 110.706 578.675 109.119 579.641 107.06L577.831 106.21ZM582.889 100.233C581.469 101.378 579.263 103.145 577.83 106.212L579.642 107.059C580.863 104.446 582.736 102.925 584.144 101.791L582.889 100.233ZM583.152 100.021C583.068 100.089 582.981 100.16 582.889 100.233L584.144 101.791C584.235 101.717 584.325 101.644 584.413 101.574L583.152 100.021ZM593.914 95.4321C591.313 95.8621 587.187 96.8399 583.163 100.012L584.402 101.582C588.049 98.7075 591.796 97.8093 594.241 97.4053L593.914 95.4321ZM589.252 85.6453C588.81 88.7821 589.697 91.524 590.744 93.5208C591.784 95.503 593.022 96.8291 593.425 97.1764L594.73 95.661C594.528 95.4867 593.444 94.3629 592.516 92.5919C591.595 90.8356 590.867 88.5213 591.232 85.9242L589.252 85.6453ZM603.618 74.5696C597.256 74.2355 590.248 78.6688 589.252 85.6434L591.232 85.9262C592.053 80.1822 597.964 76.2754 603.513 76.5668L603.618 74.5696ZM614.279 80.9418C613.754 80.1827 609.985 75.023 603.636 74.5707L603.494 76.5657C608.853 76.9475 612.149 81.3789 612.634 82.0794L614.279 80.9418ZM616.499 76.0732C615.044 77.4966 613.728 79.1445 612.603 80.9898L614.31 82.0314C615.351 80.3256 616.564 78.8084 617.898 77.5027L616.499 76.0732ZM613.52 72.5893C614.272 74.69 615.416 76.3127 616.458 77.4604L617.939 76.1156C617.033 75.119 616.048 73.718 615.403 71.9154L613.52 72.5893ZM613.503 72.5388L613.511 72.5642L615.411 71.9404L615.403 71.915L613.503 72.5388ZM614.77 60.2938C611.11 65.3636 613.087 71.2711 613.503 72.5388L615.403 71.915C614.973 70.6059 613.379 65.6378 616.391 61.4644L614.77 60.2938ZM623.906 55.2336C622.955 55.341 617.878 55.8947 614.764 60.302L616.397 61.4562C618.964 57.8235 623.21 57.3249 624.131 57.221L623.906 55.2336ZM623.915 55.2327L623.906 55.2337L624.131 57.221L624.14 57.22L623.915 55.2327ZM633.945 58.1605C633.141 57.4607 629.302 54.5625 623.904 55.234L624.151 57.2187C628.726 56.6496 632.01 59.1278 632.631 59.6687L633.945 58.1605ZM632.304 53.2588C631.87 55.6864 632.088 57.7745 632.301 59.0763L634.275 58.7529C634.082 57.5733 633.893 55.7324 634.273 53.6107L632.304 53.2588ZM635.629 46.1161C633.154 48.6306 632.508 52.1198 632.304 53.2583L634.272 53.6112C634.476 52.4751 635.051 49.5539 637.054 47.5191L635.629 46.1161ZM640.552 43.6782C638.535 44.2174 637.146 44.5741 635.629 46.1162L637.054 47.5191C638.15 46.4053 639.04 46.1528 641.068 45.6103L640.552 43.6782ZM644.858 42.3609C643.042 43.0122 641.674 43.3782 640.552 43.6782L641.068 45.6103C642.2 45.3076 643.635 44.9242 645.533 44.2435L644.858 42.3609ZM652.644 38.5662C650.229 40.3335 647.099 41.5328 644.849 42.3642L645.542 44.2402C647.769 43.4173 651.153 42.1352 653.825 40.1803L652.644 38.5662ZM659.19 27.7407C657.42 34.3312 654.405 37.2484 652.636 38.5727L653.834 40.1738C655.933 38.6031 659.227 35.3168 661.121 28.2593L659.19 27.7407ZM670.766 40.6749C668.204 40.0674 664.414 37.5689 661.104 27.6824L659.207 28.3176C662.614 38.4895 666.761 41.781 670.305 42.621L670.766 40.6749ZM673.153 40.8892C672.28 40.8572 671.519 40.8273 670.735 40.6679L670.337 42.6279C671.307 42.825 672.228 42.8566 673.08 42.8878L673.153 40.8892ZM679.119 42.1983C676.717 41.0151 674.815 40.95 673.153 40.8892L673.08 42.8878C674.698 42.947 676.236 43.0078 678.235 43.9925L679.119 42.1983ZM684.959 47.3833C683.845 45.9321 682.119 43.6694 679.118 42.1976L678.237 43.9932C680.78 45.2406 682.263 47.1563 683.373 48.6016L684.959 47.3833ZM685.167 47.6533C685.101 47.5669 685.032 47.4773 684.959 47.3833L683.373 48.6016C683.445 48.695 683.516 48.7874 683.585 48.8769L685.167 47.6533ZM689.638 58.6556C689.22 55.9975 688.268 51.7806 685.176 47.6645L683.577 48.8657C686.388 52.6075 687.267 56.4552 687.663 58.9668L689.638 58.6556ZM699.177 53.893C696.095 53.4375 693.404 54.3529 691.451 55.4278C689.511 56.4951 688.216 57.7649 687.878 58.1769L689.424 59.4456C689.595 59.2372 690.691 58.1289 692.415 57.18C694.125 56.2388 696.37 55.4999 698.885 55.8715L699.177 53.893ZM710.003 68.5802C710.327 62.1164 706.031 54.9205 699.179 53.8933L698.883 55.8712C704.446 56.7052 708.293 62.7436 708.006 68.4803L710.003 68.5802ZM704.472 78.935C706.033 77.6183 709.633 74.0335 710.002 68.598L708.007 68.4625C707.693 73.0781 704.607 76.2042 703.182 77.4061L704.472 78.935ZM706.321 79.759C705.776 78.9687 705.195 78.2197 704.582 77.5145L703.072 78.8266C703.636 79.4752 704.172 80.1652 704.675 80.8946L706.321 79.759ZM707.173 80.4545C706.836 80.1461 706.489 79.8455 706.131 79.553L704.865 81.1006C705.193 81.3697 705.512 81.6462 705.822 81.9296L707.173 80.4545ZM716.086 74.5707C710.344 74.9799 706.716 79.2413 705.699 80.59L707.296 81.7942C708.237 80.5457 711.397 76.9099 716.228 76.5657L716.086 74.5707ZM730.471 85.6433C729.474 78.6688 722.466 74.2355 716.105 74.5696L716.21 76.5668C721.759 76.2754 727.67 80.1822 728.491 85.9262L730.471 85.6433ZM726.298 97.1764C726.701 96.8291 727.939 95.503 728.978 93.5208C730.025 91.524 730.912 88.7822 730.471 85.6454L728.49 85.9242C728.856 88.5213 728.128 90.8356 727.207 92.5919C726.278 94.3629 725.195 95.4867 724.992 95.6611L726.298 97.1764ZM736.559 100.012C732.535 96.8399 728.41 95.8621 725.808 95.4321L725.482 97.4053C727.926 97.8093 731.674 98.7075 735.321 101.582L736.559 100.012ZM736.715 100.138L736.569 100.02L735.311 101.575L735.457 101.693L736.715 100.138ZM736.833 100.233L736.714 100.137L735.458 101.694L735.578 101.79L736.833 100.233ZM741.893 106.212C740.459 103.145 738.253 101.377 736.833 100.233L735.578 101.79C736.986 102.925 738.86 104.445 740.081 107.059L741.893 106.212ZM743.164 112.298C743.105 110.598 743.042 108.66 741.892 106.21L740.081 107.06C741.048 109.119 741.108 110.707 741.166 112.367L743.164 112.298ZM743.165 112.333V112.332H741.165V112.333H743.165ZM743.165 112.333V112.333H741.165V112.333H743.165ZM743.165 112.333V112.333H741.165V112.333H743.165ZM743.381 114.785C743.225 113.976 743.195 113.192 743.164 112.298L741.166 112.368C741.196 113.241 741.227 114.178 741.418 115.165L743.381 114.785ZM756.054 124.666C746.424 121.281 743.974 117.406 743.375 114.755L741.424 115.195C742.239 118.799 745.441 123.056 755.391 126.552L756.054 124.666ZM745.434 133.279C746.73 131.462 749.575 128.38 755.994 126.571L755.451 124.646C748.547 126.591 745.336 129.972 743.806 132.117L745.434 133.279ZM741.728 141.266C742.54 138.96 743.712 135.749 745.44 133.27L743.8 132.126C741.894 134.86 740.645 138.32 739.842 140.602L741.728 141.266ZM740.444 145.673C740.737 144.523 741.094 143.12 741.731 141.257L739.839 140.61C739.175 142.553 738.801 144.02 738.506 145.179L740.444 145.673ZM740.436 145.701L740.436 145.701L738.513 145.151L738.513 145.152L740.436 145.701ZM740.451 145.644L740.451 145.644L738.498 145.21L738.498 145.21L740.451 145.644ZM738.072 150.699C739.573 149.148 739.918 147.735 740.443 145.674L738.505 145.18C737.975 147.261 737.726 148.181 736.635 149.308L738.072 150.699ZM731.078 154.114C732.195 153.904 735.612 153.24 738.072 150.699L736.635 149.308C734.653 151.355 731.813 151.941 730.709 152.149L731.078 154.114ZM725.375 154.117C726.65 154.336 728.697 154.561 731.078 154.114L730.709 152.148C728.649 152.535 726.861 152.343 725.714 152.146L725.375 154.117ZM729.161 162.736C729.814 157.236 726.999 153.319 726.314 152.493L724.775 153.77C725.3 154.404 727.735 157.783 727.175 162.5L729.161 162.736ZM729.162 162.732L729.162 162.724L727.174 162.512L727.173 162.52L729.162 162.732ZM724.222 172.074C728.523 168.884 729.058 163.696 729.162 162.733L727.173 162.519C727.071 163.472 726.579 167.836 723.031 170.468L724.222 172.074ZM712.223 173.372C713.459 173.798 719.259 175.833 724.23 172.068L723.022 170.474C718.971 173.543 714.152 171.921 712.874 171.481L712.223 173.372ZM712.198 173.363L712.222 173.372L712.875 171.481L712.85 171.473L712.198 173.363ZM707.333 170.267C708.458 171.354 710.069 172.564 712.172 173.354L712.876 171.482C711.085 170.809 709.7 169.773 708.723 168.829L707.333 170.267ZM703.743 174.457C705.644 173.24 707.33 171.807 708.769 170.22L707.288 168.876C705.968 170.332 704.417 171.651 702.664 172.773L703.743 174.457ZM710.002 183.68C709.563 177.207 704.543 173.351 703.791 172.806L702.616 174.425C703.289 174.912 707.632 178.294 708.007 183.815L710.002 183.68ZM699.179 198.384C706.031 197.357 710.327 190.162 710.003 183.698L708.006 183.798C708.293 189.534 704.446 195.572 698.883 196.406L699.179 198.384ZM687.878 194.101C688.216 194.513 689.511 195.783 691.451 196.85C693.404 197.925 696.095 198.84 699.177 198.385L698.885 196.406C696.37 196.778 694.125 196.039 692.415 195.098C690.691 194.149 689.595 193.041 689.424 192.832L687.878 194.101ZM685.176 204.613C688.268 200.497 689.22 196.28 689.638 193.622L687.663 193.311C687.267 195.822 686.388 199.67 683.577 203.412L685.176 204.613ZM685.084 204.732C685.112 204.696 685.14 204.66 685.167 204.625L683.585 203.401C683.557 203.438 683.528 203.475 683.5 203.512L685.084 204.732ZM684.96 204.894C685.002 204.839 685.044 204.785 685.084 204.732L683.499 203.512C683.458 203.566 683.416 203.621 683.374 203.676L684.96 204.894ZM679.118 210.08C682.119 208.608 683.845 206.345 684.96 204.894L683.374 203.676C682.263 205.121 680.78 207.037 678.237 208.285L679.118 210.08ZM673.153 211.389C674.815 211.328 676.717 211.263 679.119 210.08L678.235 208.285C676.236 209.27 674.698 209.331 673.08 209.39L673.153 211.389ZM670.735 211.61C671.519 211.45 672.279 211.421 673.153 211.389L673.08 209.39C672.228 209.421 671.307 209.453 670.337 209.65L670.735 211.61ZM661.104 224.595C664.414 214.709 668.204 212.21 670.767 211.603L670.305 209.657C666.761 210.497 662.614 213.789 659.207 223.96L661.104 224.595ZM652.636 213.705C654.405 215.029 657.42 217.946 659.19 224.537L661.121 224.018C659.227 216.961 655.933 213.674 653.834 212.104L652.636 213.705ZM644.849 209.913C647.099 210.745 650.229 211.944 652.644 213.712L653.825 212.098C651.153 210.143 647.769 208.861 645.542 208.037L644.849 209.913ZM640.552 208.6C641.674 208.9 643.042 209.266 644.858 209.917L645.533 208.034C643.635 207.354 642.2 206.97 641.069 206.667L640.552 208.6ZM635.629 206.162C637.147 207.704 638.536 208.06 640.552 208.6L641.069 206.667C639.04 206.125 638.15 205.872 637.054 204.759L635.629 206.162ZM632.304 199.019C632.508 200.158 633.154 203.647 635.629 206.162L637.054 204.759C635.051 202.724 634.476 199.803 634.272 198.667L632.304 199.019ZM632.301 193.201C632.088 194.503 631.87 196.591 632.304 199.019L634.273 198.667C633.893 196.545 634.082 194.705 634.275 193.525L632.301 193.201ZM623.904 197.044C629.302 197.716 633.141 194.817 633.945 194.117L632.631 192.609C632.01 193.15 628.726 195.628 624.151 195.059L623.904 197.044ZM623.908 197.044L623.915 197.045L624.139 195.057L624.132 195.057L623.908 197.044ZM614.764 191.976C617.88 196.385 622.961 196.938 623.908 197.044L624.132 195.057C623.216 194.954 618.966 194.456 616.397 190.822L614.764 191.976ZM613.503 179.739C613.087 181.006 611.11 186.914 614.77 191.984L616.391 190.813C613.379 186.64 614.973 181.671 615.403 180.363L613.503 179.739ZM613.511 179.714L613.503 179.739L615.403 180.363L615.411 180.338L613.511 179.714ZM617.87 173.463C616.623 174.496 614.637 176.566 613.52 179.689L615.403 180.363C616.364 177.676 618.082 175.884 619.145 175.004L617.87 173.463Z" fill="#ECE1CF" mask="url(#path-24-inside-2_796_2680)"/>
<path d="M617.227 118.075C616.436 118.129 615.516 118.288 614.556 118.642L614.548 118.645L614.548 118.645C610.903 120.057 609.373 123.297 608.988 124.196L608.913 124.371L608.973 124.551C609.197 125.224 610.372 128.578 613.84 130.131C614.975 130.646 616.084 130.819 616.918 130.87C616.692 131.939 616.517 133.849 617.471 135.873C617.57 136.109 618.05 137.087 618.959 138.076C619.895 139.093 621.316 140.156 623.274 140.393C625.126 140.628 626.632 139.989 627.326 139.625L627.886 139.332L627.472 138.854C627.107 138.433 626.015 136.935 626.072 134.877L626.072 134.87L626.072 134.87C626.086 133.826 626.403 132.715 626.954 131.782C627.506 130.847 628.271 130.127 629.16 129.803C630.498 129.322 632.103 129.751 633.56 130.779C635.01 131.8 636.211 133.347 636.717 134.894L636.718 134.897C637.433 137.044 636.895 139.491 635.584 141.64C634.275 143.787 632.238 145.561 630.09 146.356C626.757 147.584 623.181 146.443 620.239 144.796C617.381 143.196 615.23 141.177 614.673 140.654C614.66 140.642 614.649 140.631 614.638 140.621C612.522 138.59 611.504 136.811 610.496 135.051C610.437 134.948 610.379 134.845 610.32 134.743C609.241 132.864 608.109 131.006 605.629 129.006C602.634 126.58 599.414 125.35 596.807 124.686C599.636 123.595 603.19 121.749 606.27 118.459C607.834 116.8 608.596 115.501 609.395 114.138L609.416 114.102C610.215 112.74 611.066 111.297 612.836 109.282L617.227 118.075ZM617.227 118.075C616.932 116.955 616.612 114.782 617.658 112.478C617.77 112.217 618.224 111.279 619.101 110.313C619.985 109.338 621.319 108.315 623.18 107.963L623.181 107.963C625.148 107.596 626.747 108.129 627.488 108.465L627.96 108.68L627.728 109.144C627.497 109.606 627.197 110.383 626.922 111.328L626.922 111.328L626.921 111.334C626.288 113.421 626.017 114.524 626.413 115.612C626.691 116.337 627.234 116.877 627.801 117.266C628.367 117.654 628.926 117.869 629.179 117.953L629.183 117.955C631.155 118.631 633.364 117.928 634.687 116.778C635.959 115.644 636.546 113.883 636.572 111.962C636.598 110.044 636.061 108.036 635.175 106.499C632.827 102.449 627.694 101.135 623.923 101.588L623.922 101.588C619.141 102.152 616.031 105.649 612.836 109.282L617.227 118.075Z" stroke="#ECE1CF"/>
<path d="M702.984 118.075C703.775 118.129 704.695 118.288 705.655 118.642L705.663 118.645L705.663 118.645C709.308 120.057 710.838 123.297 711.223 124.196L711.298 124.371L711.238 124.551C711.014 125.224 709.839 128.578 706.371 130.131C705.236 130.646 704.127 130.819 703.293 130.87C703.519 131.939 703.694 133.849 702.739 135.873C702.641 136.109 702.161 137.087 701.252 138.076C700.316 139.093 698.895 140.156 696.937 140.393C695.085 140.628 693.579 139.989 692.884 139.625L692.325 139.332L692.739 138.854C693.104 138.433 694.196 136.935 694.139 134.877L694.139 134.87L694.139 134.87C694.125 133.826 693.808 132.715 693.257 131.782C692.705 130.847 691.94 130.127 691.051 129.803C689.713 129.322 688.108 129.751 686.651 130.779C685.201 131.8 684 133.347 683.494 134.894L683.493 134.897C682.778 137.044 683.316 139.491 684.626 141.64C685.936 143.787 687.973 145.561 690.121 146.356C693.454 147.584 697.03 146.443 699.971 144.796C702.83 143.196 704.981 141.177 705.538 140.654C705.551 140.642 705.562 140.631 705.573 140.621C707.689 138.59 708.707 136.811 709.715 135.051C709.774 134.948 709.832 134.845 709.891 134.743C710.97 132.864 712.102 131.006 714.582 129.006C717.576 126.58 720.796 125.35 723.404 124.686C720.575 123.595 717.021 121.749 713.941 118.459C712.377 116.8 711.615 115.501 710.816 114.138L710.795 114.102C709.996 112.74 709.145 111.297 707.375 109.282L702.984 118.075ZM702.984 118.075C703.279 116.955 703.599 114.782 702.553 112.478C702.441 112.217 701.987 111.279 701.11 110.313C700.226 109.338 698.892 108.315 697.031 107.963L697.03 107.963C695.063 107.596 693.464 108.129 692.723 108.465L692.251 108.68L692.483 109.144C692.714 109.606 693.014 110.383 693.289 111.328L693.289 111.328L693.29 111.334C693.923 113.421 694.194 114.524 693.798 115.612C693.52 116.337 692.977 116.877 692.41 117.266C691.844 117.654 691.285 117.869 691.032 117.953L691.028 117.955C689.056 118.631 686.847 117.928 685.524 116.778C684.251 115.644 683.665 113.883 683.639 111.962C683.613 110.044 684.15 108.036 685.036 106.499C687.384 102.449 692.517 101.135 696.288 101.588L696.289 101.588C701.07 102.152 704.18 105.649 707.374 109.282L702.984 118.075Z" stroke="#ECE1CF"/>
<path d="M667.03 75.2266C666.976 74.4361 666.817 73.5163 666.463 72.5561L666.461 72.5483L666.46 72.5483C665.048 68.903 661.808 67.3729 660.909 66.9876L660.735 66.9127L660.554 66.9728C659.882 67.197 656.528 68.3724 654.975 71.8399C654.459 72.975 654.287 74.0844 654.235 74.9177C653.166 74.6919 651.256 74.5172 649.232 75.4714C648.996 75.57 648.019 76.0499 647.03 76.9591C646.012 77.8946 644.949 79.3162 644.713 81.2736C644.477 83.1262 645.117 84.6316 645.481 85.3265L645.774 85.886L646.251 85.4723C646.673 85.1066 648.17 84.0147 650.228 84.0719L650.235 84.0721L650.235 84.072C651.279 84.0863 652.39 84.4027 653.324 84.9541C654.258 85.5062 654.979 86.2714 655.302 87.1596C655.784 88.4978 655.354 90.1028 654.327 91.5601C653.305 93.0098 651.758 94.2106 650.211 94.7167L650.208 94.7176C648.061 95.4333 645.614 94.8947 643.465 93.5844C641.318 92.2752 639.544 90.2381 638.749 88.0901C637.522 84.7572 638.662 81.1809 640.309 78.2394C641.91 75.3807 643.929 73.2301 644.452 72.6726C644.463 72.6603 644.474 72.6488 644.484 72.6381C646.516 70.5216 648.295 69.5035 650.055 68.4962C650.158 68.4374 650.26 68.3786 650.363 68.3196C652.242 67.2411 654.099 66.109 656.099 63.6293C658.526 60.6345 659.755 57.4144 660.42 54.8067C661.511 57.6357 663.356 61.1902 666.646 64.2697C668.306 65.8343 669.604 66.5959 670.968 67.3954L671.004 67.4163C672.365 68.2147 673.809 69.0657 675.824 70.8364L667.03 75.2266ZM667.03 75.2266C668.15 74.9321 670.323 74.6123 672.628 75.6581C672.888 75.7704 673.827 76.2243 674.793 77.1006C675.768 77.9852 676.79 79.3189 677.142 81.18L677.143 81.1813C677.509 83.1482 676.977 84.7468 676.64 85.4878L676.425 85.9602L675.961 85.7281C675.5 85.4973 674.722 85.1965 673.777 84.9222L673.777 84.9222L673.772 84.9205C671.684 84.2879 670.581 84.0167 669.494 84.4133C668.768 84.6914 668.228 85.234 667.84 85.8005C667.452 86.3668 667.236 86.9258 667.152 87.1789L667.151 87.1829C666.475 89.1551 667.178 91.3636 668.327 92.6868C669.461 93.9595 671.222 94.5456 673.143 94.5716C675.062 94.5976 677.07 94.0611 678.606 93.1749C682.657 90.8266 683.97 85.6937 683.518 81.9229L683.518 81.9219C682.954 77.1407 679.457 74.0308 675.824 70.8365L667.03 75.2266Z" stroke="#ECE1CF"/>
<path d="M654.075 172.879C654.129 173.669 654.288 174.589 654.642 175.549L654.645 175.557L654.645 175.557C656.057 179.202 659.297 180.733 660.196 181.118L660.371 181.193L660.551 181.133C661.224 180.908 664.578 179.733 666.131 176.266C666.646 175.13 666.819 174.021 666.87 173.188C667.939 173.414 669.849 173.588 671.873 172.634C672.109 172.536 673.087 172.056 674.076 171.146C675.093 170.211 676.156 168.789 676.393 166.832C676.628 164.979 675.989 163.474 675.625 162.779L675.332 162.219L674.854 162.633C674.433 162.999 672.935 164.091 670.877 164.034L670.87 164.033L670.87 164.033C669.826 164.019 668.715 163.703 667.782 163.151C666.847 162.599 666.127 161.834 665.803 160.946C665.322 159.608 665.751 158.003 666.779 156.545C667.8 155.096 669.347 153.895 670.894 153.389L670.897 153.388C673.044 152.672 675.491 153.211 677.64 154.521C679.787 155.83 681.561 157.867 682.356 160.015C683.584 163.348 682.443 166.925 680.796 169.866C679.196 172.725 677.177 174.875 676.654 175.433C676.642 175.445 676.631 175.457 676.621 175.467C674.59 177.584 672.811 178.602 671.051 179.609C670.948 179.668 670.845 179.727 670.743 179.786C668.864 180.864 667.006 181.997 665.006 184.476C662.58 187.471 661.35 190.691 660.686 193.299C659.595 190.47 657.749 186.915 654.459 183.836C652.8 182.271 651.501 181.51 650.138 180.71L650.102 180.689C648.74 179.891 647.297 179.04 645.282 177.269L654.075 172.879ZM654.075 172.879C652.955 173.173 650.782 173.493 648.478 172.447C648.217 172.335 647.279 171.881 646.313 171.005C645.338 170.12 644.315 168.787 643.963 166.925L643.963 166.924C643.596 164.957 644.129 163.359 644.465 162.618L644.68 162.145L645.144 162.377C645.606 162.608 646.383 162.909 647.328 163.183L647.328 163.183L647.334 163.185C649.421 163.818 650.524 164.089 651.612 163.692C652.337 163.414 652.877 162.871 653.266 162.305C653.654 161.739 653.869 161.18 653.953 160.927L653.955 160.923C654.631 158.95 653.928 156.742 652.778 155.419C651.644 154.146 649.883 153.56 647.962 153.534C646.044 153.508 644.036 154.044 642.499 154.931C638.449 157.279 637.135 162.412 637.588 166.183L637.588 166.184C638.152 170.965 641.649 174.075 645.282 177.269L654.075 172.879Z" stroke="#ECE1CF"/>
</svg>
