<svg width="784" height="668" viewBox="0 0 784 668" fill="none" xmlns="http://www.w3.org/2000/svg">
<rect y="222.484" width="784" height="222.486" fill="black"/>
<path d="M148.88 286.055L120.818 333.808L148.88 381.562H123.772L103.095 346.334H77.5433V381.562H55.0938V286.055H77.5433V321.283H103.095L123.772 286.055H148.88Z" fill="#ECE1CF"/>
<path d="M345.513 286.055H368.406V381.562H345.513V346.177H297.069V381.562H274.472V286.055H297.069V321.283H345.513V286.055Z" fill="#ECE1CF"/>
<path d="M269.805 333.696C269.805 359.4 240.695 380.237 204.785 380.237C168.876 380.237 139.766 359.4 139.766 333.696C139.766 307.993 168.876 287.156 204.785 287.156C240.695 287.156 269.805 307.993 269.805 333.696Z" fill="white"/>
<path d="M219.562 333.696C219.562 359.4 212.946 380.237 204.785 380.237C196.624 380.237 190.008 359.4 190.008 333.696C190.008 307.993 196.624 287.156 204.785 287.156C212.946 287.156 219.562 307.993 219.562 333.696Z" fill="black"/>
<path d="M511.501 287.156L483.439 334.909L511.501 382.663H486.393L465.716 347.435H440.164V382.663H417.715V287.156H440.164V322.384H465.716L486.393 287.156H511.501Z" fill="#ECE1CF"/>
<path d="M708.134 287.156H731.027V382.663H708.134V347.278H659.691V382.663H637.093V287.156H659.691V322.384H708.134V287.156Z" fill="#ECE1CF"/>
<path d="M631.329 333.696C631.329 359.4 602.218 380.237 566.309 380.237C530.399 380.237 501.289 359.4 501.289 333.696C501.289 307.993 530.399 287.156 566.309 287.156C602.218 287.156 631.329 307.993 631.329 333.696Z" fill="white"/>
<path d="M581.086 333.696C581.086 359.4 574.47 380.237 566.308 380.237C558.147 380.237 551.531 359.4 551.531 333.696C551.531 307.993 558.147 287.156 566.308 287.156C574.47 287.156 581.086 307.993 581.086 333.696Z" fill="black"/>
<path d="M374.238 323.301H413.046V346.276H374.238V323.301Z" fill="#ECE1CF"/>
<rect y="444.973" width="784" height="222.486" fill="#D84E00"/>
<path d="M148.88 508.539L120.818 556.293L148.88 604.047H123.772L103.095 568.818H77.5433V604.047H55.0938V508.539H77.5433V543.767H103.095L123.772 508.539H148.88Z" fill="black"/>
<path d="M345.513 508.539H368.406V604.047H345.513V568.662H297.069V604.047H274.472V508.539H297.069V543.767H345.513V508.539Z" fill="black"/>
<path d="M269.805 556.181C269.805 581.884 240.695 602.721 204.785 602.721C168.876 602.721 139.766 581.884 139.766 556.181C139.766 530.477 168.876 509.64 204.785 509.64C240.695 509.64 269.805 530.477 269.805 556.181Z" fill="white"/>
<path d="M219.562 556.181C219.562 581.884 212.946 602.721 204.785 602.721C196.624 602.721 190.008 581.884 190.008 556.181C190.008 530.477 196.624 509.64 204.785 509.64C212.946 509.64 219.562 530.477 219.562 556.181Z" fill="black"/>
<path d="M511.501 509.64L483.439 557.394L511.501 605.147H486.393L465.716 569.919H440.164V605.147H417.715V509.64H440.164V544.868H465.716L486.393 509.64H511.501Z" fill="black"/>
<path d="M708.134 509.64H731.027V605.147H708.134V569.763H659.691V605.147H637.093V509.64H659.691V544.868H708.134V509.64Z" fill="black"/>
<path d="M631.329 556.181C631.329 581.884 602.218 602.721 566.309 602.721C530.399 602.721 501.289 581.884 501.289 556.181C501.289 530.477 530.399 509.64 566.309 509.64C602.218 509.64 631.329 530.477 631.329 556.181Z" fill="white"/>
<path d="M581.086 556.181C581.086 581.884 574.47 602.721 566.308 602.721C558.147 602.721 551.531 581.884 551.531 556.181C551.531 530.477 558.147 509.64 566.308 509.64C574.47 509.64 581.086 530.477 581.086 556.181Z" fill="black"/>
<path d="M374.238 545.786H413.046V568.76H374.238V545.786Z" fill="black"/>
<rect x="0.5" y="0.5" width="783" height="221.486" stroke="black"/>
<path d="M148.88 63.5703L120.818 111.324L148.88 159.078H123.772L103.095 123.85H77.5433V159.078H55.0938V63.5703H77.5433V98.7985H103.095L123.772 63.5703H148.88Z" fill="black"/>
<path d="M345.513 63.5703H368.406V159.078H345.513V123.693H297.069V159.078H274.472V63.5703H297.069V98.7985H345.513V63.5703Z" fill="black"/>
<path d="M269.805 111.212C269.805 136.916 240.695 157.753 204.785 157.753C168.876 157.753 139.766 136.916 139.766 111.212C139.766 85.5081 168.876 64.6711 204.785 64.6711C240.695 64.6711 269.805 85.5081 269.805 111.212Z" fill="white"/>
<path d="M219.562 111.212C219.562 136.916 212.946 157.753 204.785 157.753C196.624 157.753 190.008 136.916 190.008 111.212C190.008 85.5081 196.624 64.6711 204.785 64.6711C212.946 64.6711 219.562 85.5081 219.562 111.212Z" fill="black"/>
<path d="M511.501 64.6711L483.439 112.425L511.501 160.179H486.393L465.716 124.95H440.164V160.179H417.715V64.6711H440.164V99.8993H465.716L486.393 64.6711H511.501Z" fill="black"/>
<path d="M708.134 64.6711H731.027V160.179H708.134V124.794H659.691V160.179H637.093V64.6711H659.691V99.8993H708.134V64.6711Z" fill="black"/>
<path d="M631.329 111.212C631.329 136.916 602.218 157.753 566.309 157.753C530.399 157.753 501.289 136.916 501.289 111.212C501.289 85.5081 530.399 64.6711 566.309 64.6711C602.218 64.6711 631.329 85.5081 631.329 111.212Z" fill="white"/>
<path d="M581.086 111.212C581.086 136.916 574.47 157.753 566.308 157.753C558.147 157.753 551.531 136.916 551.531 111.212C551.531 85.5081 558.147 64.6711 566.308 64.6711C574.47 64.6711 581.086 85.5081 581.086 111.212Z" fill="black"/>
<path d="M374.238 100.817H413.046V123.792H374.238V100.817Z" fill="black"/>
</svg>
