<svg width="1440" height="900" viewBox="0 0 1440 900" fill="none" xmlns="http://www.w3.org/2000/svg">
<path d="M1435.45 138.091C1411.37 135.312 1385.7 131.343 1358.87 125.198C1268.64 104.748 1196.36 69.6447 1142.43 36.3962" stroke="black" stroke-width="19.0347" stroke-miterlimit="10"/>
<path d="M1356.71 -43.152C1364.05 -17.3616 1379.45 23.6558 1414.36 61.842C1490.04 144.641 1595.54 146.392 1616.81 146.484C1604.28 144.873 1585.26 142.949 1562.09 141.292C1475.54 135.283 1423.78 131.42 1372.19 152.965C1352.51 160.926 1322.73 177.129 1291.91 210.383" stroke="black" stroke-width="19.0347" stroke-miterlimit="10"/>
<path d="M1276.76 336.431C1318.49 302.372 1324.72 240.938 1290.66 199.214C1256.61 157.49 1195.18 151.276 1153.44 185.335C1111.71 219.394 1105.49 280.828 1139.54 322.552C1173.6 364.276 1235.03 370.49 1276.76 336.431Z" fill="#CE4323"/>
<path d="M1115.81 87.4231C1157.54 53.3644 1163.77 -8.06953 1129.71 -49.7935C1095.66 -91.5174 1034.23 -97.7313 992.494 -63.6726C950.763 -29.6139 944.539 31.8201 978.592 73.544C1012.64 115.268 1074.08 121.482 1115.81 87.4231Z" fill="#CE4323"/>
<path d="M1387.37 -54.4636C1429.1 -88.5223 1435.33 -149.956 1401.27 -191.68C1367.22 -233.404 1305.78 -239.618 1264.05 -205.559C1222.32 -171.501 1216.1 -110.067 1250.15 -68.3427C1284.2 -26.6188 1345.64 -20.4049 1387.37 -54.4636Z" fill="#CE4323"/>
<path d="M948.586 -55.2675C951.411 -59.4425 961.295 -58.7858 968.049 -54.3283C978.367 -47.7946 982.288 -32.3006 979.445 -14.4024C977.604 -9.78482 967.655 13.9138 947.267 18.7142C939.519 20.6755 927.528 20.4921 926.041 14.8516C923.47 6.35659 945.944 -8.86969 949.615 -11.2433C935.646 -5.45058 923.763 -10.0838 921.124 -17.8995C919.331 -23.914 923.179 -31.4166 928.416 -35.6907C935.898 -41.7965 947.751 -40.2544 956.809 -31.4463C947.377 -39.9492 945.013 -50.4821 948.586 -55.2675Z" fill="black"/>
<path d="M1106.86 279.163C1105.98 274.27 1113.16 267.791 1120.9 265.829C1132.49 263.227 1146.75 271.531 1157.67 285.675C1159.6 290.331 1169.93 313.679 1159.17 331.806C1155.01 338.934 1146.65 347.009 1141.42 344.422C1133.92 340.575 1138.33 313.914 1139.12 309.533C1133.6 323.386 1121.74 328.706 1114.54 325.233C1109.01 322.271 1106.06 314.082 1106.68 307.968C1107.65 298.458 1117 290.826 1129.36 290.704C1117 290.826 1107.97 285.109 1106.86 279.163Z" fill="black"/>
<path d="M1576.96 -5.43655C1604.35 66.3019 1594.15 126.346 1590.62 144.176C1575.59 133.391 1527.95 95.6317 1500.18 24.1985C1493.45 6.01776 1471.82 -54.8442 1486.52 -125.414C1501.55 -114.629 1549.2 -76.8697 1576.96 -5.43655Z" fill="black"/>
<path d="M1196.56 -27.0982C1204.39 17.6131 1189.63 51.4628 1184.83 61.6139C1177.06 53.6225 1151.99 26.725 1144.55 -18.2916C1142.62 -29.809 1137.51 -67.3839 1156.28 -107.004C1164.35 -98.6383 1189.05 -71.4355 1196.56 -27.0982Z" fill="black"/>
<path d="M1373.8 247.921C1381.62 292.632 1366.87 326.482 1362.06 336.633C1354.3 328.641 1329.23 301.744 1321.78 256.727C1319.86 245.21 1314.74 207.635 1333.51 168.015C1341.28 176.006 1365.98 203.209 1373.8 247.921Z" fill="black"/>
<path d="M1229.14 176.241C1271.38 192.865 1307.5 185.195 1318.41 182.524C1312.13 173.312 1290.81 143.361 1248.2 127.042C1237.3 122.851 1201.51 110.31 1158.93 120.758C1165.2 129.971 1186.91 159.616 1229.14 176.241Z" fill="black"/>
<path d="M1435.6 -49.5853C1414.72 -9.49235 1382.33 8.84773 1372.57 13.6941C1370.96 2.55065 1367.81 -34.1388 1388.69 -74.2318C1394.17 -84.3142 1412.62 -117.446 1451.71 -137.511C1452.65 -126.437 1456.48 -89.6783 1435.6 -49.5853Z" fill="black"/>
<path d="M1301.89 27.1349C1347.31 29.3265 1378.72 10.5437 1388.24 4.64405C1379.35 -2.43148 1349.59 -23.6277 1304.17 -25.8193C1292.55 -26.308 1254.85 -26.6905 1217.82 -3.32837C1226.72 3.74716 1256.78 25.3173 1301.89 27.1349Z" fill="black"/>
<path d="M1108.19 89.891C1075.77 121.954 1068.36 157.918 1066.2 169.024C1077.04 167.032 1113.46 159.736 1145.5 127.978C1153.87 119.903 1179.69 91.9764 1187.49 48.8454C1177.03 50.5319 1140.6 57.8277 1108.19 89.891Z" fill="black"/>
<path d="M1508.55 273.472C1559.04 215.443 1569.92 155.467 1572.76 137.569C1555.09 142.644 1496.91 161.465 1446.8 219.188C1433.97 234.018 1392.9 283.735 1382.59 355.091C1399.88 350.321 1458.06 331.5 1508.55 273.472Z" fill="black"/>
<path d="M1442.28 811.707C1426.22 726.552 1380.78 675.059 1366.94 660.05C1359.09 679.218 1335.11 743.803 1351.17 828.414C1355.33 850.109 1370.62 921.131 1426.51 980.071C1434.37 961.447 1458.35 896.861 1442.28 811.707Z" fill="black"/>
<path d="M1284.05 873.687C1238.18 855.928 1199.74 862.413 1188.36 864.592C1195.25 874.118 1219.21 905.023 1264.82 922.624C1276.52 927.116 1315.35 941.015 1360.51 931.719C1353.88 922.352 1329.92 891.447 1284.05 873.687Z" fill="black"/>
<path d="M-29.5648 995.015C18.4517 1007.77 56.3227 997.003 67.5092 993.557C59.5363 984.756 32.0625 956.381 -15.6705 943.758C-27.9197 940.543 -68.4355 930.886 -112.744 945.216C-105.055 953.887 -77.5812 982.262 -29.5648 995.015Z" fill="black"/>
<path d="M-211.975 999.139C-201.452 994.538 -185.725 987.149 -166.892 977.614C-96.6126 941.851 -54.452 920.671 -24.2992 879.762C-12.6781 864.359 2.9643 837.811 11.4498 797.483" stroke="black" stroke-width="6.51878" stroke-miterlimit="10"/>
<path d="M-66.6745 920.924C-46.6027 911.836 -24.731 902.932 -0.944436 895.184C78.9553 868.957 151.706 862.546 209.291 863.26" stroke="black" stroke-width="6.51878" stroke-miterlimit="10"/>
<path d="M-39.42 688.287C-22.8043 642.232 27.9939 618.365 74.0407 634.978C120.088 651.591 143.946 702.393 127.331 748.447C110.715 794.502 59.9167 818.369 13.8698 801.757C-32.1771 785.144 -56.0357 734.341 -39.42 688.287Z" fill="#CD4223"/>
<path d="M106.967 638.291C109.937 641.696 107.371 650.101 102.248 655.251C94.4308 662.695 79.4356 662.883 64.3129 656.961C60.6322 654.233 41.6671 640.859 41.5823 621.7C41.4889 614.201 44.2379 603.996 49.5229 603.57C57.1694 603.063 66.1857 625.911 67.6196 629.694C65.4497 616.314 72.2113 606.623 79.4451 605.967C85.1427 605.69 91.2659 610.699 93.6402 615.754C97.3336 623.618 93.61 633.939 84.0273 639.813C93.4611 634.352 103.32 634.176 106.967 638.291Z" fill="black"/>
<path d="M-67.6485 788.429C-90.961 754.39 -91.5074 720.832 -91.3579 710.625C-81.9214 714.31 -51.0528 727.117 -27.9347 761.55C-22.0071 770.354 -3.62287 799.51 -4.22518 839.354C-13.6617 835.67 -44.3359 822.469 -67.6485 788.429Z" fill="black"/>
<path d="M76.3407 794.762C35.6442 801.541 11.0702 824.401 3.81498 831.581C13.0103 835.831 43.6345 849.213 84.48 842.021C94.9349 840.195 128.695 833.246 157.006 805.203C147.81 800.952 117.037 787.983 76.3407 794.762Z" fill="black"/>
<path d="M206.58 813.732C223.196 767.678 273.994 743.811 320.041 760.423C366.088 777.036 389.946 827.838 373.331 873.893C356.715 919.948 305.917 943.815 259.87 927.202C213.823 910.589 189.964 859.787 206.58 813.732Z" fill="#CD4223"/>
<path d="M403.402 843.716C403.151 848.291 395.138 852.399 387.789 852.08C376.692 851.809 366.395 841.562 360.246 826.28C359.523 821.82 356.204 798.695 369.855 785.424C374.978 780.275 384.412 774.814 388.208 778.516C394.182 783.937 383.778 806.31 382.024 809.877C390.207 798.832 401.637 796.891 407.347 801.75C411.555 805.601 412.062 813.249 409.976 819.028C406.998 827.285 397.036 831.622 385.858 828.989C397.036 831.622 403.802 838.728 403.402 843.716Z" fill="black"/>
<path d="M221.841 808.306C241.962 772.076 239.278 738.807 238.331 728.569C229.38 733.066 199.455 748.706 179.583 784.574C174.339 793.75 158.92 824.691 163.094 864.312C171.796 860.176 201.721 844.536 221.841 808.306Z" fill="black"/>
<path d="M196.772 938.058C169.778 906.857 165.459 873.574 164.46 863.415C174.251 866.015 206.364 875.268 233.21 906.881C240.09 914.962 261.638 941.865 265.522 981.524C255.318 978.776 223.354 969.11 196.772 938.058Z" fill="black"/>
</svg>
