<svg width="1440" height="900" viewBox="0 0 1440 900" fill="none" xmlns="http://www.w3.org/2000/svg">
<path d="M1497.05 871.253C1567.91 863.441 1619.02 799.676 1611.21 728.831C1603.39 657.985 1539.62 606.886 1468.76 614.697C1397.91 622.509 1346.8 686.274 1354.61 757.12C1362.42 827.965 1426.19 879.065 1497.05 871.253Z" fill="#CD4223"/>
<path d="M1410.37 487.44C1481.23 479.628 1532.34 415.863 1524.53 345.018C1516.72 274.172 1452.94 223.073 1382.08 230.884C1311.23 238.696 1260.12 302.461 1267.93 373.306C1275.74 444.152 1339.51 495.251 1410.37 487.44Z" fill="#CD4223"/>
<path d="M1425.86 202.279C1419.3 201.074 1410.75 211.015 1408.7 221.526C1405.29 237.327 1416.29 255.398 1435.82 269.313C1441.89 271.858 1473.49 284.443 1496.93 269.646C1505.97 264.151 1516.92 252.66 1512.97 246.024C1507.33 235.719 1472.12 242.815 1466.47 244.08C1484.89 236.264 1491.54 220.748 1486.61 211.008C1482.59 203.738 1471.94 200.413 1463.05 201.393C1450.35 202.793 1440.81 215.414 1440.72 232.135C1440.81 215.414 1433.06 203.414 1425.86 202.279Z" fill="#ECE1CF"/>
<path d="M1221.84 462.588C1256.8 511.44 1302.44 528.905 1316.48 533.785C1316.14 519.039 1314 470.426 1278.4 421.644C1269.31 409.148 1238.58 369.471 1183.77 350.447C1184.18 365.828 1186.96 414.371 1221.84 462.588Z" fill="#ECE1CF"/>
<path d="M1367.97 884.192C1402.93 933.044 1448.57 950.509 1462.61 955.389C1462.27 940.643 1460.12 892.03 1424.53 843.248C1415.44 830.752 1384.7 791.075 1329.89 772.051C1330.23 786.797 1333.01 835.34 1367.97 884.192Z" fill="#ECE1CF"/>
<path d="M1383.6 681.933C1360.13 737.227 1319.39 764.215 1306.75 772.035C1303.87 757.57 1295.37 709.657 1319.48 654.293C1325.63 640.117 1346.98 594.698 1396.34 564.19C1399.22 578.656 1407.08 626.639 1383.6 681.933Z" fill="#ECE1CF"/>
<path d="M1414.25 487.658C1474.59 486.791 1515.42 513.141 1527.9 521.407C1515.97 529.793 1475.3 557.416 1415.6 558.212C1400.22 558.623 1349.91 557.099 1301.95 524.463C1313.25 516.147 1353.92 488.525 1414.25 487.658Z" fill="#ECE1CF"/>
<path d="M967.517 870.494C1014.03 916.516 1027.07 966.705 1030.62 981.708C1015.3 978.525 964.751 966.252 918.575 920.465C906.753 908.698 868.759 869.129 855.476 809.25C870.452 812.198 921.003 824.471 967.517 870.494Z" fill="#ECE1CF"/>
<path d="M995.97 1020.34C1006.07 1007.01 1021.9 987.271 1041.82 963.864C1116.41 876.581 1160.77 824.127 1228.96 795.398C1254.73 784.202 1297.64 771.115 1357.62 772.858" stroke="#ECE1CF" stroke-width="9.49145" stroke-miterlimit="10"/>
<path d="M1156.24 841.338C1175.95 816.026 1196.02 788.103 1215.09 757.076C1279.47 652.923 1313.36 552.13 1331.99 470.375" stroke="#ECE1CF" stroke-width="9.49145" stroke-miterlimit="10"/>
<path d="M1064.52 749.649C1078.86 798.534 1090.91 912.928 1024.32 979.426" stroke="#ECE1CF" stroke-width="9.49"/>
<path d="M1015.5 437.649C1043.57 437.649 1071.19 444.704 1095.82 458.165L1015.5 605.137V437.649Z" fill="#ECE1CF"/>
<path d="M1095.82 458.165C1169.91 498.652 1202.27 587.948 1171.34 666.502C1140.41 745.056 1055.85 788.309 974.051 767.416C892.252 746.523 838.791 668.015 849.32 584.25C859.848 500.484 931.076 437.649 1015.5 437.649V605.138L1095.82 458.165Z" fill="#CD4223"/>
<path d="M962.58 682.929C961.606 683.569 960.4 683.889 958.96 683.889C957.52 683.889 956.306 683.569 955.32 682.929C954.333 682.276 953.84 681.376 953.84 680.229C953.84 679.416 954.12 678.709 954.68 678.109C955.253 677.509 955.973 677.062 956.84 676.769C956.013 676.502 955.34 676.109 954.82 675.589C954.313 675.069 954.06 674.409 954.06 673.609C954.06 673.022 954.2 672.496 954.48 672.029C954.773 671.562 955.153 671.196 955.62 670.929C956.1 670.662 956.62 670.462 957.18 670.329C957.753 670.182 958.346 670.109 958.96 670.109C959.573 670.109 960.16 670.182 960.72 670.329C961.28 670.462 961.8 670.662 962.28 670.929C962.76 671.196 963.14 671.562 963.42 672.029C963.713 672.496 963.86 673.022 963.86 673.609C963.86 675.116 962.926 676.169 961.06 676.769C961.926 677.062 962.64 677.509 963.2 678.109C963.773 678.709 964.06 679.416 964.06 680.229C964.06 681.376 963.566 682.276 962.58 682.929ZM958.96 675.849C959.32 675.782 959.666 675.696 960 675.589C960.333 675.469 960.66 675.269 960.98 674.989C961.313 674.696 961.48 674.356 961.48 673.969C961.48 673.422 961.24 672.989 960.76 672.669C960.293 672.349 959.693 672.189 958.96 672.189C958.213 672.189 957.6 672.349 957.12 672.669C956.653 672.989 956.42 673.422 956.42 673.969C956.42 674.356 956.586 674.696 956.92 674.989C957.253 675.269 957.586 675.469 957.92 675.589C958.253 675.696 958.6 675.782 958.96 675.849ZM958.96 681.809C959.72 681.809 960.366 681.636 960.9 681.289C961.433 680.942 961.7 680.489 961.7 679.929C961.7 679.329 961.386 678.849 960.76 678.489C960.146 678.116 959.546 677.896 958.96 677.829C958.613 677.869 958.246 677.962 957.86 678.109C957.473 678.242 957.1 678.476 956.74 678.809C956.38 679.129 956.2 679.502 956.2 679.929C956.2 680.489 956.46 680.942 956.98 681.289C957.513 681.636 958.173 681.809 958.96 681.809ZM971.214 683.889C970.268 683.889 969.434 683.709 968.714 683.349C967.994 682.976 967.421 682.469 966.994 681.829C966.568 681.189 966.248 680.469 966.034 679.669C965.821 678.856 965.714 677.969 965.714 677.009C965.714 674.996 966.228 673.342 967.254 672.049C968.281 670.756 969.728 670.109 971.594 670.109C973.141 670.109 974.421 670.602 975.434 671.589L974.334 673.369C973.588 672.582 972.674 672.189 971.594 672.189C970.528 672.189 969.674 672.616 969.034 673.469C968.394 674.322 968.074 675.362 968.074 676.589C968.074 676.762 968.081 676.889 968.094 676.969C968.428 676.476 968.921 676.042 969.574 675.669C970.228 675.296 970.928 675.109 971.674 675.109C972.941 675.109 974.001 675.489 974.854 676.249C975.708 676.996 976.134 678.049 976.134 679.409C976.134 680.676 975.681 681.742 974.774 682.609C973.868 683.462 972.681 683.889 971.214 683.889ZM971.094 681.809C971.921 681.809 972.574 681.576 973.054 681.109C973.534 680.629 973.774 680.089 973.774 679.489C973.774 678.716 973.514 678.129 972.994 677.729C972.474 677.316 971.821 677.109 971.034 677.109C970.474 677.109 969.934 677.256 969.414 677.549C968.894 677.829 968.461 678.209 968.114 678.689C968.194 679.542 968.474 680.276 968.954 680.889C969.434 681.502 970.148 681.809 971.094 681.809ZM980.866 682.889C980.866 683.556 980.693 684.189 980.346 684.789C980.013 685.402 979.559 685.909 978.986 686.309L978.046 685.529C978.379 685.329 978.686 685.049 978.966 684.689C979.246 684.329 979.419 683.982 979.486 683.649C979.366 683.689 979.253 683.709 979.146 683.709C978.799 683.709 978.513 683.596 978.286 683.369C978.059 683.129 977.946 682.822 977.946 682.449C977.946 682.076 978.079 681.756 978.346 681.489C978.613 681.209 978.933 681.069 979.306 681.069C979.733 681.069 980.099 681.236 980.406 681.569C980.713 681.889 980.866 682.329 980.866 682.889ZM986.191 683.649H983.851V673.349L981.671 675.609L980.311 674.189L984.151 670.309H986.191V683.649ZM991.469 676.729C990.496 676.729 989.702 676.422 989.089 675.809C988.476 675.182 988.169 674.396 988.169 673.449C988.169 672.489 988.476 671.696 989.089 671.069C989.702 670.429 990.496 670.109 991.469 670.109C992.456 670.109 993.256 670.429 993.869 671.069C994.496 671.696 994.809 672.489 994.809 673.449C994.809 674.396 994.496 675.182 993.869 675.809C993.256 676.422 992.456 676.729 991.469 676.729ZM991.509 683.649H990.189L998.709 670.309H1000.05L991.509 683.649ZM1001.03 682.969C1000.42 683.582 999.622 683.889 998.649 683.889C997.676 683.889 996.882 683.582 996.269 682.969C995.656 682.342 995.349 681.556 995.349 680.609C995.349 679.649 995.656 678.856 996.269 678.229C996.882 677.589 997.676 677.269 998.649 677.269C999.622 677.269 1000.42 677.589 1001.03 678.229C1001.66 678.869 1001.97 679.662 1001.97 680.609C1001.97 681.556 1001.66 682.342 1001.03 682.969ZM991.469 675.409C991.989 675.409 992.416 675.229 992.749 674.869C993.082 674.496 993.249 674.022 993.249 673.449C993.249 672.849 993.082 672.369 992.749 672.009C992.416 671.636 991.989 671.449 991.469 671.449C990.949 671.449 990.522 671.636 990.189 672.009C989.869 672.369 989.709 672.849 989.709 673.449C989.709 674.022 989.876 674.496 990.209 674.869C990.542 675.229 990.962 675.409 991.469 675.409ZM997.369 682.029C997.702 682.389 998.129 682.569 998.649 682.569C999.169 682.569 999.596 682.389 999.929 682.029C1000.26 681.656 1000.43 681.182 1000.43 680.609C1000.43 680.009 1000.26 679.529 999.929 679.169C999.596 678.796 999.169 678.609 998.649 678.609C998.129 678.609 997.702 678.796 997.369 679.169C997.049 679.529 996.889 680.009 996.889 680.609C996.889 681.182 997.049 681.656 997.369 682.029Z" fill="black"/>
<path d="M1016 437.649C1065.44 437.649 1112.32 459.623 1144 497.637L1016 604.649V437.649Z" fill="#ECE1CF"/>
<path d="M1048.18 509.649H1045.84V499.349L1043.66 501.609L1042.3 500.189L1046.14 496.309H1048.18V509.649ZM1055.12 509.889C1053.98 509.889 1052.98 509.689 1052.1 509.289C1051.23 508.889 1050.56 508.369 1050.08 507.729L1051.34 506.189C1051.76 506.682 1052.31 507.076 1052.98 507.369C1053.64 507.662 1054.33 507.809 1055.04 507.809C1055.9 507.809 1056.58 507.629 1057.08 507.269C1057.57 506.896 1057.82 506.396 1057.82 505.769C1057.82 504.516 1056.83 503.889 1054.86 503.889C1053.96 503.889 1053.45 503.896 1053.32 503.909V501.809C1053.48 501.822 1053.99 501.829 1054.86 501.829C1055.68 501.829 1056.34 501.682 1056.84 501.389C1057.34 501.096 1057.6 500.656 1057.6 500.069C1057.6 499.469 1057.34 499.009 1056.84 498.689C1056.33 498.356 1055.68 498.189 1054.9 498.189C1053.59 498.189 1052.44 498.682 1051.46 499.669L1050.26 498.209C1051.44 496.809 1053.06 496.109 1055.12 496.109C1056.57 496.109 1057.74 496.436 1058.62 497.089C1059.5 497.729 1059.94 498.602 1059.94 499.709C1059.94 500.536 1059.64 501.222 1059.06 501.769C1058.48 502.302 1057.81 502.636 1057.04 502.769C1057.8 502.836 1058.5 503.156 1059.16 503.729C1059.81 504.302 1060.14 505.062 1060.14 506.009C1060.14 507.156 1059.68 508.089 1058.76 508.809C1057.85 509.529 1056.64 509.889 1055.12 509.889ZM1065.04 508.889C1065.04 509.556 1064.87 510.189 1064.52 510.789C1064.19 511.402 1063.74 511.909 1063.16 512.309L1062.22 511.529C1062.56 511.329 1062.86 511.049 1063.14 510.689C1063.42 510.329 1063.6 509.982 1063.66 509.649C1063.54 509.689 1063.43 509.709 1063.32 509.709C1062.98 509.709 1062.69 509.596 1062.46 509.369C1062.24 509.129 1062.12 508.822 1062.12 508.449C1062.12 508.076 1062.26 507.756 1062.52 507.489C1062.79 507.209 1063.11 507.069 1063.48 507.069C1063.91 507.069 1064.28 507.236 1064.58 507.569C1064.89 507.889 1065.04 508.329 1065.04 508.889ZM1071.28 509.869C1069.72 509.869 1068.45 509.376 1067.46 508.389L1068.54 506.629C1069.29 507.402 1070.2 507.789 1071.28 507.789C1072.42 507.789 1073.28 507.362 1073.88 506.509C1074.5 505.642 1074.8 504.609 1074.8 503.409V503.009C1074.46 503.502 1073.96 503.942 1073.3 504.329C1072.65 504.702 1071.96 504.889 1071.22 504.889C1069.96 504.889 1068.89 504.509 1068.02 503.749C1067.17 502.989 1066.74 501.929 1066.74 500.569C1066.74 499.302 1067.2 498.242 1068.1 497.389C1069.02 496.522 1070.21 496.089 1071.66 496.089C1072.92 496.089 1073.96 496.416 1074.8 497.069C1075.66 497.709 1076.26 498.536 1076.62 499.549C1076.98 500.549 1077.16 501.696 1077.16 502.989C1077.16 504.989 1076.65 506.636 1075.62 507.929C1074.6 509.222 1073.15 509.869 1071.28 509.869ZM1071.84 502.869C1072.42 502.869 1072.96 502.729 1073.48 502.449C1074 502.169 1074.43 501.789 1074.76 501.309C1074.7 500.469 1074.42 499.736 1073.92 499.109C1073.44 498.482 1072.73 498.169 1071.78 498.169C1070.97 498.169 1070.32 498.409 1069.84 498.889C1069.36 499.369 1069.12 499.902 1069.12 500.489C1069.12 501.262 1069.38 501.856 1069.9 502.269C1070.42 502.669 1071.07 502.869 1071.84 502.869ZM1081.86 502.729C1080.88 502.729 1080.09 502.422 1079.48 501.809C1078.86 501.182 1078.56 500.396 1078.56 499.449C1078.56 498.489 1078.86 497.696 1079.48 497.069C1080.09 496.429 1080.88 496.109 1081.86 496.109C1082.84 496.109 1083.64 496.429 1084.26 497.069C1084.88 497.696 1085.2 498.489 1085.2 499.449C1085.2 500.396 1084.88 501.182 1084.26 501.809C1083.64 502.422 1082.84 502.729 1081.86 502.729ZM1081.9 509.649H1080.58L1089.1 496.309H1090.44L1081.9 509.649ZM1091.42 508.969C1090.8 509.582 1090.01 509.889 1089.04 509.889C1088.06 509.889 1087.27 509.582 1086.66 508.969C1086.04 508.342 1085.74 507.556 1085.74 506.609C1085.74 505.649 1086.04 504.856 1086.66 504.229C1087.27 503.589 1088.06 503.269 1089.04 503.269C1090.01 503.269 1090.8 503.589 1091.42 504.229C1092.04 504.869 1092.36 505.662 1092.36 506.609C1092.36 507.556 1092.04 508.342 1091.42 508.969ZM1081.86 501.409C1082.38 501.409 1082.8 501.229 1083.14 500.869C1083.47 500.496 1083.64 500.022 1083.64 499.449C1083.64 498.849 1083.47 498.369 1083.14 498.009C1082.8 497.636 1082.38 497.449 1081.86 497.449C1081.34 497.449 1080.91 497.636 1080.58 498.009C1080.26 498.369 1080.1 498.849 1080.1 499.449C1080.1 500.022 1080.26 500.496 1080.6 500.869C1080.93 501.229 1081.35 501.409 1081.86 501.409ZM1087.76 508.029C1088.09 508.389 1088.52 508.569 1089.04 508.569C1089.56 508.569 1089.98 508.389 1090.32 508.029C1090.65 507.656 1090.82 507.182 1090.82 506.609C1090.82 506.009 1090.65 505.529 1090.32 505.169C1089.98 504.796 1089.56 504.609 1089.04 504.609C1088.52 504.609 1088.09 504.796 1087.76 505.169C1087.44 505.529 1087.28 506.009 1087.28 506.609C1087.28 507.182 1087.44 507.656 1087.76 508.029Z" fill="black"/>
<path d="M60.2704 3.51759C111.924 12.297 143.551 39.2012 152.775 47.4046C141.274 52.3593 102.493 67.5607 51.1676 58.7807C38.0073 56.5041 -5.09476 48.0371 -41.3374 14.8937C-30.1644 9.93956 8.61643 -5.2618 60.2704 3.51759Z" fill="#ECE1CF"/>
<path d="M24.5307 99.8516C35.7687 127.387 32.2688 150.695 31.0764 157.6C25.2424 153.538 6.29725 139.392 -4.84199 112.015C-7.68602 104.987 -16.5133 81.6688 -11.3877 54.2667C-5.65249 58.1701 13.2926 72.316 24.5307 99.8516Z" fill="#ECE1CF"/>
</svg>
