<svg width="1440" height="837" viewBox="0 0 1440 837" fill="none" xmlns="http://www.w3.org/2000/svg">
<path d="M1405 710.105C1492.94 696.138 1547.18 651.001 1563.01 637.23C1543.56 628.598 1477.93 602.05 1390.55 616.024C1368.15 619.65 1294.74 633.244 1232.54 688.899C1251.44 697.524 1317.06 724.072 1405 710.105Z" fill="black"/>
<path d="M1514.46 460.082C1509.79 396.979 1481.05 355.889 1472.24 343.864C1464.97 357.128 1442.27 402.022 1446.98 464.73C1448.22 480.812 1453.49 533.598 1489.21 580.949C1496.44 568.08 1519.13 523.186 1514.46 460.082Z" fill="black"/>
<path d="M1595.47 677.891C1585.55 667.145 1570.1 651.298 1550.77 632.607C1478.43 562.937 1435.37 521.027 1373.56 501.794C1350.18 494.229 1311.71 486.472 1259.64 493.073" stroke="black" stroke-width="8.30261" stroke-miterlimit="10"/>
<path d="M1440.77 535.631C1421.46 515.264 1401.63 492.654 1382.39 467.257C1317.51 382.034 1279.47 297.152 1256.32 227.552" stroke="black" stroke-width="8.30261" stroke-miterlimit="10"/>
<path d="M1149.43 599.817C1087.08 599.021 1037.17 547.836 1037.97 485.494C1038.77 423.151 1089.96 373.258 1152.31 374.055C1214.67 374.852 1264.57 426.036 1263.77 488.378C1262.98 550.721 1211.78 600.614 1149.43 599.817Z" fill="#CD4223"/>
<path d="M1028.23 444.486C1031.09 439.493 1042.28 439.077 1050.61 443.096C1062.83 449.4 1069.31 467.367 1068.48 488.037C1066.73 493.603 1058.55 522.003 1035.52 530.093C1026.54 533.331 1013.11 534.277 1010.39 528.095C1006.6 519.104 1030.33 498.727 1034.29 495.424C1019.09 503.614 1004.61 499.517 1000.8 491.084C998.095 484.343 1001.57 474.886 1006.66 469.921C1014.59 462.197 1028.56 462.376 1039.63 471.46C1029.12 462.383 1024.8 450.59 1028.23 444.486Z" fill="black"/>
<path d="M1281.72 592.041C1250.47 634.288 1210.31 648.936 1197.97 653.011C1198.47 640.118 1201.01 597.629 1232.81 555.452C1240.94 544.648 1268.36 510.368 1316.56 494.482C1316.06 507.374 1312.96 549.794 1281.72 592.041Z" fill="black"/>
<path d="M1229.31 416.112C1254.43 462.263 1292.19 482.307 1303.86 488.045C1305.14 475.207 1308.48 432.772 1282.79 386.614C1276.24 374.793 1253.8 337.06 1208.25 314.68C1206.96 327.519 1204.19 369.96 1229.31 416.112Z" fill="black"/>
<path d="M1197.84 251.463C1135.49 250.666 1085.59 199.482 1086.39 137.139C1087.18 74.7969 1138.38 24.9041 1200.73 25.7007C1263.08 26.4973 1312.98 77.6816 1312.19 140.024C1311.39 202.367 1260.2 252.259 1197.84 251.463Z" fill="#CD4223"/>
<path d="M1151.87 2.09084C1157.48 0.485793 1165.77 8.4164 1168.45 17.3932C1172.75 30.8619 1164.71 47.5264 1148.88 61.2969C1143.82 64.0267 1117.37 77.6615 1095.71 66.7655C1087.37 62.7467 1076.87 53.6699 1079.74 47.5586C1083.77 38.1087 1115.04 41.3027 1120.06 41.9258C1103.36 36.6823 1096.26 23.7366 1099.72 14.8384C1102.6 8.16833 1111.6 4.37081 1119.42 4.47078C1130.6 4.61358 1139.97 14.7937 1141.46 29.3444C1139.97 14.7937 1145.7 3.68874 1151.87 2.09084Z" fill="black"/>
<path d="M1184.95 235.358C1132.96 226.248 1094.04 243.348 1082.11 248.756C1091.26 257.653 1122.56 287.147 1174.01 296.109C1187.24 298.595 1230.9 304.252 1276.84 282.711C1268.24 273.962 1236.94 244.468 1184.95 235.358Z" fill="black"/>
<path d="M1351.56 211.435C1325.26 256.93 1287 276.003 1275.2 281.441C1274.24 268.574 1271.99 226.068 1298.84 180.581C1305.7 168.931 1329.1 131.783 1375.2 110.575C1376.15 124.001 1377.84 166.499 1351.56 211.435Z" fill="black"/>
<path d="M-249.341 1041.76C-237.5 1036.58 -219.803 1028.27 -198.611 1017.54C-119.531 977.298 -72.0907 953.466 -38.1619 907.434C-25.0854 890.102 -7.48414 860.229 2.06398 814.851" stroke="black" stroke-width="7.33512" stroke-miterlimit="10"/>
<path d="M-85.844 953.751C-63.2586 943.525 -38.6479 933.505 -11.8826 924.787C78.0229 895.276 159.884 888.062 224.681 888.865" stroke="black" stroke-width="7.33512" stroke-miterlimit="10"/>
<path d="M-55.1761 691.98C-36.4796 640.158 20.6799 613.302 72.4932 631.995C124.307 650.689 151.153 707.853 132.457 759.675C113.76 811.497 56.6005 838.353 4.78716 819.66C-47.0262 800.966 -73.8727 743.802 -55.1761 691.98Z" fill="#CD4223"/>
<path d="M109.543 635.724C112.885 639.554 109.997 649.012 104.232 654.807C95.4365 663.183 78.5635 663.395 61.5469 656.731C57.4053 653.662 36.0652 638.613 35.9698 617.055C35.8647 608.617 38.958 597.134 44.9048 596.654C53.5089 596.084 63.6543 621.793 65.2678 626.05C62.8261 610.995 70.4344 600.09 78.5741 599.352C84.9853 599.04 91.8753 604.676 94.5469 610.364C98.7028 619.213 94.5129 630.826 83.7302 637.436C94.3453 631.291 105.439 631.094 109.543 635.724Z" fill="black"/>
<path d="M-86.94 804.664C-113.172 766.361 -113.787 728.601 -113.619 717.116C-103 721.262 -68.266 735.673 -42.2528 774.418C-35.5829 784.325 -14.8965 817.132 -15.5742 861.966C-26.1924 857.82 -60.708 842.966 -86.94 804.664Z" fill="black"/>
<path d="M75.0812 811.79C29.2882 819.417 1.63684 845.14 -6.5269 853.219C3.81997 858.002 38.2792 873.059 84.2397 864.967C96.004 862.911 133.992 855.093 165.848 823.537C155.501 818.755 120.874 804.162 75.0812 811.79Z" fill="black"/>
<path d="M221.63 833.135C240.327 781.313 297.486 754.457 349.299 773.151C401.113 791.844 427.959 849.008 409.263 900.83C390.566 952.652 333.407 979.508 281.593 960.815C229.78 942.122 202.934 884.958 221.63 833.135Z" fill="#CD4223"/>
<path d="M443.1 866.874C442.817 872.022 433.801 876.644 425.532 876.285C413.045 875.98 401.458 864.45 394.54 847.255C393.726 842.236 389.992 816.215 405.352 801.282C411.117 795.488 421.732 789.343 426.003 793.509C432.725 799.609 421.018 824.784 419.046 828.797C428.253 816.369 441.114 814.185 447.539 819.653C452.275 823.986 452.844 832.591 450.498 839.094C447.146 848.385 435.937 853.265 423.359 850.302C435.937 853.265 443.55 861.262 443.1 866.874Z" fill="black"/>
<path d="M238.803 827.03C261.443 786.263 258.423 748.827 257.357 737.307C247.286 742.367 213.613 759.966 191.253 800.326C185.351 810.651 168.002 845.467 172.699 890.049C182.49 885.395 216.163 867.797 238.803 827.03Z" fill="black"/>
</svg>
