<svg width="1440" height="900" viewBox="0 0 1440 900" fill="none" xmlns="http://www.w3.org/2000/svg">
<path d="M1250.73 49.3162C1221.59 60.2801 1190.84 73.2244 1159.32 89.2381C1053.27 142.826 974.144 209.081 917.299 267.31" stroke="#ECE1CF" stroke-width="17.7983" stroke-miterlimit="10"/>
<path d="M1209.08 299.676C1210.19 265.255 1216.6 209.349 1248.2 150.895C1316.7 24.1511 1447.62 -10.8966 1474.09 -17.6356C1458.98 -11.7245 1435.88 -3.40223 1407.53 5.87836C1301.56 40.3257 1238.27 61.2647 1167.27 50.491C1140.27 46.7026 1098.12 35.7897 1049.35 3.95534" stroke="#ECE1CF" stroke-width="17.7983" stroke-miterlimit="10"/>
<path d="M991.215 -148.384C1053.82 -118.946 1080.72 -44.3374 1051.28 18.2591C1021.85 80.8556 947.236 107.736 884.629 78.298C822.022 48.86 795.129 -25.7487 824.562 -88.3452C853.995 -150.942 928.608 -177.822 991.215 -148.384Z" fill="#CE4323"/>
<path d="M868.237 212.021C930.844 241.459 957.737 316.068 928.304 378.665C898.871 441.261 824.258 468.141 761.651 438.704C699.044 409.266 672.151 334.657 701.584 272.06C731.017 209.464 805.63 182.584 868.237 212.021Z" fill="#CE4323"/>
<path d="M1250.8 304.22C1313.41 333.658 1340.3 408.267 1310.87 470.864C1281.44 533.46 1206.82 560.34 1144.22 530.902C1081.61 501.465 1054.72 426.856 1084.15 364.259C1113.58 301.663 1188.2 274.782 1250.8 304.22Z" fill="#CE4323"/>
<path d="M1215.16 573.851C1221.53 573.42 1227.93 562.726 1227.96 552.463C1228.41 536.919 1214.45 521.444 1193.12 511.417C1186.98 509.901 1154.37 503.474 1134.84 521.695C1127.25 529.09 1119.23 541.764 1123.53 547.208C1130.39 555.919 1162.54 542.941 1168.31 540.861C1152.21 551.788 1148.72 567.96 1154.73 575.582C1159.88 582.115 1171 583.234 1178.43 580.559C1189.98 576.398 1197.43 563.46 1194.55 547.719C1198.29 564.549 1207.96 574.579 1215.16 573.851Z" fill="#ECE1CF"/>
<path d="M704.322 441.909C709.142 446.231 721.254 442.333 728.281 434.675C739.102 423.32 739.16 402.793 730.043 381.377C726.311 376.197 706.531 349.767 679.632 350.137C669.367 350.107 654.483 354.071 654.387 361.562C653.83 372.948 686.576 384.919 691.891 386.733C672.681 383.867 659.317 393.341 658.463 403.902C658.103 411.955 665.235 420.104 673.092 423.798C684.316 429.076 698.605 423.462 707.148 409.665C698.044 423.198 698.379 437.059 704.322 441.909Z" fill="#ECE1CF"/>
<path d="M797.35 -24.1001C797.782 -17.7309 808.742 -11.8923 819.006 -11.8619C834.255 -12.2288 849.431 -27.0173 858.632 -48.0417C859.587 -54.4443 865.185 -86.7543 846.134 -105.99C838.738 -113.578 825.797 -121.033 820.089 -116.18C811.939 -109.05 825.747 -77.2069 828.093 -71.9932C816.898 -87.5342 800.46 -90.4672 792.575 -83.8979C786.603 -78.4841 785.485 -67.3622 788.161 -59.9375C792.324 -48.388 806.354 -41.7913 821.799 -45.4913C806.354 -41.7913 796.885 -31.8554 797.35 -24.1001Z" fill="#ECE1CF"/>
<path d="M1471.76 184.073C1483.54 86.154 1452.13 14.5154 1442.18 -6.60318C1426.81 11.5186 1379.21 73.4087 1366.87 171.064C1364.14 195.816 1356.15 278.388 1396.45 361.74C1411.82 343.618 1459.42 281.728 1471.76 184.073Z" fill="#ECE1CF"/>
<path d="M1004.53 329.561C1000.35 271.413 971.423 233.832 962.277 222.679C955.086 235.057 932.229 276.381 936.971 334.792C938.165 349.742 943.498 398.154 979.226 441.674C986.68 428.735 1008.98 387.148 1004.53 329.561Z" fill="#ECE1CF"/>
<path d="M1139.7 -68.3266C1135.52 -126.474 1106.59 -164.056 1097.44 -175.208C1090.25 -162.831 1067.39 -121.507 1072.14 -63.0954C1073.33 -48.1459 1078.66 0.266228 1114.39 43.7864C1121.58 31.409 1143.88 -10.1787 1139.7 -68.3266Z" fill="#ECE1CF"/>
<path d="M981.782 66.0496C1029.23 32.178 1076.63 30.4831 1091.05 30.4134C1086.1 43.8463 1068.86 87.8089 1020.85 121.417C1008.57 130.033 967.889 156.808 911.582 157.053C916.527 143.62 934.334 99.9212 981.782 66.0496Z" fill="#ECE1CF"/>
<path d="M1309.38 283.118C1270.88 239.665 1224.8 226.905 1211.13 223.905C1212.59 238.293 1220.1 284.989 1258.6 328.442C1268.57 339.297 1301.89 374.832 1356.85 387.655C1354.56 373.564 1347.88 326.572 1309.38 283.118Z" fill="#ECE1CF"/>
<path d="M1118.88 229.174C1174.78 212.296 1219.78 225.915 1233.47 230.3C1224.6 241.886 1194.12 277.569 1138.21 294.447C1123.89 298.674 1077.03 310.897 1023.62 293.32C1032.49 281.735 1063.24 245.491 1118.88 229.174Z" fill="#ECE1CF"/>
<path d="M857.97 211.321C807.593 181.467 787.146 138.966 781.002 125.8C795.128 124.906 842.787 122.65 892.603 152.24C905.544 159.695 946.414 186.449 969.571 237.76C956.006 238.919 908.347 241.175 857.97 211.321Z" fill="#ECE1CF"/>
<path d="M1299.64 -142.14C1380.62 -85.5627 1412.86 -14.2213 1421.98 7.19452C1398.38 6.37542 1320.02 1.04892 1239.6 -55.2647C1219 -69.7472 1152.35 -118.903 1117.26 -204.599C1140.3 -204.044 1218.66 -198.718 1299.64 -142.14Z" fill="#ECE1CF"/>
<path d="M1370.72 873.087C1319.23 863.386 1288.09 835.921 1279.01 827.554C1290.6 822.806 1329.65 808.3 1380.81 817.995C1393.93 820.507 1436.87 829.742 1472.52 863.528C1461.26 868.282 1422.21 882.788 1370.72 873.087Z" fill="#ECE1CF"/>
<path d="M1408.18 777.407C1397.43 749.675 1401.35 726.434 1402.66 719.551C1408.42 723.716 1427.11 738.199 1437.76 765.77C1440.48 772.847 1448.89 796.32 1443.27 823.626C1437.61 819.621 1418.92 805.139 1408.18 777.407Z" fill="#ECE1CF"/>
<path d="M31.7266 181.357C74.2478 256.864 133.797 291.069 151.72 300.847C153.009 280.174 155.01 211.311 112.672 136.316C101.776 117.101 64.5188 54.7317 -7.32191 16.8254C-8.79294 36.9863 -10.7945 105.849 31.7266 181.357Z" fill="#ECE1CF"/>
<path d="M161.728 71.9128C210.871 74.026 245.199 55.5581 255.283 49.8447C245.701 43.0315 213.096 21.4409 164.255 19.3929C151.726 18.891 110.495 18.1751 70.6999 41.461C79.9803 48.2088 112.585 69.7995 161.728 71.9128Z" fill="#ECE1CF"/>
</svg>
