<svg width="1440" height="900" viewBox="0 0 1440 900" fill="none" xmlns="http://www.w3.org/2000/svg">
<path d="M1560.65 294.439C1588.01 223.353 1577.85 163.853 1574.44 146.234C1559.71 156.935 1511.93 194.134 1484.82 264.809C1477.9 282.949 1456.5 343.113 1471.03 413.013C1485.52 402.723 1533.3 365.525 1560.65 294.439Z" fill="#ECE1CF"/>
<path d="M1422.49 106.242C1373.78 82.65 1331.04 86.3149 1318.36 87.6831C1325.07 98.7484 1348.57 134.792 1397.01 158.186C1409.44 164.163 1450.78 182.889 1501.14 176.744C1494.71 165.877 1471.21 129.833 1422.49 106.242Z" fill="#ECE1CF"/>
<path d="M1618.45 139.634C1606.24 142.375 1587.89 147.019 1565.77 153.314C1483.19 177 1433.71 190.916 1392.98 228.422C1377.36 242.488 1355.12 267.642 1337.69 309.017" stroke="#ECE1CF" stroke-width="7.82918" stroke-miterlimit="10"/>
<path d="M1446.83 193.176C1423.48 198.736 1398.24 203.728 1371.19 207.085C1280.3 218.578 1201.15 210.358 1139.71 197.66" stroke="#ECE1CF" stroke-width="7.82918" stroke-miterlimit="10"/>
<path d="M1369.47 436.354C1342.15 482.17 1282.87 497.17 1237.07 469.858C1191.26 442.546 1176.27 383.265 1203.58 337.449C1230.9 291.634 1290.18 276.634 1335.99 303.946C1381.8 331.257 1396.79 390.539 1369.47 436.354Z" fill="#CD4223"/>
<path d="M1202.54 459.489C1200.06 455.232 1204.55 446.774 1211.1 442.328C1221 435.986 1237.08 438.892 1252.03 448.361C1255.4 452.041 1272.91 470.276 1269.03 490.786C1267.58 498.825 1262.52 509.171 1256.78 508.532C1248.5 507.489 1243.59 481.183 1242.84 476.839C1242.39 491.6 1233.15 500.564 1225.27 499.766C1219.12 498.882 1213.61 492.256 1212.12 486.356C1209.8 477.18 1215.92 466.913 1227.39 462.616C1216.16 466.502 1205.58 464.646 1202.54 459.489Z" fill="#ECE1CF"/>
<path d="M1409.91 340.162C1427.79 381.401 1421.42 417.408 1419.14 428.293C1409.81 422.397 1379.45 402.3 1361.86 360.681C1357.34 350.036 1343.72 315.041 1352.63 272.55C1361.95 278.446 1392.03 298.923 1409.91 340.162Z" fill="#ECE1CF"/>
<path d="M1267.72 298.478C1312.65 299.662 1343.67 280.305 1352.92 274.129C1343.97 267.677 1313.99 247.018 1268.81 246.244C1257.25 246.031 1219.7 246.467 1183.61 270.594C1192.56 277.046 1222.79 297.295 1267.72 298.478Z" fill="#ECE1CF"/>
<path d="M1132.35 251.195C1105.03 297.011 1045.75 312.011 999.945 284.699C954.137 257.387 939.147 198.106 966.464 152.29C993.78 106.475 1053.06 91.4746 1098.87 118.787C1144.67 146.098 1159.66 205.38 1132.35 251.195Z" fill="#CD4223"/>
<path d="M928.046 178.335C929.263 173.494 938.684 170.762 946.478 172.625C958.291 175.215 967.181 188.309 970.591 205.928C970.44 210.849 969.197 236.271 951.846 247.635C945.299 252.082 934.077 255.968 930.785 251.221C925.518 244.185 941.283 222.411 943.898 218.96C932.856 229.077 920.229 228.785 915.129 222.404C911.426 217.413 912.469 209.128 915.897 203.379C920.794 195.165 932.348 192.59 943.758 197.723C932.348 192.59 926.584 183.587 928.046 178.335Z" fill="#ECE1CF"/>
<path d="M1114.9 253.839C1085.87 288.42 1081.85 324.56 1080.74 335.707C1091.25 332.752 1126.49 322.226 1155.18 287.98C1162.69 279.253 1185.6 249.354 1189.34 206.112C1179.18 208.732 1143.93 219.258 1114.9 253.839Z" fill="#ECE1CF"/>
<path d="M1168.61 120.254C1191.01 159.22 1188.73 195.714 1187.7 206.787C1177.76 201.977 1145.33 185.425 1123.17 146.048C1117.49 135.979 1100.02 102.739 1104.08 59.5158C1114.42 64.57 1146.61 81.5332 1168.61 120.254Z" fill="#ECE1CF"/>
<path d="M49.7207 762.161C64.6041 712.515 94.8527 684.729 104.025 676.667C107.494 688.56 117.715 728.476 102.871 777.8C99.04 790.444 85.5004 831.732 48.5667 863.294C45.058 851.724 34.8372 811.808 49.7207 762.161Z" fill="#ECE1CF"/>
<path d="M139.96 808.929C168.356 801.235 190.814 807.498 197.448 809.506C192.753 814.741 176.568 831.625 148.339 839.24C141.095 841.18 117.132 847.018 90.8514 838.663C95.3792 833.506 111.564 816.622 139.96 808.929Z" fill="#ECE1CF"/>
</svg>
