<svg width="973" height="634" viewBox="0 0 973 634" fill="none" xmlns="http://www.w3.org/2000/svg">
<g clip-path="url(#clip0_1194_4319)">
<line x1="-11.2656" y1="103.644" x2="459.023" y2="103.644" stroke="black" stroke-width="0.75126"/>
<line x1="-11.2656" y1="15.7474" x2="459.023" y2="15.7474" stroke="black" stroke-width="0.75126"/>
<line x1="-11.2656" y1="118.669" x2="459.023" y2="118.669" stroke="black" stroke-width="0.75126"/>
<line x1="-11.2656" y1="206.568" x2="459.023" y2="206.568" stroke="black" stroke-width="0.75126"/>
<line x1="-11.2656" y1="221.593" x2="459.023" y2="221.593" stroke="black" stroke-width="0.75126"/>
<line x1="-11.2656" y1="309.491" x2="459.023" y2="309.491" stroke="black" stroke-width="0.75126"/>
<line x1="-11.2656" y1="324.514" x2="459.023" y2="324.514" stroke="black" stroke-width="0.75126"/>
<line x1="-11.2656" y1="412.411" x2="459.023" y2="412.411" stroke="black" stroke-width="0.75126"/>
<line x1="-11.2656" y1="427.437" x2="459.023" y2="427.437" stroke="black" stroke-width="0.75126"/>
<line x1="14.6478" y1="662.958" x2="14.6478" y2="-19.9377" stroke="black" stroke-width="0.75126"/>
<line x1="71.7494" y1="662.958" x2="71.7493" y2="-19.9377" stroke="black" stroke-width="0.75126"/>
<line x1="86.7728" y1="662.958" x2="86.7728" y2="-19.9377" stroke="black" stroke-width="0.75126"/>
<line x1="143.867" y1="658.451" x2="143.867" y2="-24.4446" stroke="black" stroke-width="0.75126"/>
<line x1="158.89" y1="658.451" x2="158.89" y2="-24.4446" stroke="black" stroke-width="0.75126"/>
<line x1="215.992" y1="658.451" x2="215.992" y2="-24.4446" stroke="black" stroke-width="0.75126"/>
<line x1="231.015" y1="658.451" x2="231.015" y2="-24.4446" stroke="black" stroke-width="0.75126"/>
<line x1="287.359" y1="650.938" x2="287.359" y2="-31.9583" stroke="black" stroke-width="0.75126"/>
<line x1="302.382" y1="650.938" x2="302.382" y2="-31.9583" stroke="black" stroke-width="0.75126"/>
<line x1="374.499" y1="650.938" x2="374.499" y2="-31.9583" stroke="black" stroke-width="0.75126"/>
<line x1="359.476" y1="650.938" x2="359.476" y2="-31.9583" stroke="black" stroke-width="0.75126"/>
<line x1="431.601" y1="650.938" x2="431.601" y2="-31.9583" stroke="black" stroke-width="0.75126"/>
<line x1="302.382" y1="650.938" x2="302.382" y2="-31.9583" stroke="black" stroke-width="0.75126"/>
<line x1="-11.2656" y1="515.335" x2="459.023" y2="515.335" stroke="black" stroke-width="0.75126"/>
<line x1="-11.2656" y1="530.362" x2="459.023" y2="530.362" stroke="black" stroke-width="0.75126"/>
<line x1="-11.2656" y1="618.257" x2="459.023" y2="618.257" stroke="black" stroke-width="0.75126"/>
<path d="M32.8835 16.4326L27.6331 24.9434L32.8835 33.4541H28.1858L24.317 27.1757H19.5363V33.4541H15.3359V16.4326H19.5363V22.711H24.317L28.1858 16.4326H32.8835Z" fill="black"/>
<path d="M69.6741 16.4326H73.9574V33.4541H69.6741V27.1478H60.6101V33.4541H56.3821V16.4326H60.6101V22.711H69.6741V16.4326Z" fill="black"/>
<path d="M55.6211 24.9434C55.6211 29.6437 50.0325 33.4541 43.1387 33.4541C36.2448 33.4541 30.6562 29.6437 30.6562 24.9434C30.6562 20.243 36.2448 16.4326 43.1387 16.4326C50.0325 16.4326 55.6211 20.243 55.6211 24.9434Z" fill="black"/>
<path d="M45.9746 24.9434C45.9746 29.6437 44.7045 33.4541 43.1377 33.4541C41.5709 33.4541 40.3008 29.6437 40.3008 24.9434C40.3008 20.243 41.5709 16.4326 43.1377 16.4326C44.7045 16.4326 45.9746 20.243 45.9746 24.9434Z" fill="#ECE1CF"/>
<path d="M103.333 16.4326L98.0823 24.9434L103.333 33.4541H98.635L94.7662 27.1757H89.9855V33.4541H85.7852V16.4326H89.9855V22.711H94.7662L98.635 16.4326H103.333Z" fill="black"/>
<path d="M140.123 16.4326H144.407V33.4541H140.123V27.1478H131.059V33.4541H126.831V16.4326H131.059V22.711H140.123V16.4326Z" fill="black"/>
<path d="M126.07 24.9434C126.07 29.6437 120.482 33.4541 113.588 33.4541C106.694 33.4541 101.105 29.6437 101.105 24.9434C101.105 20.243 106.694 16.4326 113.588 16.4326C120.482 16.4326 126.07 20.243 126.07 24.9434Z" fill="black"/>
<path d="M116.424 24.9434C116.424 29.6437 115.154 33.4541 113.587 33.4541C112.02 33.4541 110.75 29.6437 110.75 24.9434C110.75 20.243 112.02 16.4326 113.587 16.4326C115.154 16.4326 116.424 20.243 116.424 24.9434Z" fill="#ECE1CF"/>
<path d="M76.2422 22.877H83.5032V26.9715H76.2422V22.877Z" fill="black"/>
</g>
<g clip-path="url(#clip1_1194_4319)">
<line x1="514.734" y1="103.269" x2="985.023" y2="103.269" stroke="black" stroke-width="0.75126"/>
<line x1="514.734" y1="15.3724" x2="985.023" y2="15.3724" stroke="black" stroke-width="0.75126"/>
<line x1="514.734" y1="118.294" x2="985.023" y2="118.294" stroke="black" stroke-width="0.75126"/>
<line x1="514.734" y1="206.193" x2="985.023" y2="206.193" stroke="black" stroke-width="0.75126"/>
<line x1="514.734" y1="221.218" x2="985.023" y2="221.218" stroke="black" stroke-width="0.75126"/>
<line x1="514.734" y1="309.116" x2="985.023" y2="309.116" stroke="black" stroke-width="0.75126"/>
<line x1="514.734" y1="324.139" x2="985.023" y2="324.139" stroke="black" stroke-width="0.75126"/>
<line x1="514.734" y1="412.036" x2="985.023" y2="412.036" stroke="black" stroke-width="0.75126"/>
<line x1="514.734" y1="427.062" x2="985.023" y2="427.062" stroke="black" stroke-width="0.75126"/>
<line x1="540.648" y1="662.583" x2="540.648" y2="-20.3127" stroke="black" stroke-width="0.75126"/>
<line x1="597.749" y1="662.583" x2="597.749" y2="-20.3127" stroke="black" stroke-width="0.75126"/>
<line x1="612.773" y1="662.583" x2="612.773" y2="-20.3127" stroke="black" stroke-width="0.75126"/>
<line x1="669.867" y1="658.076" x2="669.867" y2="-24.8196" stroke="black" stroke-width="0.75126"/>
<line x1="684.89" y1="658.076" x2="684.89" y2="-24.8196" stroke="black" stroke-width="0.75126"/>
<line x1="741.992" y1="658.076" x2="741.992" y2="-24.8196" stroke="black" stroke-width="0.75126"/>
<line x1="757.015" y1="658.076" x2="757.015" y2="-24.8196" stroke="black" stroke-width="0.75126"/>
<line x1="813.359" y1="650.563" x2="813.359" y2="-32.3333" stroke="black" stroke-width="0.75126"/>
<line x1="828.382" y1="650.563" x2="828.382" y2="-32.3333" stroke="black" stroke-width="0.75126"/>
<line x1="900.499" y1="650.563" x2="900.499" y2="-32.3333" stroke="black" stroke-width="0.75126"/>
<line x1="885.476" y1="650.563" x2="885.476" y2="-32.3333" stroke="black" stroke-width="0.75126"/>
<line x1="957.601" y1="650.563" x2="957.601" y2="-32.3333" stroke="black" stroke-width="0.75126"/>
<line x1="828.382" y1="650.563" x2="828.382" y2="-32.3333" stroke="black" stroke-width="0.75126"/>
<line x1="514.734" y1="514.96" x2="985.023" y2="514.96" stroke="black" stroke-width="0.75126"/>
<line x1="514.734" y1="529.987" x2="985.023" y2="529.987" stroke="black" stroke-width="0.75126"/>
<line x1="514.734" y1="617.882" x2="985.023" y2="617.882" stroke="black" stroke-width="0.75126"/>
<path d="M703.126 15.748L697.875 24.2588L703.126 32.7695H698.428L694.559 26.4911H689.778V32.7695H685.578V15.748H689.778V22.0265H694.559L698.428 15.748H703.126Z" fill="black"/>
<path d="M739.916 15.748H744.2V32.7695H739.916V26.4632H730.852V32.7695H726.624V15.748H730.852V22.0265H739.916V15.748Z" fill="black"/>
<path d="M725.863 24.2588C725.863 28.9591 720.275 32.7695 713.381 32.7695C706.487 32.7695 700.898 28.9591 700.898 24.2588C700.898 19.5584 706.487 15.748 713.381 15.748C720.275 15.748 725.863 19.5584 725.863 24.2588Z" fill="black"/>
<path d="M716.217 24.2588C716.217 28.9591 714.947 32.7695 713.38 32.7695C711.813 32.7695 710.543 28.9591 710.543 24.2588C710.543 19.5584 711.813 15.748 713.38 15.748C714.947 15.748 716.217 19.5584 716.217 24.2588Z" fill="#ECE1CF"/>
<path d="M773.575 15.748L768.324 24.2588L773.575 32.7695H768.877L765.008 26.4911H760.228V32.7695H756.027V15.748H760.228V22.0265H765.008L768.877 15.748H773.575Z" fill="black"/>
<path d="M810.366 15.748H814.649V32.7695H810.366V26.4632H801.302V32.7695H797.074V15.748H801.302V22.0265H810.366V15.748Z" fill="black"/>
<path d="M796.313 24.2588C796.313 28.9591 790.724 32.7695 783.83 32.7695C776.936 32.7695 771.348 28.9591 771.348 24.2588C771.348 19.5584 776.936 15.748 783.83 15.748C790.724 15.748 796.313 19.5584 796.313 24.2588Z" fill="black"/>
<path d="M786.666 24.2588C786.666 28.9591 785.396 32.7695 783.829 32.7695C782.262 32.7695 780.992 28.9591 780.992 24.2588C780.992 19.5584 782.262 15.748 783.829 15.748C785.396 15.748 786.666 19.5584 786.666 24.2588Z" fill="#ECE1CF"/>
<path d="M746.484 22.1924H753.745V26.2869H746.484V22.1924Z" fill="black"/>
</g>
<defs>
<clipPath id="clip0_1194_4319">
<rect width="447" height="632.561" fill="white" transform="translate(0 1.09766)"/>
</clipPath>
<clipPath id="clip1_1194_4319">
<rect width="447" height="632.561" fill="white" transform="translate(526 0.722656)"/>
</clipPath>
</defs>
</svg>
